<?xml version="1.0" encoding="UTF-8" standalone="no"?>
<!-- Created with Inkscape (http://www.inkscape.org/) -->

<svg
   xmlns:dc="http://purl.org/dc/elements/1.1/"
   xmlns:cc="http://creativecommons.org/ns#"
   xmlns:rdf="http://www.w3.org/1999/02/22-rdf-syntax-ns#"
   xmlns:svg="http://www.w3.org/2000/svg"
   xmlns="http://www.w3.org/2000/svg"
   xmlns:sodipodi="http://sodipodi.sourceforge.net/DTD/sodipodi-0.dtd"
   xmlns:inkscape="http://www.inkscape.org/namespaces/inkscape"
   id="svg2"
   version="1.1"
   inkscape:version="0.48.5 r10040"
   width="512"
   height="512"
   sodipodi:docname="input-mouse.svg">
  <metadata
     id="metadata8">
    <rdf:RDF>
      <cc:Work
         rdf:about="">
        <dc:format>image/svg+xml</dc:format>
        <dc:type
           rdf:resource="http://purl.org/dc/dcmitype/StillImage" />
        <dc:title />
      </cc:Work>
    </rdf:RDF>
  </metadata>
  <defs
     id="defs6">
    <clipPath
       id="clipPath-717834183">
      <g
         id="g17"
         transform="translate(0,-1004.3622)">
        <path
           id="path19"
           fill="#1890d0"
           transform="matrix(15.333333,0,0,11.5,414.99999,878.8622)"
           d="m -24 13 c 0 1.105 -0.672 2 -1.5 2 -0.828 0 -1.5 -0.895 -1.5 -2 0 -1.105 0.672 -2 1.5 -2 0.828 0 1.5 0.895 1.5 2 z" />
      </g>
    </clipPath>
    <clipPath
       id="clipPath-699552035">
      <g
         id="g12"
         transform="translate(0,-1004.3622)">
        <path
           id="path14"
           fill="#1890d0"
           transform="matrix(15.333333,0,0,11.5,414.99999,878.8622)"
           d="m -24 13 c 0 1.105 -0.672 2 -1.5 2 -0.828 0 -1.5 -0.895 -1.5 -2 0 -1.105 0.672 -2 1.5 -2 0.828 0 1.5 0.895 1.5 2 z" />
      </g>
    </clipPath>
    <linearGradient
       gradientUnits="userSpaceOnUse"
       y2="1"
       x2="0"
       y1="47"
       id="linearGradient3764">
      <stop
         id="stop7"
         stop-opacity="1"
         stop-color="#3fc58b" />
      <stop
         id="stop9"
         stop-opacity="1"
         stop-color="#4eca95"
         offset="1" />
    </linearGradient>
  </defs>
  <sodipodi:namedview
     pagecolor="#ffffff"
     bordercolor="#666666"
     borderopacity="1"
     objecttolerance="10"
     gridtolerance="10"
     guidetolerance="10"
     inkscape:pageopacity="0"
     inkscape:pageshadow="2"
     inkscape:window-width="1219"
     inkscape:window-height="663"
     id="namedview4"
     showgrid="false"
     inkscape:zoom="0.46093749"
     inkscape:cx="903.51437"
     inkscape:cy="346.22594"
     inkscape:window-x="145"
     inkscape:window-y="77"
     inkscape:window-maximized="0"
     inkscape:current-layer="svg2" />
  <path
     sodipodi:type="arc"
     style="fill:#ffffff;fill-opacity:1;fill-rule:nonzero;stroke:#ffffff;stroke-width:8.51035689999999789;stroke-linecap:round;stroke-linejoin:miter;stroke-miterlimit:4;stroke-opacity:1;stroke-dasharray:none"
     id="path3017"
     sodipodi:cx="288.97897"
     sodipodi:cy="97.803215"
     sodipodi:rx="106.04205"
     sodipodi:ry="74.018501"
     d="m 395.02103,97.803215 a 106.04205,74.018501 0 1 1 -212.08411,0 106.04205,74.018501 0 1 1 212.08411,0 z"
     transform="matrix(0.95117541,0,0,1,11.698852,-3.1505465)" />
  <path
     inkscape:connector-curvature="0"
     style="fill:#6dbc82;fill-opacity:1"
     d="M 223.25688,499.02576 C 182.96741,494.48872 140.72839,476.73587 104.91111,449.2857 96.66931,442.9692 73.495181,420.48114 68.055931,413.52157 60.342837,403.65259 58.645594,401.3544 53.522257,393.84169 46.389382,383.38245 39.977069,372.33201 35.8426,363.37397 28.600042,347.68156 27.651734,345.37837 24.290763,335.31613 19.26616,320.27339 15.33592,303.53439 14.000481,291.48919 12.511562,278.05973 9.4007702,236.61876 13.980487,221.96596 16.21358,201.4296 26.392274,168.54507 37.080922,147.3349 c 5.372697,-10.66153 17.313568,-29.76384 25.054083,-40.08021 8.72786,-11.632316 32.855629,-35.760112 44.488015,-44.488 10.31637,-7.740524 29.41868,-19.681357 40.08019,-25.054102 21.2101,-10.688591 54.09468,-20.867285 74.63097,-23.100426 13.62002,-1.481055 56.09383,-1.468668 69.52324,0.02028 11.04807,1.224897 33.27989,6.266905 35.4033,8.029159 1.53758,1.276016 1.80217,44.970051 0.30506,50.359153 -1.16682,4.200071 -6.21713,9.20925 -10.53269,10.446944 -1.7954,0.514923 -13.02828,0.936216 -24.96192,0.936216 -23.71321,0 -25.30553,0.284321 -31.35899,5.59939 -5.76259,5.0596 -6.8699,8.49076 -7.41099,22.964096 l -0.48053,12.85357 -7.61693,1.49722 c -10.11624,1.98851 -13.87577,3.27361 -22.37474,7.6483 -14.03305,7.22329 -24.77549,18.2356 -31.94493,32.7476 -7.88276,15.95576 -7.57418,12.38014 -7.51934,87.11864 0.0476,65.18005 0.08,66.29997 2.17178,74.70262 9.7789,39.28829 47.41787,63.26781 86.60269,55.17397 13.93175,-2.87768 24.78492,-8.74689 35.7512,-19.33351 11.34104,-10.94853 18.85581,-24.83341 21.4727,-39.67477 0.61669,-3.4978 1.04657,-29.75511 1.12893,-68.96408 0.11577,-55.06993 -0.0676,-64.25834 -1.40799,-70.55359 -4.86332,-22.84204 -19.08336,-41.16067 -40.08296,-51.63597 -6.77183,-3.37803 -20.47211,-7.29826 -25.50576,-7.29826 l -2.76847,0 0.33143,-12.78531 c 0.35971,-13.87491 0.93983,-15.560736 6.88371,-20.003866 2.44903,-1.83068 4.2749,-1.99517 27.07647,-2.43912 21.45223,-0.41768 24.85899,-0.6937 27.78275,-2.25096 4.66413,-2.48418 8.39386,-6.146258 10.79852,-10.60261 1.92766,-3.572331 2.07343,-5.328566 2.35164,-28.32545 0.28325,-23.419499 0.37818,-24.516994 2.12055,-24.516994 1.8154,0 12.33048,3.692859 15.77171,5.538946 0.99306,0.532776 5.23321,2.529725 9.42252,4.437662 9.29913,4.23507 20.18468,10.515429 30.94378,17.85277 7.51281,5.123414 9.81093,6.820638 19.6799,14.533732 6.68795,5.226909 29.4164,28.474814 34.91258,35.71041 29.44791,38.76745 46.32303,79.42583 50.70505,122.1668 1.6603,16.1932 1.44522,49.83718 -0.42397,66.35223 -1.08789,9.61174 -6.93436,33.96366 -10.27067,42.77999 -7.35263,19.42928 -10.01293,25.37838 -17.00232,38.02164 -12.94974,23.42508 -22.61372,36.56401 -39.90472,54.25332 -17.84133,18.25241 -33.50583,30.02949 -57.81854,43.46989 -12.64325,6.98939 -18.59235,9.64967 -38.02162,17.00228 -8.77347,3.32014 -33.1305,9.17584 -42.78001,10.28478 -13.56785,1.55924 -56.18934,1.74232 -69.02843,0.29649 z"
     id="path3040"
     sodipodi:nodetypes="csssssscsssssscssssscsssscsscsssscssssssscsssssssssssscc" />
  <path
     inkscape:connector-curvature="0"
     id="path2988"
     d="m 246.59196,223.91656 -2.92947,-2.46494 0,-22.36333 0,-22.36334 2.78313,-2.7831 c 3.54806,-3.54805 7.45773,-3.65693 11.42558,-0.31819 l 2.92938,2.46494 0,22.68151 0,22.68151 -2.92938,2.46494 c -1.65011,1.38846 -4.11305,2.46492 -5.63967,2.46492 -1.52662,0 -3.98956,-1.07646 -5.63957,-2.46492 z"
     style="fill:#82e19b;fill-opacity:1" />
  <g
     id="g33"
     transform="matrix(12.508991,0,0,12.508991,1421.3021,-185.95175)" />
  <path
     style="fill:#f2f2f2;fill-opacity:1;fill-rule:nonzero;stroke:none"
     inkscape:connector-curvature="0"
     id="path61"
     d="m 255.36876,125.63012 0,112.2543 -84.12299,0 0,-33.67629 c 0,-33.67629 42.0615,-78.57801 84.12299,-78.57801" />
  <path
     style="fill:#e6e6e6;fill-opacity:1;fill-rule:nonzero;stroke:none"
     inkscape:connector-curvature="0"
     id="path63"
     d="m 171.24577,246.78604 0,68.42511 c 0,45.61673 31.5461,79.82927 84.12299,79.82927 52.57689,0 84.123,-34.21254 84.123,-79.82927 l 0,-68.42511 m -168.24599,0" />
  <path
     style="fill:#e6e6e6;fill-opacity:1;fill-rule:nonzero;stroke:none"
     inkscape:connector-curvature="0"
     id="path65"
     d="m 171.24577,211.32596 168.24599,0 0,42.43152 -168.24599,0 m 0,-42.43152" />
  <path
     style="fill:#e6e6e6;fill-opacity:1;fill-rule:nonzero;stroke:none"
     inkscape:connector-curvature="0"
     id="path67"
     d="m 254.98524,125.63012 0,116.64372 84.50652,0 0,-34.99311 c 0,-34.99312 -42.25326,-81.65061 -84.50652,-81.65061 m 0,0" />
  <path
     style="fill:#4d4d4d;fill-opacity:1;fill-rule:nonzero;stroke:none"
     inkscape:connector-curvature="0"
     id="path69"
     d="m 255.36876,181.75727 c 5.79399,0 10.5154,5.60619 10.5154,12.51382 l 0,33.3701 c 0,6.90763 -4.72141,12.51381 -10.5154,12.51381 -5.79399,0 -10.5154,-5.60618 -10.5154,-12.51381 l 0,-33.3701 c 0,-6.90763 4.72141,-12.51382 10.5154,-12.51382 m 0,0" />
</svg>
