<?xml version="1.0" encoding="UTF-8" standalone="no"?>
<!-- Created with Inkscape (http://www.inkscape.org/) -->

<svg
   xmlns:dc="http://purl.org/dc/elements/1.1/"
   xmlns:cc="http://creativecommons.org/ns#"
   xmlns:rdf="http://www.w3.org/1999/02/22-rdf-syntax-ns#"
   xmlns:svg="http://www.w3.org/2000/svg"
   xmlns="http://www.w3.org/2000/svg"
   xmlns:sodipodi="http://sodipodi.sourceforge.net/DTD/sodipodi-0.dtd"
   xmlns:inkscape="http://www.inkscape.org/namespaces/inkscape"
   id="svg2"
   version="1.1"
   inkscape:version="0.48.5 r10040"
   width="512"
   height="512"
   sodipodi:docname="cs-session-properties.svg">
  <metadata
     id="metadata8">
    <rdf:RDF>
      <cc:Work
         rdf:about="">
        <dc:format>image/svg+xml</dc:format>
        <dc:type
           rdf:resource="http://purl.org/dc/dcmitype/StillImage" />
        <dc:title />
      </cc:Work>
    </rdf:RDF>
  </metadata>
  <defs
     id="defs6" />
  <sodipodi:namedview
     pagecolor="#ffffff"
     bordercolor="#666666"
     borderopacity="1"
     objecttolerance="10"
     gridtolerance="10"
     guidetolerance="10"
     inkscape:pageopacity="0"
     inkscape:pageshadow="2"
     inkscape:window-width="1214"
     inkscape:window-height="657"
     id="namedview4"
     showgrid="false"
     inkscape:zoom="0.32593203"
     inkscape:cx="629.63333"
     inkscape:cy="245.25853"
     inkscape:window-x="15"
     inkscape:window-y="39"
     inkscape:window-maximized="0"
     inkscape:current-layer="svg2" />
  <path
     style="fill:#ececec;fill-opacity:1;fill-rule:nonzero;stroke:none"
     d="m 182.54282,349.78868 c -1.90651,-17.80277 1.43453,-23.51145 6.56871,-11.22363 3.56344,8.5285 7.13878,9.70025 17.53626,5.74714 10.51292,-3.99701 7.97487,-0.56382 -4.91229,6.64478 -6.93181,3.8774 -13.73842,8.44547 -15.12581,10.15127 -1.99974,2.45872 -2.84256,0.11283 -4.06687,-11.31956 z"
     id="path3009"
     inkscape:connector-curvature="0" />
  <path
     sodipodi:type="arc"
     style="fill:#004455;fill-opacity:1;fill-rule:nonzero;stroke:none"
     id="path2998"
     sodipodi:cx="-248.40678"
     sodipodi:cy="670.37286"
     sodipodi:rx="146.44067"
     sodipodi:ry="145.35593"
     d="m -101.96611,670.37286 a 146.44067,145.35593 0 1 1 -292.88135,0 146.44067,145.35593 0 1 1 292.88135,0 z"
     transform="matrix(1.6010172,0,0,1.6120271,653.85241,-822.47715)" />
  <path
     style="fill:#d23a33"
     d="m 229.57525,362.98345 c -3.09939,-2.17089 -2.77693,-4.11807 1.27617,-7.70642 6.94514,-6.14876 9.56354,-19.84979 5.42666,-28.39545 -1.14282,-2.36074 -1.93032,-4.90885 -1.75,-5.66247 0.41727,-1.74396 23.94215,-23.85891 29.55932,-27.78769 4.0242,-2.81468 4.374,-2.88585 7.1438,-1.45351 7.9423,4.10711 13.0678,12.65305 13.1028,21.84659 0.027,7.05699 -1.5531,11.0344 -7.344,18.48898 -8.9012,11.45834 -20.84044,21.17102 -33.7264,27.43668 -9.80723,4.76866 -11.07034,5.06702 -13.68835,3.23329 z"
     id="path3023"
     inkscape:connector-curvature="0" />
  <path
     style="fill:#d23a33"
     d="m 167.52057,324.90315 c -3.42782,-3.42782 -1.48108,-24.47654 3.51535,-38.00892 2.47979,-6.71631 8.66371,-17.78124 12.45684,-22.28912 3.30708,-3.93025 11.74824,-8.02246 18.09996,-8.77472 6.77365,-0.80224 15.44857,1.78529 20.01486,5.96999 l 3.52614,3.23146 -1.72115,5.97137 c -0.94663,3.28425 -3.92281,12.27137 -6.61372,19.97137 l -4.89257,14 -9.22857,0 c -8.36167,0 -9.73196,0.27882 -14.58737,2.96815 -6.1406,3.40117 -11.74254,9.44027 -12.66878,13.65743 -0.97548,4.44132 -5.05657,6.14741 -7.90099,3.30299 z"
     id="path3019"
     inkscape:connector-curvature="0" />
  <path
     style="fill:#d23a33"
     d="M 299.13578,217.29098 C 281.3447,214.24905 268.35868,200.17192 268.3567,183.37 c -10e-4,-13.62833 9.35534,-26.64619 22.88526,-31.83904 9.58275,-3.67787 20.99382,-3.32804 30.07599,0.92204 13.44706,6.29263 20.8934,17.34672 20.8934,31.01608 0,15.97846 -12.62381,30.86647 -28.3697,33.45799 -8.26881,1.36093 -9.65263,1.22793 -14.70587,0.36391 z"
     id="path3017"
     inkscape:connector-curvature="0"
     sodipodi:nodetypes="scsssss" />
  <path
     style="fill:#d23a33"
     d="m 346.40325,148.782 c -7.1986,-1.56395 -16.3889,-6.19018 -22.2306,-11.1904 -3.6914,-3.15969 -10.0321,-11.24249 -10.0321,-12.78838 0,-1.19606 13.0478,-6.54696 19.7602,-8.10368 16.405,-3.80458 23.5661,2.92087 24.9651,23.44658 0.7493,10.99385 0.1863,11.38396 -12.4626,8.63588 z"
     id="path2986"
     inkscape:connector-curvature="0" />
  <path
     inkscape:connector-curvature="0"
     id="path2984"
     d="m 300.28412,209.0363 c -21.9287,-4.1833 -30.5452,-28.73491 -15.3999,-43.88015 14.0159,-14.01587 38.4191,-10.12011 46.7454,7.4625 9.123,19.26486 -9.2662,40.62968 -31.3455,36.41765 z"
     style="fill:#3a3f5f" />
  <path
     style="fill:#ececec;fill-opacity:1;fill-rule:nonzero;stroke:none"
     d="m 126.89491,445.38983 c -0.73745,-1.19322 -0.45502,-2.16949 0.62762,-2.16949 1.08264,0 3.50055,-3.90036 5.37312,-8.66747 3.06441,-7.80123 40.52642,-55.08786 42.26502,-53.34926 1.79187,1.79188 -30.78804,53.01644 -37.71916,59.30487 -8.70088,7.89408 -8.68824,7.88823 -10.5466,4.88135 z"
     id="path3013"
     inkscape:connector-curvature="0" />
  <path
     style="fill:#ececec;fill-opacity:1;fill-rule:nonzero;stroke:none"
     d="m 126.37807,445.27863 c -0.73789,-1.25393 0.40451,-2.64138 2.53868,-3.08321 2.31129,-0.47849 4.1718,-3.68794 4.60119,-7.93724 0.77937,-7.71257 7.54133,-17.48068 31.32713,-45.25417 8.41079,-9.82085 17.13052,-21.47541 19.3772,-25.89901 2.24667,-4.4236 4.12915,-6.70769 4.18329,-5.07576 0.16204,4.88429 -5.2028,15.94621 -14.71029,30.33157 -4.93134,7.46138 -10.88213,18.00598 -13.22398,23.43243 -5.93067,13.74233 -18.63908,31.31712 -21.36574,29.54724 -1.24795,-0.81004 -2.269,0.25764 -2.269,2.37263 0,4.13861 -8.22025,5.36911 -10.45848,1.56552 z"
     id="path3011"
     inkscape:connector-curvature="0" />
  <path
     sodipodi:type="arc"
     style="fill:#ffcc00;fill-opacity:1;fill-rule:nonzero;stroke:none"
     id="path3005"
     sodipodi:cx="190.22371"
     sodipodi:cy="337.50043"
     sodipodi:rx="28.38015"
     sodipodi:ry="26.846088"
     d="m 218.60386,337.50043 a 28.38015,26.846088 0 1 1 -56.7603,0 28.38015,26.846088 0 1 1 56.7603,0 z"
     transform="matrix(0.80019435,-1.2767165,0.60523395,0.3793362,-148.80899,444.66574)" />
  <path
     style="fill:#f2f2f2;fill-opacity:1;fill-rule:nonzero;stroke:none"
     d="m 219.7462,313.66748 c -3.73795,-2.73325 -1.47072,-1.15469 10.12246,-18.17833 11.99569,-17.61471 16.2482,-20.81118 9.40782,-20.81118 -3.13601,0 -4.61186,5.86348 -19.21401,27.14241 -6.94246,10.11688 -4.71334,9.78761 -13.2989,3.87219 -4.32975,-2.98319 -5.28724,-1.54788 1.37331,-22.98675 8.12438,-26.15064 26.04885,-70.55545 34.15235,-84.6066 15.37046,-26.65178 37.03869,-51.26228 57.50359,-65.31182 6.7955,-4.66527 13.2152,-8.48231 14.2659,-8.48231 1.0507,0 4.2605,2.5016 7.1329,5.55912 7.796,8.2985 17.9854,13.94638 28.4759,15.78384 l 9.363,1.63998 -0.2811,10.74581 c -0.3952,15.10896 -11.53533,41.81533 -23.16603,60.532 -5.4301,8.73832 -17.43358,25.66035 -28.33157,36.61017 -20.4843,20.58171 -55.59483,55.47034 -72.61197,65.73925 -0.93764,0.56581 -12.70574,-5.64794 -14.89365,-7.24778 z m 95.84552,-98.11055 c 11.1565,-3.0973 22.58152,-16.9591 23.83377,-25.30169 3.71571,-24.75417 -10.25307,-39.91625 -33.54757,-39.91625 -32.1109,0 -48.21895,34.73429 -25.8841,55.81484 6.1316,5.78717 16.80354,10.1794 23.13943,10.68697 1.7898,0.0841 7.71257,0.0337 12.45847,-1.28387 z"
     id="path3007"
     inkscape:connector-curvature="0"
     sodipodi:nodetypes="ssssssssssscssssssssscs" />
  <path
     style="fill:#d23a33"
     d="m 200.01694,332.83312 c 0,-1.25705 6.33969,-11.94455 14.0882,-23.75 24.36671,-37.1246 23.12883,-35.43192 26.16749,-35.78144 3.30746,-0.38044 4.51398,1.83232 2.91389,5.34413 -0.60134,1.31979 -6.40194,9.72859 -12.89024,18.68623 -6.48829,8.95763 -13.41651,18.76161 -15.39604,21.78661 -9.01579,13.77741 -14.8833,19.18412 -14.8833,13.71447 z"
     id="path3021"
     inkscape:connector-curvature="0" />
</svg>
