<?xml version="1.0" encoding="UTF-8" standalone="no"?>
<!-- Created with Inkscape (http://www.inkscape.org/) -->

<svg
   xmlns:dc="http://purl.org/dc/elements/1.1/"
   xmlns:cc="http://creativecommons.org/ns#"
   xmlns:rdf="http://www.w3.org/1999/02/22-rdf-syntax-ns#"
   xmlns:svg="http://www.w3.org/2000/svg"
   xmlns="http://www.w3.org/2000/svg"
   xmlns:sodipodi="http://sodipodi.sourceforge.net/DTD/sodipodi-0.dtd"
   xmlns:inkscape="http://www.inkscape.org/namespaces/inkscape"
   id="svg2"
   version="1.1"
   inkscape:version="0.48.5 r10040"
   width="512"
   height="512"
   sodipodi:docname="acroread.svg">
  <metadata
     id="metadata8">
    <rdf:RDF>
      <cc:Work
         rdf:about="">
        <dc:format>image/svg+xml</dc:format>
        <dc:type
           rdf:resource="http://purl.org/dc/dcmitype/StillImage" />
        <dc:title />
      </cc:Work>
    </rdf:RDF>
  </metadata>
  <defs
     id="defs6" />
  <sodipodi:namedview
     pagecolor="#ffffff"
     bordercolor="#666666"
     borderopacity="1"
     objecttolerance="10"
     gridtolerance="10"
     guidetolerance="10"
     inkscape:pageopacity="0"
     inkscape:pageshadow="2"
     inkscape:window-width="1149"
     inkscape:window-height="685"
     id="namedview4"
     showgrid="false"
     inkscape:zoom="0.4609375"
     inkscape:cx="277.78906"
     inkscape:cy="288.70324"
     inkscape:window-x="90"
     inkscape:window-y="47"
     inkscape:window-maximized="0"
     inkscape:current-layer="svg2" />
  <rect
     style="fill:#ff2a2a;fill-rule:evenodd;stroke:none"
     id="rect2986"
     width="469.94705"
     height="469"
     x="21.694914"
     y="16.966072"
     ry="50" />
  <path
     d="m 191.28938,66.418674 c -17.95066,-0.31396 -33.44225,17.53989 -29.64715,35.377136 2.5545,27.25585 20.12897,49.37365 33.84333,71.88009 1.54211,8.38131 -2.87813,16.53995 -3.17411,24.8604 -8.94144,48.84947 -22.5825,97.43616 -43.56897,142.26095 -25.96822,11.95512 -55.377468,23.76087 -70.563408,49.52717 -9.63989,17.87735 3.93341,42.00473 23.857698,43.88983 18.48449,2.52823 32.20439,-13.31189 42.30898,-26.58368 10.54994,-14.27588 17.49287,-31.275 26.27112,-46.61722 53.12309,-21.39447 109.01231,-36.34666 166.06329,-42.0241 23.06796,16.50952 47.50793,35.98707 77.08869,37.16405 17.19413,-0.25587 31.10765,-16.94657 29.22393,-33.89866 -1.10783,-15.43488 -14.81942,-26.25867 -29.02477,-29.15478 -22.91029,-6.90144 -47.4526,-3.12155 -70.75707,-2.9542 -44.84691,-35.83494 -86.24725,-77.06516 -118.85829,-124.23976 2.42035,-28.68039 7.2804,-60.40489 -7.65382,-86.496206 -5.67051,-8.22917 -15.28273,-13.87203 -25.41084,-12.98411 m 0.85473,26.04706 c 5.04953,0.97367 5.38561,8.494716 6.79909,12.516636 1.3305,8.19737 1.18528,16.56208 1.08847,24.84104 -6.01352,-11.24008 -13.82501,-22.98221 -12.43366,-36.305176 1.58498,-0.0622 2.98878,-0.86579 4.5461,-1.04973 M 219.96976,204.323 c 26.7289,33.23479 56.41892,63.84178 88.81973,91.58584 -42.72392,6.51557 -85.16847,17.43063 -125.81642,32.15601 15.58979,-40.74477 27.45916,-82.83941 35.28032,-125.8026 0.56981,0.68737 1.13963,1.37337 1.70945,2.06075 m 166.72719,111.72311 c 10.36322,0.99995 22.32249,0.3997 30.62082,7.54179 0.77866,6.44642 -7.10752,7.3869 -11.30647,5.05368 -8.76165,-2.92516 -17.42925,-6.6027 -24.86731,-12.20683 1.85329,-0.1148 3.69967,-0.35268 5.55988,-0.38864 m -258.97689,67.79731 c -4.92782,9.1655 -12.10172,17.80683 -19.58266,24.2975 -2.4895,4.03022 -9.321768,-3.42168 -6.17808,-6.56951 6.49065,-10.15991 17.82339,-15.54553 27.85468,-21.61437 -0.69982,1.29592 -1.39688,2.59184 -2.09809,3.88777"
     inkscape:connector-curvature="0"
     id="path70"
     style="fill:#ffffff" />
</svg>
