<?xml version="1.0" encoding="UTF-8" standalone="no"?>
<svg
   xmlns:dc="http://purl.org/dc/elements/1.1/"
   xmlns:cc="http://creativecommons.org/ns#"
   xmlns:rdf="http://www.w3.org/1999/02/22-rdf-syntax-ns#"
   xmlns:svg="http://www.w3.org/2000/svg"
   xmlns="http://www.w3.org/2000/svg"
   xmlns:sodipodi="http://sodipodi.sourceforge.net/DTD/sodipodi-0.dtd"
   xmlns:inkscape="http://www.inkscape.org/namespaces/inkscape"
   viewBox="0 0 128 128"
   id="svg2"
   version="1.1"
   inkscape:version="0.48.5 r10040"
   width="100%"
   height="100%"
   sodipodi:docname="gnome-window-manager.svg">
  <metadata
     id="metadata61">
    <rdf:RDF>
      <cc:Work
         rdf:about="">
        <dc:format>image/svg+xml</dc:format>
        <dc:type
           rdf:resource="http://purl.org/dc/dcmitype/StillImage" />
        <dc:title></dc:title>
      </cc:Work>
    </rdf:RDF>
  </metadata>
  <sodipodi:namedview
     pagecolor="#ffffff"
     bordercolor="#666666"
     borderopacity="1"
     objecttolerance="10"
     gridtolerance="10"
     guidetolerance="10"
     inkscape:pageopacity="0"
     inkscape:pageshadow="2"
     inkscape:window-width="1225"
     inkscape:window-height="693"
     id="namedview59"
     showgrid="false"
     inkscape:zoom="2.4583333"
     inkscape:cx="59.624609"
     inkscape:cy="51.300932"
     inkscape:window-x="15"
     inkscape:window-y="39"
     inkscape:window-maximized="0"
     inkscape:current-layer="svg2" />
  <defs
     id="defs4">
    <linearGradient
       id="linearGradient3764"
       x1="1"
       x2="47"
       gradientUnits="userSpaceOnUse"
       gradientTransform="matrix(0,-1,1,0,-1.5e-6,47.999998)">
      <stop
         stop-color="#40608c"
         stop-opacity="1"
         id="stop7" />
      <stop
         offset="1"
         stop-color="#466999"
         stop-opacity="1"
         id="stop9" />
    </linearGradient>
    <clipPath
       id="clipPath-269174952">
      <g
         transform="translate(0,-1004.3622)"
         id="g12">
        <path
           d="m -24,13 c 0,1.105 -0.672,2 -1.5,2 -0.828,0 -1.5,-0.895 -1.5,-2 0,-1.105 0.672,-2 1.5,-2 0.828,0 1.5,0.895 1.5,2 z"
           transform="matrix(15.333333,0,0,11.5,414.99999,878.8622)"
           id="path14"
           inkscape:connector-curvature="0"
           style="fill:#1890d0" />
      </g>
    </clipPath>
    <clipPath
       id="clipPath-276413810">
      <g
         transform="translate(0,-1004.3622)"
         id="g17">
        <path
           d="m -24,13 c 0,1.105 -0.672,2 -1.5,2 -0.828,0 -1.5,-0.895 -1.5,-2 0,-1.105 0.672,-2 1.5,-2 0.828,0 1.5,0.895 1.5,2 z"
           transform="matrix(15.333333,0,0,11.5,414.99999,878.8622)"
           id="path19"
           inkscape:connector-curvature="0"
           style="fill:#1890d0" />
      </g>
    </clipPath>
  </defs>
  <g
     id="g29"
     transform="matrix(2.5121592,0,0,2.5121592,4.0810611,3.7081797)">
    <path
       d="M 24,1 C 36.703,1 47,11.297 47,24 47,36.703 36.703,47 24,47 11.297,47 1,36.703 1,24 1,11.297 11.297,1 24,1 z"
       id="path31"
       inkscape:connector-curvature="0"
       style="fill:url(#linearGradient3764);fill-opacity:1" />
  </g>
  <g
     id="g33"
     transform="translate(0,80)" />
  <g
     id="g35"
     transform="matrix(2.5121592,0,0,2.5121592,4.0810611,3.7081797)">
    <g
       clip-path="url(#clipPath-269174952)"
       id="g37">
      <g
         transform="translate(1,1)"
         id="g39">
        <g
           id="g41"
           style="opacity:0.1">
          <!-- color: #466999 -->
          <g
             id="g43">
            <path
               d="m 12.813,13 c -0.441,0.051 -0.809,0.48 -0.809,0.945 l 0,20.11 c 0,0.496 0.43,0.945 0.902,0.945 l 22.2,0 c 0.469,0 0.898,-0.449 0.898,-0.945 l 0,-20.11 C 36.004,13.449 35.574,13 35.106,13 l -22.2,0 c -0.035,0 -0.063,0 -0.094,0 m 19.19,1.219 c 0.332,0 0.75,0.438 0.75,0.781 0,0.348 -0.418,0.785 -0.75,0.785 -0.332,0 -0.75,-0.438 -0.75,-0.785 0,-0.344 0.418,-0.781 0.75,-0.781 m -18,2.699 20,0 0,16.488 -20,0 m 0,-16.488"
               id="path45"
               inkscape:connector-curvature="0"
               style="fill:#000000;fill-opacity:1;fill-rule:nonzero;stroke:none" />
          </g>
        </g>
      </g>
    </g>
  </g>
  <g
     id="g47"
     transform="matrix(2.5121592,0,0,2.5121592,4.0810611,3.7081797)">
    <g
       clip-path="url(#clipPath-276413810)"
       id="g49">
      <!-- color: #466999 -->
      <g
         id="g51">
        <path
           d="m 12.813,13 c -0.441,0.051 -0.809,0.48 -0.809,0.945 l 0,20.11 c 0,0.496 0.43,0.945 0.902,0.945 l 22.2,0 c 0.469,0 0.898,-0.449 0.898,-0.945 l 0,-20.11 C 36.004,13.449 35.574,13 35.106,13 l -22.2,0 c -0.035,0 -0.063,0 -0.094,0 m 19.19,1.219 c 0.332,0 0.75,0.438 0.75,0.781 0,0.348 -0.418,0.785 -0.75,0.785 -0.332,0 -0.75,-0.438 -0.75,-0.785 0,-0.344 0.418,-0.781 0.75,-0.781 m -18,2.699 20,0 0,16.488 -20,0 m 0,-16.488"
           id="path53"
           inkscape:connector-curvature="0"
           style="fill:#dedede;fill-opacity:1;fill-rule:nonzero;stroke:none" />
      </g>
    </g>
  </g>
  <g
     id="g55"
     transform="matrix(2.5121592,0,0,2.5121592,4.0810611,3.7081797)">
    <path
       d="m 40.03,7.531 c 3.712,4.084 5.969,9.514 5.969,15.469 0,12.703 -10.297,23 -23,23 C 17.045,46 11.615,43.744 7.53,40.031 11.708,44.322 17.54,47 23.999,47 c 12.703,0 23,-10.298 23,-23 0,-6.462 -2.677,-12.291 -6.969,-16.469 z"
       id="path57"
       inkscape:connector-curvature="0"
       style="opacity:0.1" />
  </g>
</svg>
