<?xml version="1.0" encoding="UTF-8" standalone="no"?>
<!-- Created with Inkscape (http://www.inkscape.org/) -->

<svg
   xmlns:dc="http://purl.org/dc/elements/1.1/"
   xmlns:cc="http://creativecommons.org/ns#"
   xmlns:rdf="http://www.w3.org/1999/02/22-rdf-syntax-ns#"
   xmlns:svg="http://www.w3.org/2000/svg"
   xmlns="http://www.w3.org/2000/svg"
   xmlns:sodipodi="http://sodipodi.sourceforge.net/DTD/sodipodi-0.dtd"
   xmlns:inkscape="http://www.inkscape.org/namespaces/inkscape"
   id="svg2"
   version="1.1"
   inkscape:version="0.48.5 r10040"
   width="512"
   height="512"
   sodipodi:docname="hedgewars.svg">
  <metadata
     id="metadata8">
    <rdf:RDF>
      <cc:Work
         rdf:about="">
        <dc:format>image/svg+xml</dc:format>
        <dc:type
           rdf:resource="http://purl.org/dc/dcmitype/StillImage" />
        <dc:title />
      </cc:Work>
    </rdf:RDF>
  </metadata>
  <defs
     id="defs6" />
  <sodipodi:namedview
     pagecolor="#ffffff"
     bordercolor="#666666"
     borderopacity="1"
     objecttolerance="10"
     gridtolerance="10"
     guidetolerance="10"
     inkscape:pageopacity="0"
     inkscape:pageshadow="2"
     inkscape:window-width="1223"
     inkscape:window-height="716"
     id="namedview4"
     showgrid="false"
     inkscape:zoom="0.70710678"
     inkscape:cx="452.83395"
     inkscape:cy="378.9265"
     inkscape:window-x="15"
     inkscape:window-y="24"
     inkscape:window-maximized="0"
     inkscape:current-layer="svg2" />
  <path
     sodipodi:type="arc"
     style="fill:#ffffff;fill-opacity:1;fill-rule:nonzero;stroke:#f9f9f9;stroke-width:3;stroke-linecap:round;stroke-linejoin:miter;stroke-miterlimit:4;stroke-opacity:1;stroke-dasharray:none"
     id="path2987"
     sodipodi:cx="353.55341"
     sodipodi:cy="252.49181"
     sodipodi:rx="94.752312"
     sodipodi:ry="94.045204"
     d="m 448.30572,252.49181 a 94.752312,94.045204 0 1 1 -189.50463,0 94.752312,94.045204 0 1 1 189.50463,0 z" />
  <path
     inkscape:connector-curvature="0"
     id="path2996"
     d="m 245.80172,502.60686 c -10.93914,-3.00418 -20.42134,-9.29846 -28.03692,-18.61093 -5.92823,-7.24914 -9.61894,-15.19342 -11.96405,-25.75276 -1.1313,-5.09388 -2.20425,-9.76006 -2.38432,-10.36927 -0.23768,-0.80407 0.89214,-4.28977 -3.2303,-3.26469 -12.34134,3.06881 -32.36082,4.38679 -45.61625,-1.10861 -6.4926,-2.69168 -17.52458,-9.41057 -22.73426,-15.11078 -6.56259,-7.18052 -9.76961,-12.83787 -12.33696,-21.76304 -1.59802,-5.55539 -2.07864,-9.61371 -3.45186,-9.78167 -1.00134,-0.12248 -17.394754,-1.28985 -36.429798,-2.66863 -19.035045,-1.37877 -35.147048,-2.84207 -37.368364,-3.40073 -6.004824,-1.51021 -12.025055,-4.34376 -12.600045,-10.3278 -0.277904,-2.8922 0.03423,-5.71218 0.788441,-7.1232 0.686653,-1.28463 12.382892,-17.59914 25.991643,-36.25447 13.608749,-18.65533 24.967101,-34.5023 25.240779,-35.2155 0.320716,-0.83577 -10.731075,-10.94798 -31.974428,-26.6797 -32.628014,-24.16262 -36.554524,-25.98791 -38.68709,-30.12856 -2.5493965,-4.94997 -0.451433,-13.73387 4.05377,-16.97258 1.188711,-0.85456 18.612836,-8.01936 38.720278,-15.9218 20.107441,-7.90245 36.896805,-14.69203 37.309696,-15.08796 0.729903,-0.69994 -1.874167,-5.85565 -27.983272,-55.40318 -6.846438,-12.99255 -12.783476,-25.10997 -13.193416,-26.9276 -1.588023,-7.04108 4.037343,-15.31403 11.345338,-16.68501 1.859135,-0.34878 26.173807,0.98897 54.032608,2.97277 27.85879,1.98381 50.81596,3.43517 51.01592,3.22525 0.19998,-0.20992 0.86493,-18.434127 1.47768,-40.498246 0.61276,-22.064119 1.52623,-41.553593 2.02995,-43.309941 2.0742,-7.232296 10.03969,-11.713048 17.28393,-9.722558 3.05919,0.840571 132.2626,84.935365 145.34207,94.598995 2.32342,1.71662 6.962,3.90403 10.30797,4.86089 48.06808,13.74623 89.24113,51.6842 109.8627,99.80165 4.75338,11.09133 10.74875,34.97118 11.82915,45.31288 0.36995,3.54117 1.47532,7.53064 1.82338,8.04628 0.34805,0.51565 3.18882,2.56768 6.3873,4.67178 15.04611,9.89805 23.80866,23.25977 27.00617,41.90617 2.80588,16.36267 -5.7359,37.12109 -18.98103,48.54718 -10.87165,9.37857 -20.86461,10.56684 -35.86804,15.13431 l -8.85037,2.69431 -7.67039,8.92649 c -3.97617,4.6273 -11.28472,13.27734 -17.26614,19.00464 -5.98141,5.72729 -12.97743,11.53851 -12.97743,12.09462 0,0.55611 2.21861,5.43032 4.33447,9.60277 4.19527,8.27304 6.54183,17.22183 6.54183,24.52124 0,6.28112 -2.40003,18.60421 -5.68961,24.78448 -4.25538,7.99479 -13.86634,18.84998 -21.74444,22.42208 -10.00698,4.53738 -15.59759,6.41734 -27.92235,6.41734 -10.57316,0 -18.13782,-1.91845 -22.69424,-4.35698 -1.07528,-0.57548 -3.91488,-1.70727 -5.50238,-1.70727 -1.94579,0 -4.90057,-1.29808 -10.02798,-4.87966 l -9.25669,-6.46593 -5.37501,3.60908 c -6.09309,4.09123 -11.14736,8.97775 -20.85762,11.60888 -6.36903,1.72579 -27.68879,2.48193 -34.05002,0.73499 z m 127.1846,-200.70285 c 6.72454,-3.32345 14.2089,-9.9685 18.20167,-16.1605 l 1.53374,-2.37853 5.76952,1.85585 c 20.14331,6.47939 36.713,-5.14583 41.84193,-29.35607 7.1835,-33.90859 -16.14408,-74.60163 -44.22564,-77.14798 -7.18027,-0.65109 -14.21565,1.54029 -19.72637,6.14439 -2.19413,1.83313 -4.37992,3.33297 -4.85734,3.33297 -0.47741,0 -3.01653,-1.322 -5.6425,-2.93777 -15.53752,-9.56034 -33.38418,-9.84911 -46.99461,-0.76042 -14.47103,9.66338 -22.62187,27.17334 -22.59705,48.54387 0.034,29.27668 14.9925,55.61467 38.52323,67.8293 7.64476,3.96834 14.01075,5.32571 22.98961,4.90191 6.91832,-0.32655 9.19156,-0.90549 15.18381,-3.86702 z m -22.34538,-31.29284 c -7.61243,-3.96908 -12.18633,-12.95473 -12.18633,-23.94062 0,-5.3153 0.54998,-7.59555 3.02808,-12.55467 3.93167,-7.86798 8.79826,-11.31257 15.9826,-11.31257 7.30145,0 12.10089,3.45631 16.11126,11.60251 2.84647,5.78202 3.08131,6.96904 2.7615,13.95846 -0.41602,9.09197 -3.26361,15.53319 -8.87475,20.07466 -4.45904,3.609 -12.15963,4.60337 -16.82236,2.17223 z m 54.30591,-8.44913 c -14.26312,-7.06009 -16.56356,-31.8807 -4.00626,-43.22546 4.38008,-3.95716 7.16882,-4.84413 13.12106,-4.17323 16.35223,1.84313 22.87251,29.0041 10.30601,42.93087 -6.0519,6.707 -12.09056,8.09622 -19.42081,4.46782 z"
     style="fill:#f29ce6"
     sodipodi:nodetypes="cssssssssssssssssssssssscssssssscsssscssssssssssscssccsscssssssssssssssssssssssss" />
  <path
     inkscape:connector-curvature="0"
     id="path2992"
     d="m 243.21277,500.22043 c -11.08883,-4.68442 -16.22772,-8.1702 -22.69374,-15.39344 -7.6859,-8.586 -11.7482,-18.24807 -15.17323,-36.08916 -0.71112,-3.70418 -0.80221,-3.71621 -12.07624,-1.59499 -9.277,1.74547 -17.51126,1.38187 -28.21639,-1.24595 -22.36129,-5.48911 -39.19389,-20.97551 -44.37842,-40.82924 -0.83107,-3.18251 -2.17635,-6.27288 -2.98951,-6.86748 -0.81316,-0.5946 -6.20151,-1.37347 -11.9741,-1.73083 -28.263852,-1.74973 -62.178678,-4.5794 -65.452878,-5.46105 -6.963848,-1.87517 -10.805734,-9.0224 -8.46608,-15.74983 0.630165,-1.81197 12.43661,-18.77603 26.236545,-37.69792 13.799935,-18.92189 25.302747,-34.95577 25.561805,-35.63088 0.672401,-1.75224 -0.642462,-2.81215 -34.683078,-27.95801 -16.890251,-12.47686 -31.92299,-23.80851 -33.406088,-25.18145 -5.092768,-4.71453 -5.417809,-13.1824 -0.698821,-18.20553 1.230138,-1.30943 16.829634,-7.96644 40.105681,-17.11491 20.950872,-8.23458 38.270763,-15.43653 38.488648,-16.00432 0.217884,-0.56781 -8.745457,-18.35058 -19.918536,-39.51728 -11.173079,-21.1667 -20.838565,-39.99035 -21.478857,-41.83032 -2.456043,-7.05782 2.060916,-14.89757 9.373837,-16.26948 1.988712,-0.37309 26.410339,0.92996 54.270282,2.89564 40.61073,2.86535 50.87916,3.33078 51.78777,2.34737 0.7889,-0.85384 1.43079,-13.568684 2.11211,-41.836958 1.09654,-45.496961 1.23436,-46.350532 8.0516,-49.865405 7.0432,-3.631376 7.58624,-3.357066 54.59475,27.577666 23.86083,15.702015 55.44779,36.468705 70.19325,46.148197 14.74546,9.67949 28.3454,18.76822 30.2221,20.19717 1.87669,1.42896 6.70248,3.58183 10.72396,4.78415 18.14879,5.42604 36.1815,14.66351 52.90757,27.10255 35.43616,26.35356 60.11291,67.5586 67.00046,111.87685 0.58332,3.75339 1.27738,8.22676 1.54235,9.94081 0.39618,2.56287 1.67981,3.91292 7.22622,7.60017 8.21474,5.46114 17.20037,15.06199 20.85238,22.28006 3.65479,7.22355 6.41899,18.30844 6.43932,25.8227 0.0183,6.7708 -2.98105,19.92768 -5.79624,25.42547 -5.52087,10.78171 -15.61125,20.48944 -27.57381,26.52812 -6.15153,3.10528 -19.6483,6.68562 -25.24335,6.69638 -4.1995,0.008 -5.81733,1.30669 -12.15421,9.7559 -6.08654,8.11545 -17.3068,19.87964 -24.22768,25.4022 -2.97184,2.3714 -5.40335,4.98874 -5.40335,5.8163 0,0.82757 1.50494,4.34191 3.34429,7.80965 10.96391,20.67023 9.44475,41.90847 -4.23566,59.21549 -4.72161,5.97328 -12.84394,12.32299 -18.17932,14.21187 -2.11178,0.74763 -6.03314,2.40249 -8.71414,3.67747 -4.35708,2.07206 -6.21991,2.31813 -17.54831,2.31813 -11.73457,0 -13.08103,-0.19387 -18.1691,-2.6161 -3.02243,-1.43886 -7.19015,-2.9233 -9.26161,-3.29874 -4.88134,-0.88474 -7.58801,-2.33792 -13.37777,-7.18244 -2.60533,-2.17997 -5.16679,-3.96358 -5.69214,-3.96358 -0.52535,0 -3.17223,1.93942 -5.88195,4.30982 -3.49717,3.05925 -8.14838,5.60523 -16.02928,8.77416 -10.91607,4.38936 -11.28618,4.46386 -22.04045,4.43578 -10.48767,-0.0274 -11.30691,-0.18442 -19.90059,-3.81478 z m 30.78906,-9.86437 c 15.70594,-3.62081 32.07168,-19.95166 33.93793,-33.86561 l 0.51296,-3.8244 -19.36449,-0.57043 c -20.27292,-0.59719 -28.37297,-1.79226 -47.63679,-7.02823 -5.36198,-1.45741 -12.0466,-3.50555 -14.85471,-4.55142 -2.8081,-1.04587 -5.55003,-1.62694 -6.09317,-1.29126 -1.68461,1.04115 -1.13127,14.48321 0.85951,20.8796 6.81986,21.91226 30.2941,35.40302 52.63876,30.25175 z m 93.69997,-1.53107 c 12.31887,-4.07439 24.62304,-16.14922 27.88308,-27.36333 3.19812,-11.00116 0.33178,-25.42412 -6.74267,-33.92804 l -2.43308,-2.92471 -3.74796,2.22659 c -15.13163,8.98946 -30.23737,15.26926 -47.61873,19.7962 -6.43438,1.67581 -11.973,3.4852 -12.30803,4.02086 -0.33503,0.53565 -0.88728,3.34033 -1.22722,6.23262 -0.33993,2.89228 -1.72153,8.1904 -3.07025,11.77359 l -2.4522,6.51489 3.67941,3.78064 c 4.1678,4.28246 15.16254,10.07111 21.71518,11.43286 6.33077,1.31565 20.09038,0.49905 26.32247,-1.56217 z m -45.52864,-52.95037 c 15.15994,-3.01383 26.70895,-6.99931 41.14156,-14.19769 16.55704,-8.25795 28.69406,-17.01841 41.90407,-30.2462 25.81346,-25.84821 40.755,-55.28254 45.93693,-90.49417 2.30349,-15.65241 1.42327,-41.90778 -1.90039,-56.68531 -13.35311,-59.37018 -56.23997,-104.82243 -114.88462,-121.75679 -12.48023,-3.60382 -27.04417,-5.46848 -42.7116,-5.46848 -48.9937,0 -92.01105,20.06812 -123.29676,57.51947 -33.21549,39.76141 -45.35921,92.78543 -32.70995,142.82377 2.93644,11.61606 8.45191,26.80992 9.73218,26.80992 0.43702,0 3.66841,-1.34483 7.18086,-2.9885 7.30427,-3.41808 21.99862,-6.72892 29.94821,-6.74775 7.44358,-0.0177 23.37523,4.19806 31.89486,8.43976 8.44886,4.20646 18.1386,12.80193 23.52529,20.86857 4.97747,7.45381 8.87963,19.96612 8.87963,28.47259 0,8.72951 -3.60222,20.54728 -8.60243,28.22189 -2.23924,3.43693 -4.07136,6.6976 -4.07136,7.24596 0,0.90573 10.37048,4.39707 21.40285,7.20549 16.8626,4.29258 47.68104,4.74468 66.63067,0.97747 z m 40.14303,-101.76471 c -1.6216,-0.74275 -3.4861,-2.53066 -4.14336,-3.97317 -3.04231,-6.67717 -0.61181,-8.25351 13.49287,-8.75107 19.98197,-0.70487 31.58813,-5.13602 43.65939,-16.66884 4.3203,-4.12757 8.31433,-7.22085 8.87563,-6.87395 0.5613,0.34691 1.02055,2.09074 1.02055,3.87519 0,7.19207 -11.53944,18.98312 -24.86011,25.40219 -13.43434,6.47385 -31.80316,9.84858 -38.04497,6.98965 z m -10.70034,-64.18379 c -3.47463,-1.917 -7.44177,-6.08639 -9.58763,-10.07637 -3.04704,-5.66562 -3.02137,-19.71477 0.0465,-25.46866 2.60342,-4.88273 6.81884,-8.5735 11.59115,-10.1485 6.72668,-2.22001 14.89979,2.10231 19.18992,10.1485 2.90221,5.44314 3.09558,19.79073 0.33668,24.9812 -2.3163,4.3578 -6.22586,8.56833 -9.58564,10.32356 -3.11915,1.62952 -9.25031,1.75238 -11.99101,0.24027 z m 56.4145,-7.33733 c -3.69728,-0.72456 -9.7384,-6.82871 -12.02988,-12.15538 -1.8506,-4.30185 -2.13386,-6.37444 -1.7835,-13.04971 0.47081,-8.97019 3.30505,-15.21034 8.63086,-19.00265 3.28629,-2.34004 9.20327,-3.47018 13.07752,-2.49781 4.32041,1.08435 10.02083,7.11378 12.17894,12.88185 6.67394,17.83768 -4.61192,36.85384 -20.07394,33.8237 z M 196.01778,433.34656 c 20.13107,-4.74531 35.79531,-21.21448 36.92534,-38.82281 0.81655,-12.72368 -3.72261,-23.31184 -14.0339,-32.73577 -20.28686,-18.54106 -54.79364,-18.00796 -73.87029,1.14123 -24.30086,24.39326 -13.03894,59.98449 22.16871,70.06014 7.51646,2.15103 20.51638,2.31222 28.81014,0.35721 z m 264.91605,-76.95291 c 8.77429,-4.3323 17.43326,-13.28685 21.90142,-22.64906 5.32585,-11.15931 5.02821,-24.11207 -0.8308,-36.1555 -2.81949,-5.79557 -13.19449,-17.32212 -14.73474,-16.37019 -0.49704,0.3072 -1.18531,3.74089 -1.52949,7.63046 -1.90904,21.57424 -9.10989,50.1649 -16.14415,64.09968 -1.60977,3.18895 -2.92686,6.30671 -2.92686,6.92836 0,1.88697 6.70239,0.25009 14.26462,-3.48375 z"
     style="fill:#54a1f9" />
  <path
     inkscape:connector-curvature="0"
     id="path2990"
     d="m 243.21277,500.22043 c -11.08883,-4.68442 -16.22772,-8.1702 -22.69374,-15.39344 -7.6859,-8.586 -11.7482,-18.24807 -15.17323,-36.08916 -0.71112,-3.70418 -0.80221,-3.71621 -12.07624,-1.59499 -9.277,1.74547 -17.51126,1.38187 -28.21639,-1.24595 -22.36129,-5.48911 -39.19389,-20.97551 -44.37842,-40.82924 -0.83107,-3.18251 -2.17635,-6.27288 -2.98951,-6.86748 -0.81316,-0.5946 -6.20151,-1.37347 -11.9741,-1.73083 -28.263852,-1.74973 -62.178678,-4.5794 -65.452878,-5.46105 -6.963848,-1.87517 -10.805734,-9.0224 -8.46608,-15.74983 0.630165,-1.81197 12.43661,-18.77603 26.236545,-37.69792 13.799935,-18.92189 25.302747,-34.95577 25.561805,-35.63088 0.672401,-1.75224 -0.642462,-2.81215 -34.683078,-27.95801 -16.890251,-12.47686 -31.92299,-23.80851 -33.406088,-25.18145 -5.092768,-4.71453 -5.417809,-13.1824 -0.698821,-18.20553 1.230138,-1.30943 16.829634,-7.96644 40.105681,-17.11491 20.950872,-8.23458 38.270763,-15.43653 38.488648,-16.00432 0.217884,-0.56781 -8.745457,-18.35058 -19.918536,-39.51728 -11.173079,-21.1667 -20.838565,-39.99035 -21.478857,-41.83032 -2.456043,-7.05782 2.060916,-14.89757 9.373837,-16.26948 1.988712,-0.37309 26.410339,0.92996 54.270282,2.89564 40.61073,2.86535 50.87916,3.33078 51.78777,2.34737 0.7889,-0.85384 1.43079,-13.568684 2.11211,-41.836958 1.09654,-45.496961 1.23436,-46.350532 8.0516,-49.865405 7.0432,-3.631376 7.58624,-3.357066 54.59475,27.577666 23.86083,15.702015 55.44779,36.468705 70.19325,46.148197 14.74546,9.67949 28.3454,18.76822 30.2221,20.19717 1.87669,1.42896 6.70248,3.58183 10.72396,4.78415 18.14879,5.42604 36.1815,14.66351 52.90757,27.10255 35.43616,26.35356 60.11291,67.5586 67.00046,111.87685 0.58332,3.75339 1.27738,8.22676 1.54235,9.94081 0.39618,2.56287 1.67981,3.91292 7.22622,7.60017 8.21474,5.46114 17.20037,15.06199 20.85238,22.28006 3.65479,7.22355 6.41899,18.30844 6.43932,25.8227 0.0183,6.7708 -2.98105,19.92768 -5.79624,25.42547 -5.52087,10.78171 -15.61125,20.48944 -27.57381,26.52812 -6.15153,3.10528 -19.6483,6.68562 -25.24335,6.69638 -4.1995,0.008 -5.81733,1.30669 -12.15421,9.7559 -6.08654,8.11545 -17.3068,19.87964 -24.22768,25.4022 -2.97184,2.3714 -5.40335,4.98874 -5.40335,5.8163 0,0.82757 1.50494,4.34191 3.34429,7.80965 10.96391,20.67023 9.44475,41.90847 -4.23566,59.21549 -4.72161,5.97328 -12.84394,12.32299 -18.17932,14.21187 -2.11178,0.74763 -6.03314,2.40249 -8.71414,3.67747 -4.35708,2.07206 -6.21991,2.31813 -17.54831,2.31813 -11.73457,0 -13.08103,-0.19387 -18.1691,-2.6161 -3.02243,-1.43886 -7.19015,-2.9233 -9.26161,-3.29874 -4.88134,-0.88474 -7.58801,-2.33792 -13.37777,-7.18244 -2.60533,-2.17997 -5.16679,-3.96358 -5.69214,-3.96358 -0.52535,0 -3.17223,1.93942 -5.88195,4.30982 -3.49717,3.05925 -8.14838,5.60523 -16.02928,8.77416 -10.91607,4.38936 -11.28618,4.46386 -22.04045,4.43578 -10.48767,-0.0274 -11.30691,-0.18442 -19.90059,-3.81478 z m 30.78906,-9.86437 c 15.70594,-3.62081 32.07168,-19.95166 33.93793,-33.86561 l 0.51296,-3.8244 -19.36449,-0.57043 c -20.27292,-0.59719 -28.37297,-1.79226 -47.63679,-7.02823 -5.36198,-1.45741 -12.0466,-3.50555 -14.85471,-4.55142 -2.8081,-1.04587 -5.55003,-1.62694 -6.09317,-1.29126 -1.68461,1.04115 -1.13127,14.48321 0.85951,20.8796 6.81986,21.91226 30.2941,35.40302 52.63876,30.25175 z m 93.69997,-1.53107 c 12.31887,-4.07439 24.62304,-16.14922 27.88308,-27.36333 3.19812,-11.00116 0.33178,-25.42412 -6.74267,-33.92804 l -2.43308,-2.92471 -3.74796,2.22659 c -15.13163,8.98946 -30.23737,15.26926 -47.61873,19.7962 -6.43438,1.67581 -11.973,3.4852 -12.30803,4.02086 -0.33503,0.53565 -0.88728,3.34033 -1.22722,6.23262 -0.33993,2.89228 -1.72153,8.1904 -3.07025,11.77359 l -2.4522,6.51489 3.67941,3.78064 c 4.1678,4.28246 15.16254,10.07111 21.71518,11.43286 6.33077,1.31565 20.09038,0.49905 26.32247,-1.56217 z m -45.52864,-52.95037 c 15.15994,-3.01383 26.70895,-6.99931 41.14156,-14.19769 16.55704,-8.25795 28.69406,-17.01841 41.90407,-30.2462 25.81346,-25.84821 40.755,-55.28254 45.93693,-90.49417 2.30349,-15.65241 1.42327,-41.90778 -1.90039,-56.68531 -13.35311,-59.37018 -56.23997,-104.82243 -114.88462,-121.75679 -12.48023,-3.60382 -27.04417,-5.46848 -42.7116,-5.46848 -48.9937,0 -92.01105,20.06812 -123.29676,57.51947 -33.21549,39.76141 -45.35921,92.78543 -32.70995,142.82377 2.93644,11.61606 8.45191,26.80992 9.73218,26.80992 0.43702,0 3.66841,-1.34483 7.18086,-2.9885 7.30427,-3.41808 21.99862,-6.72892 29.94821,-6.74775 7.44358,-0.0177 23.37523,4.19806 31.89486,8.43976 8.44886,4.20646 18.1386,12.80193 23.52529,20.86857 4.97747,7.45381 8.87963,19.96612 8.87963,28.47259 0,8.72951 -3.60222,20.54728 -8.60243,28.22189 -2.23924,3.43693 -4.07136,6.6976 -4.07136,7.24596 0,0.90573 10.37048,4.39707 21.40285,7.20549 16.8626,4.29258 47.68104,4.74468 66.63067,0.97747 z m 40.14303,-101.76471 c -1.6216,-0.74275 -3.4861,-2.53066 -4.14336,-3.97317 -3.04231,-6.67717 -0.61181,-8.25351 13.49287,-8.75107 19.98197,-0.70487 31.58813,-5.13602 43.65939,-16.66884 4.3203,-4.12757 8.31433,-7.22085 8.87563,-6.87395 0.5613,0.34691 1.02055,2.09074 1.02055,3.87519 0,7.19207 -11.53944,18.98312 -24.86011,25.40219 -13.43434,6.47385 -31.80316,9.84858 -38.04497,6.98965 z m -10.70034,-64.18379 c -3.47463,-1.917 -7.44177,-6.08639 -9.58763,-10.07637 -3.04704,-5.66562 -3.02137,-19.71477 0.0465,-25.46866 2.60342,-4.88273 6.81884,-8.5735 11.59115,-10.1485 6.72668,-2.22001 14.89979,2.10231 19.18992,10.1485 2.90221,5.44314 3.09558,19.79073 0.33668,24.9812 -2.3163,4.3578 -6.22586,8.56833 -9.58564,10.32356 -3.11915,1.62952 -9.25031,1.75238 -11.99101,0.24027 z m 56.4145,-7.33733 c -3.69728,-0.72456 -9.7384,-6.82871 -12.02988,-12.15538 -1.8506,-4.30185 -2.13386,-6.37444 -1.7835,-13.04971 0.47081,-8.97019 3.30505,-15.21034 8.63086,-19.00265 3.28629,-2.34004 9.20327,-3.47018 13.07752,-2.49781 4.32041,1.08435 10.02083,7.11378 12.17894,12.88185 6.67394,17.83768 -4.61192,36.85384 -20.07394,33.8237 z M 196.01778,433.34656 c 20.13107,-4.74531 35.79531,-21.21448 36.92534,-38.82281 0.81655,-12.72368 -3.72261,-23.31184 -14.0339,-32.73577 -20.28686,-18.54106 -54.79364,-18.00796 -73.87029,1.14123 -24.30086,24.39326 -13.03894,59.98449 22.16871,70.06014 7.51646,2.15103 20.51638,2.31222 28.81014,0.35721 z m -77.82315,-51.2041 c 0.38257,-0.77238 1.4328,-3.95665 2.33384,-7.07615 0.93568,-3.23942 3.94114,-9.05379 7.00811,-13.55793 l 5.36984,-7.88612 -3.50507,-8.86491 c -1.92778,-4.87571 -4.50436,-12.15522 -5.72571,-16.17671 -1.22136,-4.02149 -2.72275,-7.3118 -3.33641,-7.3118 -0.61368,0 -9.59627,11.62576 -19.96131,25.83502 -24.708795,33.87284 -23.566746,32.19663 -22.586874,33.15121 0.740279,0.72116 36.382444,3.89582 38.802744,3.45617 0.49789,-0.0905 1.21826,-0.79639 1.60084,-1.56878 z m 342.7392,-25.74881 c 8.77429,-4.3323 17.43326,-13.28685 21.90142,-22.64906 5.32585,-11.15931 5.02821,-24.11207 -0.8308,-36.1555 -2.81949,-5.79557 -13.19449,-17.32212 -14.73474,-16.37019 -0.49704,0.3072 -1.18531,3.74089 -1.52949,7.63046 -1.90904,21.57424 -9.10989,50.1649 -16.14415,64.09968 -1.60977,3.18895 -2.92686,6.30671 -2.92686,6.92836 0,1.88697 6.70239,0.25009 14.26462,-3.48375 z m -355.96927,-85.2896 12.67379,-17.46809 2.08711,-9.88205 c 1.49382,-7.07293 1.77096,-10.00142 0.97491,-10.30198 -1.71389,-0.6471 -66.430931,25.31152 -66.430931,26.64608 0,1.05477 36.145829,28.53806 37.473531,28.4928 0.301297,-0.0103 6.251015,-7.87932 13.22159,-17.48676 z m 24.31041,-88.34769 20.90292,-8.36249 3.97725,-5.26783 c 2.18749,-2.89731 7.97991,-9.45468 12.87203,-14.57194 4.89214,-5.11726 8.67392,-9.52498 8.40398,-9.79493 -0.9814,-0.98139 -93.866225,-7.16078 -94.725186,-6.30182 -1.094283,1.09429 25.638776,52.66151 27.300346,52.66151 0.20116,0 9.77206,-3.76312 21.26866,-8.3625 z m 121.2806,-74.92313 c 5.54349,-1.33357 13.65958,-2.93314 18.03577,-3.55461 4.3762,-0.62147 8.30587,-1.44959 8.73261,-1.84026 0.42672,-0.39067 -8.56679,-6.78175 -19.98558,-14.202395 -11.41881,-7.420645 -28.57904,-18.701613 -38.13386,-25.068818 -9.55482,-6.367204 -18.10963,-11.436348 -19.01067,-11.264763 -1.3531,0.257668 -1.74562,2.007257 -2.25494,10.051214 -0.95629,15.102826 -0.94416,44.172492 0.0187,44.767552 0.4754,0.29381 9.29339,1.16783 19.59552,1.94227 10.30214,0.77444 18.98464,1.66152 19.29442,1.97132 0.30979,0.30978 1.25305,0.35172 2.09614,0.0932 0.84308,-0.25853 6.06844,-1.56115 11.61191,-2.89472 z"
     style="fill:#3471cc" />
  <path
     inkscape:connector-curvature="0"
     id="path2988"
     d="m 243.21277,500.22043 c -11.08883,-4.68442 -16.22772,-8.1702 -22.69374,-15.39344 -7.6859,-8.586 -11.7482,-18.24807 -15.17323,-36.08916 -0.71112,-3.70418 -0.80221,-3.71621 -12.07624,-1.59499 -9.277,1.74547 -17.51126,1.38187 -28.21639,-1.24595 -22.36129,-5.48911 -39.19389,-20.97551 -44.37842,-40.82924 -0.83107,-3.18251 -2.17635,-6.27288 -2.98951,-6.86748 -0.81316,-0.5946 -6.20151,-1.37347 -11.9741,-1.73083 -28.263852,-1.74973 -62.178678,-4.5794 -65.452878,-5.46105 -6.963848,-1.87517 -10.805734,-9.0224 -8.46608,-15.74983 0.630165,-1.81197 12.43661,-18.77603 26.236545,-37.69792 13.799935,-18.92189 25.302747,-34.95577 25.561805,-35.63088 0.672401,-1.75224 -0.642462,-2.81215 -34.683078,-27.95801 -16.890251,-12.47686 -31.92299,-23.80851 -33.406088,-25.18145 -5.092768,-4.71453 -5.417809,-13.1824 -0.698821,-18.20553 1.230138,-1.30943 16.829634,-7.96644 40.105681,-17.11491 20.950872,-8.23458 38.270763,-15.43653 38.488648,-16.00432 0.217884,-0.56781 -8.745457,-18.35058 -19.918536,-39.51728 -11.173079,-21.1667 -20.838565,-39.99035 -21.478857,-41.83032 -2.456043,-7.05782 2.060916,-14.89757 9.373837,-16.26948 1.988712,-0.37309 26.410339,0.92996 54.270282,2.89564 40.61073,2.86535 50.87916,3.33078 51.78777,2.34737 0.7889,-0.85384 1.43079,-13.568684 2.11211,-41.836958 1.09654,-45.496961 1.23436,-46.350532 8.0516,-49.865405 7.0432,-3.631376 7.58624,-3.357066 54.59475,27.577666 23.86083,15.702015 55.44779,36.468705 70.19325,46.148197 14.74546,9.67949 28.3454,18.76822 30.2221,20.19717 1.87669,1.42896 6.70248,3.58183 10.72396,4.78415 18.14879,5.42604 36.1815,14.66351 52.90757,27.10255 35.43616,26.35356 60.11291,67.5586 67.00046,111.87685 0.58332,3.75339 1.27738,8.22676 1.54235,9.94081 0.39618,2.56287 1.67981,3.91292 7.22622,7.60017 8.21474,5.46114 17.20037,15.06199 20.85238,22.28006 3.65479,7.22355 6.41899,18.30844 6.43932,25.8227 0.0183,6.7708 -2.98105,19.92768 -5.79624,25.42547 -5.52087,10.78171 -15.61125,20.48944 -27.57381,26.52812 -6.15153,3.10528 -19.6483,6.68562 -25.24335,6.69638 -4.1995,0.008 -5.81733,1.30669 -12.15421,9.7559 -6.08654,8.11545 -17.3068,19.87964 -24.22768,25.4022 -2.97184,2.3714 -5.40335,4.98874 -5.40335,5.8163 0,0.82757 1.50494,4.34191 3.34429,7.80965 10.96391,20.67023 9.44475,41.90847 -4.23566,59.21549 -4.72161,5.97328 -12.84394,12.32299 -18.17932,14.21187 -2.11178,0.74763 -6.03314,2.40249 -8.71414,3.67747 -4.35708,2.07206 -6.21991,2.31813 -17.54831,2.31813 -11.73457,0 -13.08103,-0.19387 -18.1691,-2.6161 -3.02243,-1.43886 -7.19015,-2.9233 -9.26161,-3.29874 -4.88134,-0.88474 -7.58801,-2.33792 -13.37777,-7.18244 -2.60533,-2.17997 -5.16679,-3.96358 -5.69214,-3.96358 -0.52535,0 -3.17223,1.93942 -5.88195,4.30982 -3.49717,3.05925 -8.14838,5.60523 -16.02928,8.77416 -10.91607,4.38936 -11.28618,4.46386 -22.04045,4.43578 -10.48767,-0.0274 -11.30691,-0.18442 -19.90059,-3.81478 z m 30.78906,-9.86437 c 15.70594,-3.62081 32.07168,-19.95166 33.93793,-33.86561 l 0.51296,-3.8244 -19.36449,-0.57043 c -20.27292,-0.59719 -28.37297,-1.79226 -47.63679,-7.02823 -5.36198,-1.45741 -12.0466,-3.50555 -14.85471,-4.55142 -2.8081,-1.04587 -5.55003,-1.62694 -6.09317,-1.29126 -1.68461,1.04115 -1.13127,14.48321 0.85951,20.8796 6.81986,21.91226 30.2941,35.40302 52.63876,30.25175 z m 93.69997,-1.53107 c 12.31887,-4.07439 24.62304,-16.14922 27.88308,-27.36333 3.19812,-11.00116 0.33178,-25.42412 -6.74267,-33.92804 l -2.43308,-2.92471 -3.74796,2.22659 c -15.13163,8.98946 -30.23737,15.26926 -47.61873,19.7962 -6.43438,1.67581 -11.973,3.4852 -12.30803,4.02086 -0.33503,0.53565 -0.88728,3.34033 -1.22722,6.23262 -0.33993,2.89228 -1.72153,8.1904 -3.07025,11.77359 l -2.4522,6.51489 3.67941,3.78064 c 4.1678,4.28246 15.16254,10.07111 21.71518,11.43286 6.33077,1.31565 20.09038,0.49905 26.32247,-1.56217 z m -45.52864,-52.95037 c 15.15994,-3.01383 26.70895,-6.99931 41.14156,-14.19769 16.55704,-8.25795 28.69406,-17.01841 41.90407,-30.2462 25.81346,-25.84821 40.755,-55.28254 45.93693,-90.49417 2.30349,-15.65241 1.42327,-41.90778 -1.90039,-56.68531 -13.35311,-59.37018 -56.23997,-104.82243 -114.88462,-121.75679 -12.48023,-3.60382 -27.04417,-5.46848 -42.7116,-5.46848 -48.9937,0 -92.01105,20.06812 -123.29676,57.51947 -33.21549,39.76141 -45.35921,92.78543 -32.70995,142.82377 2.93644,11.61606 8.45191,26.80992 9.73218,26.80992 0.43702,0 3.66841,-1.34483 7.18086,-2.9885 7.30427,-3.41808 21.99862,-6.72892 29.94821,-6.74775 7.44358,-0.0177 23.37523,4.19806 31.89486,8.43976 8.44886,4.20646 18.1386,12.80193 23.52529,20.86857 4.97747,7.45381 8.87963,19.96612 8.87963,28.47259 0,8.72951 -3.60222,20.54728 -8.60243,28.22189 -2.23924,3.43693 -4.07136,6.6976 -4.07136,7.24596 0,0.90573 10.37048,4.39707 21.40285,7.20549 16.8626,4.29258 47.68104,4.74468 66.63067,0.97747 z m 40.14303,-101.76471 c -1.6216,-0.74275 -3.4861,-2.53066 -4.14336,-3.97317 -3.04231,-6.67717 -0.61181,-8.25351 13.49287,-8.75107 19.98197,-0.70487 31.58813,-5.13602 43.65939,-16.66884 4.3203,-4.12757 8.31433,-7.22085 8.87563,-6.87395 0.5613,0.34691 1.02055,2.09074 1.02055,3.87519 0,7.19207 -11.53944,18.98312 -24.86011,25.40219 -13.43434,6.47385 -31.80316,9.84858 -38.04497,6.98965 z m -10.70034,-64.18379 c -3.47463,-1.917 -7.44177,-6.08639 -9.58763,-10.07637 -3.04704,-5.66562 -3.02137,-19.71477 0.0465,-25.46866 2.60342,-4.88273 6.81884,-8.5735 11.59115,-10.1485 6.72668,-2.22001 14.89979,2.10231 19.18992,10.1485 2.90221,5.44314 3.09558,19.79073 0.33668,24.9812 -2.3163,4.3578 -6.22586,8.56833 -9.58564,10.32356 -3.11915,1.62952 -9.25031,1.75238 -11.99101,0.24027 z m 56.4145,-7.33733 c -3.69728,-0.72456 -9.7384,-6.82871 -12.02988,-12.15538 -1.8506,-4.30185 -2.13386,-6.37444 -1.7835,-13.04971 0.47081,-8.97019 3.30505,-15.21034 8.63086,-19.00265 3.28629,-2.34004 9.20327,-3.47018 13.07752,-2.49781 4.32041,1.08435 10.02083,7.11378 12.17894,12.88185 6.67394,17.83768 -4.61192,36.85384 -20.07394,33.8237 z M 196.01778,433.34656 c 20.13107,-4.74531 35.79531,-21.21448 36.92534,-38.82281 0.81655,-12.72368 -3.72261,-23.31184 -14.0339,-32.73577 -20.28686,-18.54106 -54.79364,-18.00796 -73.87029,1.14123 -24.30086,24.39326 -13.03894,59.98449 22.16871,70.06014 7.51646,2.15103 20.51638,2.31222 28.81014,0.35721 z m -75.92243,-54.31452 c 1.5377,-6.61866 4.99506,-13.58459 9.90997,-19.96678 l 3.92709,-5.09947 -3.45539,-8.54922 c -6.69052,-16.55347 -11.76643,-37.61927 -13.07377,-54.25806 -0.4069,-5.17862 -1.17852,-9.4944 -1.71472,-9.59061 -1.12838,-0.20247 -70.575814,94.65945 -70.638771,96.48923 -0.02306,0.67025 0.725809,1.24387 1.664156,1.27473 0.938348,0.0308 14.428613,1.07441 29.978368,2.31902 15.549755,1.24461 31.409157,2.31613 35.243117,2.38117 l 6.97083,0.11825 1.18912,-5.11826 z m 340.83848,-22.63839 c 8.77429,-4.3323 17.43326,-13.28685 21.90142,-22.64906 5.32585,-11.15931 5.02821,-24.11207 -0.8308,-36.1555 -2.81949,-5.79557 -13.19449,-17.32212 -14.73474,-16.37019 -0.49704,0.3072 -1.18531,3.74089 -1.52949,7.63046 -1.90904,21.57424 -9.10989,50.1649 -16.14415,64.09968 -1.60977,3.18895 -2.92686,6.30671 -2.92686,6.92836 0,1.88697 6.70239,0.25009 14.26462,-3.48375 z M 104.96456,272.38539 c 6.43439,-8.88418 12.07365,-16.80772 12.5317,-17.60786 0.45805,-0.80013 2.10674,-7.00554 3.66375,-13.78979 3.48536,-15.18655 5.77859,-22.25296 11.24149,-34.63983 2.33614,-5.29708 4.24752,-9.84867 4.24752,-10.11466 0,-0.26597 -1.20645,-0.21825 -2.68099,0.10606 -5.15842,1.13453 -107.829866,42.12693 -108.185537,43.19395 -0.458508,1.37552 64.877227,50.06305 66.368992,49.4575 0.612812,-0.24876 6.378698,-7.72117 12.813075,-16.60537 z m 24.07288,-88.74126 21.1663,-8.44962 6.6276,-8.24902 c 11.32899,-14.10061 26.99808,-27.5467 44.72304,-38.3781 4.54713,-2.77867 7.92612,-5.373 7.50888,-5.76518 -1.12309,-1.05561 -142.764422,-10.88383 -143.678399,-9.96957 -0.42951,0.42965 7.993996,17.45207 18.718903,37.82761 20.222306,38.41902 21.900596,41.43351 23.067736,41.43351 0.38478,0 10.22446,-3.80233 21.86594,-8.44963 z m 120.88232,-74.9128 c 13.30667,-3.236 29.83841,-5.35404 41.78929,-5.35404 5.33452,0 9.69913,-0.38886 9.69913,-0.86414 0,-0.47528 -5.59353,-4.51698 -12.43006,-8.98155 -6.83653,-4.464569 -32.9548,-21.624017 -58.0406,-38.132104 -25.08581,-16.508087 -45.98917,-30.014704 -46.45191,-30.014704 -1.14989,0 -2.01693,20.373096 -2.28196,53.619844 l -0.22149,27.784824 9.74906,0.74913 c 5.36199,0.41203 16.98774,1.33719 25.83502,2.05593 22.37518,1.81773 21.20053,1.84906 32.35352,-0.86319 z"
     style="fill:#aa2c8b" />
  <path
     inkscape:connector-curvature="0"
     id="path2986"
     d="m 253.49118,504.95301 c -1.17698,-0.1667 -5.76905,-0.10769 -5.22297,-0.16578 0.54607,-0.058 -1.2411,-0.91899 -3.97151,-1.91313 -12.5286,-4.56167 -19.67276,-9.44546 -26.97715,-18.44183 -6.86168,-8.45103 -10.96864,-18.80761 -13.65735,-34.43961 -0.34315,-1.99509 -1.20952,-3.85215 -1.92526,-4.12679 -0.71574,-0.27466 -3.94285,0.14486 -7.17135,0.93225 -3.22851,0.7874 -9.89117,1.47639 -14.80592,1.53107 -29.9684,0.33349 -55.68523,-17.54665 -62.43972,-43.41246 -0.84518,-3.23654 -2.20541,-6.37359 -3.02273,-6.97123 -0.81734,-0.59765 -8.98578,-1.62144 -18.152098,-2.27511 -64.781289,-4.61965 -63.225469,-4.40497 -67.337113,-9.29139 -2.25121,-2.67541 -2.59243,-3.85868 -2.213531,-7.67603 0.402838,-4.05854 3.112863,-8.16292 26.908232,-40.75309 C 70.017766,315.33084 79.872051,300.98064 79.721032,299.7697 79.562847,298.50125 67.791236,289.14849 45.721247,272.75624 27.154441,258.96593 10.734734,246.31641 9.2330072,244.6462 6.0757549,241.13473 5.5591176,235.42365 7.9759316,230.75004 9.643782,227.52477 7.8372236,228.32488 57.139336,208.97578 79.900872,200.04281 89.502271,195.82315 89.728337,194.6535 89.904609,193.74149 80.410219,174.70513 68.629696,152.35048 50.069549,117.13083 47.210564,111.11836 47.210564,107.30572 c 0,-2.90792 0.67864,-5.2627 2.001279,-6.94417 4.080979,-5.18812 4.61923,-5.19795 62.208947,-1.13585 45.47732,3.20776 53.24998,3.54427 54.01316,2.33851 0.4903,-0.77464 0.90156,-4.75939 0.91388,-8.85501 0.0123,-4.095619 0.47682,-22.789632 1.03219,-41.54225 0.73895,-24.950114 1.38058,-34.983041 2.39208,-37.40389 1.80447,-4.318699 5.93327,-6.937745 10.93703,-6.937745 3.62859,0 10.90173,4.527404 75.50233,46.998858 39.31781,25.849372 73.05071,48.216227 74.96201,49.704147 1.9172,1.4925 8.14867,4.17202 13.90027,5.97712 43.54887,13.66745 81.65376,46.41264 102.61805,88.18414 7.50028,14.94437 15.33171,40.86314 17.03,56.36219 0.97705,8.91678 1.07149,9.06992 8.59495,13.93683 13.72848,8.8809 22.13302,20.44454 25.60365,35.22751 1.1193,4.76759 2.03196,10.6236 2.02813,13.01339 -0.01,6.03479 -3.44613,19.77048 -6.40922,25.61784 -3.95315,7.8012 -11.7499,16.34208 -19.88563,21.78357 -8.09424,5.41376 -15.46697,8.11879 -27.31357,10.02128 -4.09561,0.65774 -8.34017,1.36676 -9.43234,1.57564 -1.09215,0.20888 -4.88991,4.25105 -8.43944,8.98259 -3.54955,4.73156 -12.18056,14.08014 -19.1801,20.77463 l -12.72638,12.17182 4.18917,8.30283 c 7.41777,14.7019 9.28157,25.97634 6.34993,38.41179 -2.04091,8.65721 -5.8268,15.97597 -11.63515,22.4928 -6.26052,7.02414 -11.25748,10.43702 -21.68987,14.81397 -4.59543,1.92801 -7.90851,3.56567 -7.36243,3.63921 0.54607,0.0736 -4.04997,0.39798 -5.41518,0.83521 -1.3652,0.43721 -3.02428,0.8884 -8.48511,0.8884 -5.46083,0 -5.99821,-0.26424 -7.36343,-0.70145 -1.3652,-0.43723 -6.33515,-1.13199 -5.78907,-1.2012 1.89252,-0.23984 -13.60983,-5.84242 -16.11359,-5.84242 -1.50752,0 -5.42473,-2.18845 -9.77465,-5.46082 -3.99245,-3.00346 -7.67832,-5.46084 -8.19084,-5.46084 -0.51253,0 -3.94573,2.27596 -7.62933,5.0577 -3.68362,2.78173 -8.26127,5.63725 -10.17255,6.34558 -11.43228,4.23687 -14.29136,5.4183 -13.40384,5.53878 0.54607,0.0742 -3.76776,0.35904 -5.19066,0.53317 -3.34017,0.40875 -13.50812,0.0122 -16.39406,-0.39657 z m 16.5082,-10.10436 c 16.79781,-2.75088 32.3199,-16.39728 37.46893,-32.94118 3.00281,-9.648 2.70994,-9.92021 -9.87559,-9.17833 -19.63097,1.15719 -44.09012,-2.68094 -68.14779,-10.69376 -13.97009,-4.65298 -14.4381,-4.47116 -14.4381,5.60861 0,22.13412 15.7998,42.06476 36.99724,46.67006 7.65754,1.66366 10.57217,1.75025 17.99531,0.5346 z m 92.07441,-0.45938 c 23.51146,-4.98359 40.08173,-26.17569 36.73176,-46.97713 -1.14465,-7.1076 -2.97542,-11.67482 -7.05902,-17.61013 -3.42554,-4.97885 -5.61316,-5.56375 -9.78305,-2.61568 -4.36462,3.08575 -21.99373,11.60484 -29.93958,14.46803 -4.09563,1.47579 -12.52463,3.99545 -18.7311,5.59922 -6.20649,1.60378 -11.62085,3.1238 -12.03189,3.37784 -0.41105,0.25406 -1.05805,2.8176 -1.4378,5.6968 -0.37973,2.87918 -1.77902,8.48356 -3.10949,12.45415 -1.33048,3.97059 -2.41907,7.8189 -2.41907,8.55181 0,2.2567 9.69448,10.54277 15.38022,13.14579 6.08911,2.78768 15.93564,5.14931 21.85267,5.24123 2.18434,0.034 6.93019,-0.56545 10.54635,-1.33193 z m -55.72226,-53.199 c 21.01275,-2.17725 39.45367,-7.53956 58.08332,-16.8897 16.37868,-8.22038 28.65423,-17.20409 42.69373,-31.24489 26.39801,-26.40047 41.38307,-55.97295 47.29327,-93.33156 1.80476,-11.40803 1.5367,-37.62692 -0.50247,-49.14744 -9.31784,-52.64177 -38.87902,-94.25569 -85.19285,-119.92786 -14.26834,-7.90906 -36.67882,-15.34424 -54.92843,-18.22372 -12.42935,-1.96115 -38.55087,-1.48172 -52.14749,0.95711 -52.17834,9.35919 -97.10321,43.39555 -120.14934,91.02852 -12.9593,26.78497 -18.63141,56.90161 -16.03444,85.13639 0.66551,7.2356 1.90308,16.50658 2.75013,20.6022 2.06357,9.9775 9.19337,31.3643 11.33969,34.01488 l 1.72223,2.12686 6.37571,-3.13876 c 14.64124,-7.20785 32.39719,-8.93846 48.86039,-4.76222 12.08717,3.06616 19.8038,7.17642 28.37986,15.11654 8.37462,7.75361 12.43987,13.97407 15.62995,23.91616 5.05778,15.76287 1.69198,35.03861 -8.1633,46.75094 -3.82167,4.54179 -2.96885,6.23288 4.50166,8.92659 20.22596,7.29305 47.0452,10.4154 69.48838,8.08996 z m 54.60826,-110.19053 c -1.09757,-1.09756 -1.98576,-3.30959 -1.98576,-4.94546 0,-3.59267 0.48827,-3.73031 15.3896,-4.33789 18.73357,-0.76386 30.51286,-5.34789 42.49406,-16.53701 4.08991,-3.81952 7.70684,-6.94459 8.03766,-6.94459 1.55384,0 0.31943,5.02033 -2.21839,9.02206 -8.77185,13.83175 -33.03474,25.72865 -52.47184,25.72865 -5.93575,0 -7.62169,-0.36211 -9.24533,-1.98576 z m -10.55843,-64.4562 c -6.82011,-4.15869 -10.29752,-11.53947 -10.2823,-21.82406 0.0344,-23.24988 23.11205,-31.48513 32.391,-11.55872 2.61585,5.61751 3.18389,15.62191 1.22002,21.48749 -2.68145,8.00881 -9.49394,13.79279 -16.24537,13.79279 -2.18433,0 -5.37184,-0.85386 -7.08335,-1.8975 z m 56.30136,-7.77716 c -8.09581,-4.12819 -13.01441,-16.07026 -11.03404,-26.79007 4.99691,-27.04832 34.7567,-22.49719 34.78697,5.31993 0.0103,9.46406 -4.32011,17.85843 -10.96017,21.24594 -4.74427,2.42035 -8.36154,2.48374 -12.79276,0.2242 z M 191.67421,436.73681 c 25.97612,-5.45376 43.74242,-27.73386 40.10847,-50.29864 -2.60902,-16.20058 -14.79357,-29.82769 -32.48446,-36.33041 -9.00173,-3.30881 -24.74746,-4.16303 -33.93525,-1.84104 -15.31434,3.87032 -29.4113,14.56023 -35.06768,26.59228 -16.22493,34.51312 19.61655,70.64593 61.37892,61.87781 z m -76.45892,-51.11689 c 0.33344,-0.53953 1.25128,-3.45731 2.03963,-6.48398 1.79658,-6.89757 4.55588,-12.43265 9.49759,-19.05193 2.12287,-2.8435 3.85974,-5.79792 3.85974,-6.56537 0,-0.76745 -1.36921,-4.69607 -3.04268,-8.73027 -7.17736,-17.30227 -13.23263,-43.91292 -14.09518,-61.94318 -0.165,-3.44902 -0.65652,-4.96439 -1.61025,-4.96439 -1.89238,0 -75.053548,100.703 -73.957478,101.79908 0.478864,0.47887 6.677595,1.3414 13.774957,1.91675 13.183128,1.06869 45.465307,3.72751 52.619391,4.33384 8.26497,0.70047 10.32567,0.64183 10.91428,-0.31055 z m 347.76952,-27.47435 c 25.52212,-12.61072 35.00159,-43.04704 20.54137,-65.95346 -3.62696,-5.74549 -12.0323,-13.81485 -14.39004,-13.81485 -2.25772,0 -2.60216,1.35404 -3.38099,13.29113 -1.13202,17.3503 -7.35616,41.3732 -15.37618,59.34646 -2.62316,5.87861 -4.49169,10.97148 -4.15233,11.31747 1.33822,1.36436 9.80414,-0.7507 16.75817,-4.18675 z m -361.01311,-87.46311 13.46387,-18.61645 3.2104,-14.89317 c 3.1485,-14.60615 6.74657,-25.36143 12.78803,-38.22577 1.68493,-3.58781 2.65374,-6.83516 2.18165,-7.3127 -0.84082,-0.85057 -112.567752,42.38415 -114.914403,44.46816 -0.662854,0.58868 -0.886251,1.55013 -0.496438,2.13659 1.536152,2.31105 67.05792,51.05978 68.627975,51.05978 1.033201,0 6.834123,-7.13344 15.138916,-18.61644 z m 23.79576,-89.15783 21.55622,-8.48653 4.22146,-5.66197 c 10.68923,-14.33676 32.5525,-33.39284 50.30606,-43.84685 3.95909,-2.3313 7.19836,-4.62607 7.19836,-5.09951 0,-0.47345 -1.00529,-1.0896 -2.23397,-1.36924 -2.08617,-0.47478 -141.148162,-10.45105 -145.680249,-10.45105 -1.139915,0 -2.290019,0.56665 -2.555784,1.25923 -0.265765,0.69257 2.796163,7.50619 6.804285,15.14137 4.008123,7.63519 13.243862,25.27542 20.523864,39.20053 7.28,13.9251 13.669494,25.87686 14.198874,26.55946 0.52938,0.68261 1.66949,1.2411 2.53357,1.2411 0.8641,0 11.27138,-3.81894 23.12731,-8.48654 z m 122.17646,-75.88338 c 15.15086,-3.65682 32.69127,-5.98191 45.12742,-5.98191 7.67637,0 9.39392,-0.26641 9.13327,-1.41666 -0.17657,-0.77916 -24.67135,-17.440176 -54.43283,-37.024478 -29.7615,-19.584303 -56.56323,-37.265392 -59.55939,-39.29131 -8.37786,-5.664869 -8.59012,-5.505339 -9.30033,6.989942 -0.33366,5.870386 -0.89841,24.835473 -1.25502,42.144635 l -0.64837,31.471201 2.36839,0.4854 c 3.01533,0.61798 10.63868,1.31324 34.03556,3.10409 10.31787,0.78974 18.99315,1.66927 19.27837,1.95448 0.88784,0.88785 2.64982,0.60653 15.25293,-2.43539 z"
     style="fill:#9f096f"
     sodipodi:nodetypes="scssscsssssssssssssssssscssssssssssscssscsscsssscsscsssssscsssssssssssssssssssscssssssssssssscsssssssssssssssssssssssssssssssscssssssssscsssssssscsscssssscsssssssssssssssssscsscs" />
  <path
     inkscape:connector-curvature="0"
     id="path2984"
     d="m 352.82817,267.03804 c -7.40791,-4.99218 -10.83348,-13.49669 -10.02674,-24.89284 0.38073,-5.37829 1.20567,-8.16833 3.52379,-11.91778 3.36879,-5.4489 9.54145,-9.55458 14.36476,-9.55458 4.82331,0 10.99598,4.10568 14.36477,9.55458 3.50702,5.67248 4.79497,16.07956 2.87019,23.19231 -2.53207,9.35696 -9.67347,15.97717 -17.23496,15.97717 -2.81868,0 -5.59969,-0.83441 -7.86181,-2.35886 z m 60.2818,-7.53367 c -5.17785,-2.31697 -7.26925,-4.47385 -10.02315,-10.33693 -2.70029,-5.74899 -3.29309,-15.61954 -1.35682,-22.59199 1.25333,-4.51325 6.1892,-10.54807 10.41418,-12.73289 12.5965,-6.51391 25.97102,7.09988 24.53616,24.97511 -1.23276,15.35762 -12.79736,25.50738 -23.57037,20.6867 z"
     style="fill:#0b0b0b" />
</svg>
