<?xml version="1.0" encoding="UTF-8" standalone="no"?>
<!-- Created with Inkscape (http://www.inkscape.org/) -->

<svg
   xmlns:dc="http://purl.org/dc/elements/1.1/"
   xmlns:cc="http://creativecommons.org/ns#"
   xmlns:rdf="http://www.w3.org/1999/02/22-rdf-syntax-ns#"
   xmlns:svg="http://www.w3.org/2000/svg"
   xmlns="http://www.w3.org/2000/svg"
   xmlns:sodipodi="http://sodipodi.sourceforge.net/DTD/sodipodi-0.dtd"
   xmlns:inkscape="http://www.inkscape.org/namespaces/inkscape"
   id="svg2"
   version="1.1"
   inkscape:version="0.48.5 r10040"
   width="512"
   height="512"
   sodipodi:docname="geany.svg">
  <metadata
     id="metadata8">
    <rdf:RDF>
      <cc:Work
         rdf:about="">
        <dc:format>image/svg+xml</dc:format>
        <dc:type
           rdf:resource="http://purl.org/dc/dcmitype/StillImage" />
        <dc:title />
      </cc:Work>
    </rdf:RDF>
  </metadata>
  <defs
     id="defs6" />
  <sodipodi:namedview
     pagecolor="#ffffff"
     bordercolor="#666666"
     borderopacity="1"
     objecttolerance="10"
     gridtolerance="10"
     guidetolerance="10"
     inkscape:pageopacity="0"
     inkscape:pageshadow="2"
     inkscape:window-width="640"
     inkscape:window-height="480"
     id="namedview4"
     showgrid="false"
     inkscape:zoom="0.4609375"
     inkscape:cx="256"
     inkscape:cy="256"
     inkscape:window-x="15"
     inkscape:window-y="39"
     inkscape:window-maximized="0"
     inkscape:current-layer="svg2" />
  <path
     style="fill:#d11616;fill-opacity:1"
     d="m 148.179,405.01696 c 4.24044,-17.2784 17.74342,-29.79448 29.53659,-39.84422 7.71338,-4.98378 8.08468,-9.18127 1.8933,-12.02465 C 148.179,338.59276 122.3762,329.54295 96.404576,315.29999 52.430543,290.73898 27.215637,255.06736 20.58883,208.04337 c -1.353559,-11.29397 -1.364715,-23.00944 0.585663,-31.24898 2.70766,-5.86024 8.295881,-9.36479 14.93386,-9.36479 4.284882,0 6.722766,0.99658 18.668036,7.63696 27.159503,15.09618 53.689101,27.09407 67.563371,30.55511 5.63786,1.40746 6.25514,1.37959 9.47726,-0.41648 15.26648,-8.49911 27.16733,-21.44001 32.46161,-23.30114 l 121.67303,0 c 18.61375,21.90241 44.99553,36.24448 67.31443,44.90273 24.37376,6.10733 60.00988,0.093 86.12968,-14.54546 13.71438,-8.09397 21.89388,-16.41107 26.30462,-30.35727 l 33.96353,0 c 0,2.5656 -7.02992,21.45879 -12.09122,28.28176 -16.20876,21.85 -41.50046,39.50472 -79.8381,55.73041 -55.0343,27.54418 -92.0606,65.22403 -139.55257,87.22685 -9.20934,4.70376 -1.58036,7.40045 2.46522,12.02242 12.82397,11.68367 22.09058,24.04561 26.27487,39.85128 z m -28.81781,-122.60007 -8.39833,-41.97848 c -0.71024,-0.47226 -4.27633,-1.83138 -7.92458,-3.01722 -7.225334,-2.34678 -26.280081,-10.36026 -34.592155,-14.54808 -6.107709,-3.07728 -9.477264,-3.41251 -9.477264,-0.9445 0,3.28402 7.631195,18.54941 13.306249,26.61809 6.193982,8.80626 13.095246,15.90683 22.533092,23.18253 8.668308,6.68259 20.147828,13.47899 22.767348,13.47899 1.9528,0 2.19784,-0.38115 1.7849,-2.79226 z M 170.44695,163.3115 c 0.38859,-0.69908 4.51933,-8.65102 9.1796,-16.18999 19.35076,-31.30327 28.30799,-39.567 42.91072,-39.58857 13.93116,-0.0186 23.68731,8.81445 42.09394,38.11975 5.73102,9.12363 10.41936,17.34906 10.41936,17.65881 z"
     id="path4100"
     inkscape:connector-curvature="0"
     sodipodi:nodetypes="ccccccssccccccccscccccccscscssccccsccc" />
</svg>
