<?xml version="1.0" encoding="UTF-8" standalone="no"?>
<!-- Created with Inkscape (http://www.inkscape.org/) -->

<svg
   xmlns:dc="http://purl.org/dc/elements/1.1/"
   xmlns:cc="http://creativecommons.org/ns#"
   xmlns:rdf="http://www.w3.org/1999/02/22-rdf-syntax-ns#"
   xmlns:svg="http://www.w3.org/2000/svg"
   xmlns="http://www.w3.org/2000/svg"
   xmlns:sodipodi="http://sodipodi.sourceforge.net/DTD/sodipodi-0.dtd"
   xmlns:inkscape="http://www.inkscape.org/namespaces/inkscape"
   id="svg3057"
   version="1.1"
   inkscape:version="0.48.5 r10040"
   width="513"
   height="513"
   sodipodi:docname="logview.svg">
  <metadata
     id="metadata3063">
    <rdf:RDF>
      <cc:Work
         rdf:about="">
        <dc:format>image/svg+xml</dc:format>
        <dc:type
           rdf:resource="http://purl.org/dc/dcmitype/StillImage" />
        <dc:title />
      </cc:Work>
    </rdf:RDF>
  </metadata>
  <defs
     id="defs3061">
    <filter
       inkscape:label="Drop Shadow"
       inkscape:menu="Blurs"
       inkscape:menu-tooltip="Blur the contents of objects, preserving the outline and adding progressive transparency at edges"
       color-interpolation-filters="sRGB"
       id="filter4111"
       style="color-interpolation-filters:sRGB;">
      <feGaussianBlur
         result="result6"
         stdDeviation="3"
         in="SourceGraphic"
         id="feGaussianBlur4113" />
      <feColorMatrix
         values="1 0 0 0 0 0 1 0 0 0 0 0 1 0 0 0 0 0 1 0 "
         result="result7"
         in="SourceGraphic"
         id="feColorMatrix4115" />
      <feComposite
         operator="in"
         in="result6"
         in2="result7"
         id="feComposite4117"
         result="fbSourceGraphic" />
      <feColorMatrix
         result="fbSourceGraphicAlpha"
         in="fbSourceGraphic"
         values="0 0 0 -1 0 0 0 0 -1 0 0 0 0 -1 0 0 0 0 1 0"
         id="feColorMatrix2999" />
      <feGaussianBlur
         id="feGaussianBlur3001"
         stdDeviation="5"
         result="result91"
         in="fbSourceGraphic" />
      <feComposite
         id="feComposite3003"
         in2="result91"
         in="fbSourceGraphic"
         operator="over"
         result="fbSourceGraphic" />
      <feColorMatrix
         result="fbSourceGraphicAlpha"
         in="fbSourceGraphic"
         values="0 0 0 -1 0 0 0 0 -1 0 0 0 0 -1 0 0 0 0 1 0"
         id="feColorMatrix3005" />
      <feFlood
         id="feFlood3007"
         flood-opacity="0.5"
         flood-color="rgb(255,255,255)"
         result="flood"
         in="fbSourceGraphic" />
      <feComposite
         id="feComposite3009"
         in2="fbSourceGraphic"
         in="flood"
         operator="in"
         result="composite1" />
      <feGaussianBlur
         id="feGaussianBlur3011"
         in="composite"
         stdDeviation="2"
         result="blur" />
      <feOffset
         id="feOffset3013"
         dx="4"
         dy="4"
         result="offset" />
      <feComposite
         id="feComposite3015"
         in2="offset"
         in="fbSourceGraphic"
         operator="over"
         result="fbSourceGraphic" />
      <feColorMatrix
         result="fbSourceGraphicAlpha"
         in="fbSourceGraphic"
         values="0 0 0 -1 0 0 0 0 -1 0 0 0 0 -1 0 0 0 0 1 0"
         id="feColorMatrix3047" />
      <feGaussianBlur
         id="feGaussianBlur3049"
         result="result6"
         stdDeviation="3"
         in="fbSourceGraphic" />
      <feColorMatrix
         id="feColorMatrix3051"
         values="1 0 0 0 0 0 1 0 0 0 0 0 1 0 0 0 0 0 1 0 "
         result="result7"
         in="fbSourceGraphic" />
      <feComposite
         id="feComposite3053"
         in2="result7"
         operator="in"
         in="result6"
         result="fbSourceGraphic" />
      <feColorMatrix
         result="fbSourceGraphicAlpha"
         in="fbSourceGraphic"
         values="0 0 0 -1 0 0 0 0 -1 0 0 0 0 -1 0 0 0 0 1 0"
         id="feColorMatrix3055" />
      <feFlood
         id="feFlood3057"
         flood-opacity="0.5"
         flood-color="rgb(255,255,255)"
         result="flood"
         in="fbSourceGraphic" />
      <feComposite
         id="feComposite3059"
         in2="fbSourceGraphic"
         in="flood"
         operator="in"
         result="composite1" />
      <feGaussianBlur
         id="feGaussianBlur3061"
         in="composite"
         stdDeviation="2"
         result="blur" />
      <feOffset
         id="feOffset3063"
         dx="4"
         dy="4"
         result="offset" />
      <feComposite
         id="feComposite3065"
         in2="offset"
         in="fbSourceGraphic"
         operator="over"
         result="composite2" />
    </filter>
    <filter
       inkscape:label="Evanescent"
       inkscape:menu="Blurs"
       inkscape:menu-tooltip="Blur the contents of objects, preserving the outline and adding progressive transparency at edges"
       color-interpolation-filters="sRGB"
       id="filter4119">
      <feGaussianBlur
         result="result6"
         stdDeviation="3"
         in="SourceGraphic"
         id="feGaussianBlur4121" />
      <feColorMatrix
         values="1 0 0 0 0 0 1 0 0 0 0 0 1 0 0 0 0 0 1 0 "
         result="result7"
         in="SourceGraphic"
         id="feColorMatrix4123" />
      <feComposite
         operator="in"
         in="result6"
         in2="result7"
         id="feComposite4125" />
    </filter>
    <filter
       inkscape:label="Evanescent"
       inkscape:menu="Blurs"
       inkscape:menu-tooltip="Blur the contents of objects, preserving the outline and adding progressive transparency at edges"
       color-interpolation-filters="sRGB"
       id="filter4119-0">
      <feGaussianBlur
         result="result6"
         stdDeviation="3"
         in="SourceGraphic"
         id="feGaussianBlur4121-2" />
      <feColorMatrix
         values="1 0 0 0 0 0 1 0 0 0 0 0 1 0 0 0 0 0 1 0 "
         result="result7"
         in="SourceGraphic"
         id="feColorMatrix4123-2" />
      <feComposite
         operator="in"
         in="result6"
         in2="result7"
         id="feComposite4125-8" />
    </filter>
    <filter
       inkscape:label="Drop Shadow"
       inkscape:menu="Blurs"
       inkscape:menu-tooltip="Blur the contents of objects, preserving the outline and adding progressive transparency at edges"
       color-interpolation-filters="sRGB"
       id="filter4111-7">
      <feGaussianBlur
         result="result6"
         stdDeviation="3"
         in="SourceGraphic"
         id="feGaussianBlur4113-3" />
      <feColorMatrix
         values="1 0 0 0 0 0 1 0 0 0 0 0 1 0 0 0 0 0 1 0 "
         result="result7"
         in="SourceGraphic"
         id="feColorMatrix4115-8" />
      <feComposite
         operator="in"
         in="result6"
         in2="result7"
         id="feComposite4117-1"
         result="fbSourceGraphic" />
      <feColorMatrix
         result="fbSourceGraphicAlpha"
         in="fbSourceGraphic"
         values="0 0 0 -1 0 0 0 0 -1 0 0 0 0 -1 0 0 0 0 1 0"
         id="feColorMatrix2999-6" />
      <feGaussianBlur
         id="feGaussianBlur3001-7"
         stdDeviation="5"
         result="result91"
         in="fbSourceGraphic" />
      <feComposite
         id="feComposite3003-0"
         in2="result91"
         in="fbSourceGraphic"
         operator="over"
         result="fbSourceGraphic" />
      <feColorMatrix
         result="fbSourceGraphicAlpha"
         in="fbSourceGraphic"
         values="0 0 0 -1 0 0 0 0 -1 0 0 0 0 -1 0 0 0 0 1 0"
         id="feColorMatrix3005-1" />
      <feFlood
         id="feFlood3007-7"
         flood-opacity="0.5"
         flood-color="rgb(255,255,255)"
         result="flood"
         in="fbSourceGraphic" />
      <feComposite
         id="feComposite3009-5"
         in2="fbSourceGraphic"
         in="flood"
         operator="in"
         result="composite1" />
      <feGaussianBlur
         id="feGaussianBlur3011-0"
         stdDeviation="2"
         result="blur" />
      <feOffset
         id="feOffset3013-6"
         dx="4"
         dy="4"
         result="offset" />
      <feComposite
         id="feComposite3015-8"
         in2="offset"
         in="fbSourceGraphic"
         operator="over"
         result="fbSourceGraphic" />
      <feColorMatrix
         result="fbSourceGraphicAlpha"
         in="fbSourceGraphic"
         values="0 0 0 -1 0 0 0 0 -1 0 0 0 0 -1 0 0 0 0 1 0"
         id="feColorMatrix3047-1" />
      <feGaussianBlur
         id="feGaussianBlur3049-0"
         result="result6"
         stdDeviation="3"
         in="fbSourceGraphic" />
      <feColorMatrix
         id="feColorMatrix3051-6"
         values="1 0 0 0 0 0 1 0 0 0 0 0 1 0 0 0 0 0 1 0 "
         result="result7"
         in="fbSourceGraphic" />
      <feComposite
         id="feComposite3053-6"
         in2="result7"
         operator="in"
         in="result6"
         result="fbSourceGraphic" />
      <feColorMatrix
         result="fbSourceGraphicAlpha"
         in="fbSourceGraphic"
         values="0 0 0 -1 0 0 0 0 -1 0 0 0 0 -1 0 0 0 0 1 0"
         id="feColorMatrix3055-5" />
      <feFlood
         id="feFlood3057-6"
         flood-opacity="0.5"
         flood-color="rgb(255,255,255)"
         result="flood"
         in="fbSourceGraphic" />
      <feComposite
         id="feComposite3059-6"
         in2="fbSourceGraphic"
         in="flood"
         operator="in"
         result="composite1" />
      <feGaussianBlur
         id="feGaussianBlur3061-9"
         stdDeviation="2"
         result="blur" />
      <feOffset
         id="feOffset3063-5"
         dx="4"
         dy="4"
         result="offset" />
      <feComposite
         id="feComposite3065-7"
         in2="offset"
         in="fbSourceGraphic"
         operator="over"
         result="composite2" />
    </filter>
    <filter
       inkscape:label="Drop Shadow"
       inkscape:menu="Blurs"
       inkscape:menu-tooltip="Blur the contents of objects, preserving the outline and adding progressive transparency at edges"
       color-interpolation-filters="sRGB"
       id="filter4111-4">
      <feGaussianBlur
         result="result6"
         stdDeviation="3"
         in="SourceGraphic"
         id="feGaussianBlur4113-9" />
      <feColorMatrix
         values="1 0 0 0 0 0 1 0 0 0 0 0 1 0 0 0 0 0 1 0 "
         result="result7"
         in="SourceGraphic"
         id="feColorMatrix4115-9" />
      <feComposite
         operator="in"
         in="result6"
         in2="result7"
         id="feComposite4117-6"
         result="fbSourceGraphic" />
      <feColorMatrix
         result="fbSourceGraphicAlpha"
         in="fbSourceGraphic"
         values="0 0 0 -1 0 0 0 0 -1 0 0 0 0 -1 0 0 0 0 1 0"
         id="feColorMatrix2999-1" />
      <feGaussianBlur
         id="feGaussianBlur3001-75"
         stdDeviation="5"
         result="result91"
         in="fbSourceGraphic" />
      <feComposite
         id="feComposite3003-4"
         in2="result91"
         in="fbSourceGraphic"
         operator="over"
         result="fbSourceGraphic" />
      <feColorMatrix
         result="fbSourceGraphicAlpha"
         in="fbSourceGraphic"
         values="0 0 0 -1 0 0 0 0 -1 0 0 0 0 -1 0 0 0 0 1 0"
         id="feColorMatrix3005-8" />
      <feFlood
         id="feFlood3007-6"
         flood-opacity="0.5"
         flood-color="rgb(255,255,255)"
         result="flood"
         in="fbSourceGraphic" />
      <feComposite
         id="feComposite3009-3"
         in2="fbSourceGraphic"
         in="flood"
         operator="in"
         result="composite1" />
      <feGaussianBlur
         id="feGaussianBlur3011-7"
         stdDeviation="2"
         result="blur" />
      <feOffset
         id="feOffset3013-7"
         dx="4"
         dy="4"
         result="offset" />
      <feComposite
         id="feComposite3015-4"
         in2="offset"
         in="fbSourceGraphic"
         operator="over"
         result="fbSourceGraphic" />
      <feColorMatrix
         result="fbSourceGraphicAlpha"
         in="fbSourceGraphic"
         values="0 0 0 -1 0 0 0 0 -1 0 0 0 0 -1 0 0 0 0 1 0"
         id="feColorMatrix3047-4" />
      <feGaussianBlur
         id="feGaussianBlur3049-4"
         result="result6"
         stdDeviation="3"
         in="fbSourceGraphic" />
      <feColorMatrix
         id="feColorMatrix3051-4"
         values="1 0 0 0 0 0 1 0 0 0 0 0 1 0 0 0 0 0 1 0 "
         result="result7"
         in="fbSourceGraphic" />
      <feComposite
         id="feComposite3053-0"
         in2="result7"
         operator="in"
         in="result6"
         result="fbSourceGraphic" />
      <feColorMatrix
         result="fbSourceGraphicAlpha"
         in="fbSourceGraphic"
         values="0 0 0 -1 0 0 0 0 -1 0 0 0 0 -1 0 0 0 0 1 0"
         id="feColorMatrix3055-3" />
      <feFlood
         id="feFlood3057-8"
         flood-opacity="0.5"
         flood-color="rgb(255,255,255)"
         result="flood"
         in="fbSourceGraphic" />
      <feComposite
         id="feComposite3059-3"
         in2="fbSourceGraphic"
         in="flood"
         operator="in"
         result="composite1" />
      <feGaussianBlur
         id="feGaussianBlur3061-1"
         stdDeviation="2"
         result="blur" />
      <feOffset
         id="feOffset3063-4"
         dx="4"
         dy="4"
         result="offset" />
      <feComposite
         id="feComposite3065-8"
         in2="offset"
         in="fbSourceGraphic"
         operator="over"
         result="composite2" />
    </filter>
    <filter
       inkscape:label="Drop Shadow"
       inkscape:menu="Blurs"
       inkscape:menu-tooltip="Blur the contents of objects, preserving the outline and adding progressive transparency at edges"
       color-interpolation-filters="sRGB"
       id="filter4111-74">
      <feGaussianBlur
         result="result6"
         stdDeviation="3"
         in="SourceGraphic"
         id="feGaussianBlur4113-1" />
      <feColorMatrix
         values="1 0 0 0 0 0 1 0 0 0 0 0 1 0 0 0 0 0 1 0 "
         result="result7"
         in="SourceGraphic"
         id="feColorMatrix4115-6" />
      <feComposite
         operator="in"
         in="result6"
         in2="result7"
         id="feComposite4117-3"
         result="fbSourceGraphic" />
      <feColorMatrix
         result="fbSourceGraphicAlpha"
         in="fbSourceGraphic"
         values="0 0 0 -1 0 0 0 0 -1 0 0 0 0 -1 0 0 0 0 1 0"
         id="feColorMatrix2999-5" />
      <feGaussianBlur
         id="feGaussianBlur3001-5"
         stdDeviation="5"
         result="result91"
         in="fbSourceGraphic" />
      <feComposite
         id="feComposite3003-5"
         in2="result91"
         in="fbSourceGraphic"
         operator="over"
         result="fbSourceGraphic" />
      <feColorMatrix
         result="fbSourceGraphicAlpha"
         in="fbSourceGraphic"
         values="0 0 0 -1 0 0 0 0 -1 0 0 0 0 -1 0 0 0 0 1 0"
         id="feColorMatrix3005-3" />
      <feFlood
         id="feFlood3007-62"
         flood-opacity="0.5"
         flood-color="rgb(255,255,255)"
         result="flood"
         in="fbSourceGraphic" />
      <feComposite
         id="feComposite3009-8"
         in2="fbSourceGraphic"
         in="flood"
         operator="in"
         result="composite1" />
      <feGaussianBlur
         id="feGaussianBlur3011-2"
         stdDeviation="2"
         result="blur" />
      <feOffset
         id="feOffset3013-2"
         dx="4"
         dy="4"
         result="offset" />
      <feComposite
         id="feComposite3015-5"
         in2="offset"
         in="fbSourceGraphic"
         operator="over"
         result="fbSourceGraphic" />
      <feColorMatrix
         result="fbSourceGraphicAlpha"
         in="fbSourceGraphic"
         values="0 0 0 -1 0 0 0 0 -1 0 0 0 0 -1 0 0 0 0 1 0"
         id="feColorMatrix3047-5" />
      <feGaussianBlur
         id="feGaussianBlur3049-9"
         result="result6"
         stdDeviation="3"
         in="fbSourceGraphic" />
      <feColorMatrix
         id="feColorMatrix3051-40"
         values="1 0 0 0 0 0 1 0 0 0 0 0 1 0 0 0 0 0 1 0 "
         result="result7"
         in="fbSourceGraphic" />
      <feComposite
         id="feComposite3053-4"
         in2="result7"
         operator="in"
         in="result6"
         result="fbSourceGraphic" />
      <feColorMatrix
         result="fbSourceGraphicAlpha"
         in="fbSourceGraphic"
         values="0 0 0 -1 0 0 0 0 -1 0 0 0 0 -1 0 0 0 0 1 0"
         id="feColorMatrix3055-0" />
      <feFlood
         id="feFlood3057-4"
         flood-opacity="0.5"
         flood-color="rgb(255,255,255)"
         result="flood"
         in="fbSourceGraphic" />
      <feComposite
         id="feComposite3059-65"
         in2="fbSourceGraphic"
         in="flood"
         operator="in"
         result="composite1" />
      <feGaussianBlur
         id="feGaussianBlur3061-4"
         stdDeviation="2"
         result="blur" />
      <feOffset
         id="feOffset3063-9"
         dx="4"
         dy="4"
         result="offset" />
      <feComposite
         id="feComposite3065-6"
         in2="offset"
         in="fbSourceGraphic"
         operator="over"
         result="composite2" />
    </filter>
    <filter
       inkscape:label="Drop Shadow"
       inkscape:menu="Blurs"
       inkscape:menu-tooltip="Blur the contents of objects, preserving the outline and adding progressive transparency at edges"
       color-interpolation-filters="sRGB"
       id="filter4111-8">
      <feGaussianBlur
         result="result6"
         stdDeviation="3"
         in="SourceGraphic"
         id="feGaussianBlur4113-2" />
      <feColorMatrix
         values="1 0 0 0 0 0 1 0 0 0 0 0 1 0 0 0 0 0 1 0 "
         result="result7"
         in="SourceGraphic"
         id="feColorMatrix4115-84" />
      <feComposite
         operator="in"
         in="result6"
         in2="result7"
         id="feComposite4117-5"
         result="fbSourceGraphic" />
      <feColorMatrix
         result="fbSourceGraphicAlpha"
         in="fbSourceGraphic"
         values="0 0 0 -1 0 0 0 0 -1 0 0 0 0 -1 0 0 0 0 1 0"
         id="feColorMatrix2999-4" />
      <feGaussianBlur
         id="feGaussianBlur3001-8"
         stdDeviation="5"
         result="result91"
         in="fbSourceGraphic" />
      <feComposite
         id="feComposite3003-09"
         in2="result91"
         in="fbSourceGraphic"
         operator="over"
         result="fbSourceGraphic" />
      <feColorMatrix
         result="fbSourceGraphicAlpha"
         in="fbSourceGraphic"
         values="0 0 0 -1 0 0 0 0 -1 0 0 0 0 -1 0 0 0 0 1 0"
         id="feColorMatrix3005-5" />
      <feFlood
         id="feFlood3007-3"
         flood-opacity="0.5"
         flood-color="rgb(255,255,255)"
         result="flood"
         in="fbSourceGraphic" />
      <feComposite
         id="feComposite3009-57"
         in2="fbSourceGraphic"
         in="flood"
         operator="in"
         result="composite1" />
      <feGaussianBlur
         id="feGaussianBlur3011-4"
         stdDeviation="2"
         result="blur" />
      <feOffset
         id="feOffset3013-0"
         dx="4"
         dy="4"
         result="offset" />
      <feComposite
         id="feComposite3015-2"
         in2="offset"
         in="fbSourceGraphic"
         operator="over"
         result="fbSourceGraphic" />
      <feColorMatrix
         result="fbSourceGraphicAlpha"
         in="fbSourceGraphic"
         values="0 0 0 -1 0 0 0 0 -1 0 0 0 0 -1 0 0 0 0 1 0"
         id="feColorMatrix3047-9" />
      <feGaussianBlur
         id="feGaussianBlur3049-5"
         result="result6"
         stdDeviation="3"
         in="fbSourceGraphic" />
      <feColorMatrix
         id="feColorMatrix3051-1"
         values="1 0 0 0 0 0 1 0 0 0 0 0 1 0 0 0 0 0 1 0 "
         result="result7"
         in="fbSourceGraphic" />
      <feComposite
         id="feComposite3053-5"
         in2="result7"
         operator="in"
         in="result6"
         result="fbSourceGraphic" />
      <feColorMatrix
         result="fbSourceGraphicAlpha"
         in="fbSourceGraphic"
         values="0 0 0 -1 0 0 0 0 -1 0 0 0 0 -1 0 0 0 0 1 0"
         id="feColorMatrix3055-7" />
      <feFlood
         id="feFlood3057-7"
         flood-opacity="0.5"
         flood-color="rgb(255,255,255)"
         result="flood"
         in="fbSourceGraphic" />
      <feComposite
         id="feComposite3059-5"
         in2="fbSourceGraphic"
         in="flood"
         operator="in"
         result="composite1" />
      <feGaussianBlur
         id="feGaussianBlur3061-44"
         stdDeviation="2"
         result="blur" />
      <feOffset
         id="feOffset3063-3"
         dx="4"
         dy="4"
         result="offset" />
      <feComposite
         id="feComposite3065-85"
         in2="offset"
         in="fbSourceGraphic"
         operator="over"
         result="composite2" />
    </filter>
  </defs>
  <sodipodi:namedview
     pagecolor="#ffffff"
     bordercolor="#666666"
     borderopacity="1"
     objecttolerance="10"
     gridtolerance="10"
     guidetolerance="10"
     inkscape:pageopacity="0"
     inkscape:pageshadow="2"
     inkscape:window-width="1215"
     inkscape:window-height="674"
     id="namedview3059"
     showgrid="false"
     inkscape:zoom="0.92007801"
     inkscape:cx="112.66484"
     inkscape:cy="265.21505"
     inkscape:window-x="137"
     inkscape:window-y="48"
     inkscape:window-maximized="0"
     inkscape:current-layer="svg3057"
     showguides="true"
     inkscape:guide-bbox="true"
     inkscape:snap-global="false">
    <sodipodi:guide
       orientation="1,0"
       position="52.169489,302.14829"
       id="guide2994" />
  </sodipodi:namedview>
  <rect
     style="fill:none;stroke:#e6e6e6;stroke-width:30.5;stroke-miterlimit:4;stroke-opacity:1;stroke-dasharray:none"
     id="rect2982"
     width="445.08081"
     height="378.60773"
     x="32.632195"
     y="63.65559" />
  <rect
     style="fill:#232323;fill-opacity:1;fill-rule:evenodd;stroke:none"
     id="rect3752"
     width="426.95078"
     height="350.76627"
     x="42.573902"
     y="76.61441" />
  <g
     transform="scale(0.86961263,1.1499373)"
     style="font-size:53.8076973px;font-style:normal;font-variant:normal;font-weight:normal;font-stretch:normal;line-height:125%;letter-spacing:0px;word-spacing:0px;fill:#00ffff;fill-opacity:1;stroke:none;font-family:Pixelate;-inkscape-font-specification:Pixelate"
     id="text3392" />
  <g
     transform="scale(0.86961263,1.1499373)"
     style="font-size:53.8076973px;font-style:normal;font-variant:normal;font-weight:normal;font-stretch:normal;line-height:125%;letter-spacing:0px;word-spacing:0px;fill:#00ffff;fill-opacity:1;stroke:none;font-family:Pixelate;-inkscape-font-specification:Pixelate"
     id="text3392-1">
    <path
       id="path3138"
       style="font-size:129.13847351px;fill:#00ffff"
       d="m 480.92205,316.6925 0,-12.98951 12.98952,0 0,12.98951 -12.98952,0 m 0,-16.14231 0,-12.98951 12.98952,0 0,12.98951 -12.98952,0 m 16.14231,-16.14231 0,-12.98951 12.98952,0 0,12.98951 -12.98952,0 m 16.14231,-16.14231 0,-12.98951 12.98952,0 0,12.98951 -12.98952,0 m -48.42693,-16.14231 0,-12.98951 12.98952,0 0,12.98951 -12.98952,0 m 16.14231,0 0,-12.98951 12.98952,0 0,12.98951 -12.98952,0 m 16.14231,0 0,-12.98951 12.98952,0 0,12.98951 -12.98952,0 m 16.14231,0 0,-12.98951 12.98952,0 0,12.98951 -12.98952,0 m -80.71156,64.56924 0,-12.98951 12.98951,0 0,12.98951 -12.98951,0 m 0,-16.14231 0,-12.98951 12.98951,0 0,12.98951 -12.98951,0 m 0,-16.14231 0,-12.98951 12.98951,0 0,12.98951 -12.98951,0 m 0,-16.14231 0,-12.98951 12.98951,0 0,12.98951 -12.98951,0 m 0,-16.14231 0,-12.98951 12.98951,0 0,12.98951 -12.98951,0 m -32.28461,48.42693 0,-12.98951 12.98951,0 0,12.98951 -12.98951,0 m 0,-32.28462 0,-12.98951 12.98951,0 0,12.98951 -12.98951,0 m -64.56924,48.42693 0,-12.98951 12.98952,0 0,12.98951 -12.98952,0 m 16.14231,0 0,-12.98951 12.98952,0 0,12.98951 -12.98952,0 m -32.28462,-16.14231 0,-12.98951 12.98952,0 0,12.98951 -12.98952,0 m 48.42693,0 0,-12.98951 12.98951,0 0,12.98951 -12.98951,0 m -32.28462,-16.14231 0,-12.98951 12.98952,0 0,12.98951 -12.98952,0 m 16.14231,0 0,-12.98951 12.98952,0 0,12.98951 -12.98952,0 m -32.28462,-16.14231 0,-12.98951 12.98952,0 0,12.98951 -12.98952,0 m 48.42693,0 0,-12.98951 12.98951,0 0,12.98951 -12.98951,0 m -32.28462,-16.14231 0,-12.98951 12.98952,0 0,12.98951 -12.98952,0 m 16.14231,0 0,-12.98951 12.98952,0 0,12.98951 -12.98952,0 m -161.42309,64.56924 0,-12.98951 12.98951,0 0,12.98951 -12.98951,0 m 0,-16.14231 0,-12.98951 12.98951,0 0,12.98951 -12.98951,0 m 0,-16.14231 0,-12.98951 12.98951,0 0,12.98951 -12.98951,0 m -16.14231,-16.14231 0,-12.98951 12.98951,0 0,12.98951 -12.98951,0 m 32.28461,0 0,-12.98951 12.98952,0 0,12.98951 -12.98952,0 m -48.42692,-16.14231 0,-12.98951 12.98951,0 0,12.98951 -12.98951,0 m 64.56923,0 0,-12.98951 12.98952,0 0,12.98951 -12.98952,0 m -161.423085,64.56924 0,-12.98951 12.989515,0 0,12.98951 -12.989515,0 m 64.569235,0 0,-12.98951 12.98952,0 0,12.98951 -12.98952,0 m -64.569235,-16.14231 0,-12.98951 12.989515,0 0,12.98951 -12.989515,0 m 64.569235,0 0,-12.98951 12.98952,0 0,12.98951 -12.98952,0 m -64.569235,-16.14231 0,-12.98951 12.989515,0 0,12.98951 -12.989515,0 m 16.14231,0 0,-12.98951 12.989514,0 0,12.98951 -12.989514,0 m 16.142309,0 0,-12.98951 12.989516,0 0,12.98951 -12.989516,0 m 16.142306,0 0,-12.98951 12.98952,0 0,12.98951 -12.98952,0 m 16.14231,0 0,-12.98951 12.98952,0 0,12.98951 -12.98952,0 m -64.569235,-16.14231 0,-12.98951 12.989515,0 0,12.98951 -12.989515,0 m 64.569235,0 0,-12.98951 12.98952,0 0,12.98951 -12.98952,0 m -48.426925,-16.14231 0,-12.98951 12.989514,0 0,12.98951 -12.989514,0 m 16.142309,0 0,-12.98951 12.989516,0 0,12.98951 -12.989516,0 m 16.142306,0 0,-12.98951 12.98952,0 0,12.98951 -12.98952,0 m 339.39349,-52.29915 0,-12.98952 12.98952,0 0,12.98952 -12.98952,0 m 64.56924,0 0,-12.98952 12.98951,0 0,12.98952 -12.98951,0 m -64.56924,-16.14231 0,-12.98952 12.98952,0 0,12.98952 -12.98952,0 m 64.56924,0 0,-12.98952 12.98951,0 0,12.98952 -12.98951,0 m -64.56924,-16.14231 0,-12.98952 12.98952,0 0,12.98952 -12.98952,0 m 16.14231,0 0,-12.98952 12.98951,0 0,12.98952 -12.98951,0 m 16.14231,0 0,-12.98952 12.98951,0 0,12.98952 -12.98951,0 m 16.14231,0 0,-12.98952 12.98951,0 0,12.98952 -12.98951,0 m 16.14231,0 0,-12.98952 12.98951,0 0,12.98952 -12.98951,0 m -64.56924,-16.14231 0,-12.98952 12.98952,0 0,12.98952 -12.98952,0 m 64.56924,0 0,-12.98952 12.98951,0 0,12.98952 -12.98951,0 m -48.42693,-16.14231 0,-12.98951 12.98951,0 0,12.98951 -12.98951,0 m 16.14231,0 0,-12.98951 12.98951,0 0,12.98951 -12.98951,0 m 16.14231,0 0,-12.98951 12.98951,0 0,12.98951 -12.98951,0 m -129.13847,64.56924 0,-12.98952 12.98951,0 0,12.98952 -12.98951,0 m 16.14231,0 0,-12.98952 12.98951,0 0,12.98952 -12.98951,0 m 16.14231,0 0,-12.98952 12.98951,0 0,12.98952 -12.98951,0 m -48.42693,-16.14231 0,-12.98952 12.98951,0 0,12.98952 -12.98951,0 m 64.56924,0 0,-12.98952 12.98951,0 0,12.98952 -12.98951,0 m -64.56924,-16.14231 0,-12.98952 12.98951,0 0,12.98952 -12.98951,0 m 64.56924,0 0,-12.98952 12.98951,0 0,12.98952 -12.98951,0 m -64.56924,-16.14231 0,-12.98952 12.98951,0 0,12.98952 -12.98951,0 m 64.56924,0 0,-12.98952 12.98951,0 0,12.98952 -12.98951,0 m -64.56924,-16.14231 0,-12.98951 12.98951,0 0,12.98951 -12.98951,0 m 64.56924,0 0,-12.98951 12.98951,0 0,12.98951 -12.98951,0 m -129.13847,64.56924 0,-12.98952 12.98951,0 0,12.98952 -12.98951,0 m 0,-16.14231 0,-12.98952 12.98951,0 0,12.98952 -12.98951,0 m 0,-16.14231 0,-12.98952 12.98951,0 0,12.98952 -12.98951,0 m 0,-16.14231 0,-12.98952 12.98951,0 0,12.98952 -12.98951,0 m -32.28462,-16.14231 0,-12.98951 12.98951,0 0,12.98951 -12.98951,0 m 16.14231,0 0,-12.98951 12.98951,0 0,12.98951 -12.98951,0 m 16.14231,0 0,-12.98951 12.98951,0 0,12.98951 -12.98951,0 m 16.14231,0 0,-12.98951 12.98951,0 0,12.98951 -12.98951,0 m 16.14231,0 0,-12.98951 12.98951,0 0,12.98951 -12.98951,0 m -161.42309,64.56924 0,-12.98952 12.98951,0 0,12.98952 -12.98951,0 m 64.56923,0 0,-12.98952 12.98952,0 0,12.98952 -12.98952,0 m -64.56923,-16.14231 0,-12.98952 12.98951,0 0,12.98952 -12.98951,0 m 48.42692,0 0,-12.98952 12.98952,0 0,12.98952 -12.98952,0 m -48.42692,-16.14231 0,-12.98952 12.98951,0 0,12.98952 -12.98951,0 m 16.14231,0 0,-12.98952 12.98951,0 0,12.98952 -12.98951,0 m 16.14231,0 0,-12.98952 12.98951,0 0,12.98952 -12.98951,0 m 16.1423,0 0,-12.98952 12.98952,0 0,12.98952 -12.98952,0 m -48.42692,-16.14231 0,-12.98952 12.98951,0 0,12.98952 -12.98951,0 m 64.56923,0 0,-12.98952 12.98952,0 0,12.98952 -12.98952,0 m -64.56923,-16.14231 0,-12.98951 12.98951,0 0,12.98951 -12.98951,0 m 16.14231,0 0,-12.98951 12.98951,0 0,12.98951 -12.98951,0 m 16.14231,0 0,-12.98951 12.98951,0 0,12.98951 -12.98951,0 m 16.1423,0 0,-12.98951 12.98952,0 0,12.98951 -12.98952,0 m -145.280774,64.56924 0,-12.98952 12.989514,0 0,12.98952 -12.989514,0 m 64.569234,0 0,-12.98952 12.98952,0 0,12.98952 -12.98952,0 m -64.569234,-16.14231 0,-12.98952 12.989514,0 0,12.98952 -12.989514,0 m 64.569234,0 0,-12.98952 12.98952,0 0,12.98952 -12.98952,0 m -64.569234,-16.14231 0,-12.98952 12.989514,0 0,12.98952 -12.989514,0 m 16.142309,0 0,-12.98952 12.989514,0 0,12.98952 -12.989514,0 m 16.142309,0 0,-12.98952 12.989516,0 0,12.98952 -12.989516,0 m 16.142306,0 0,-12.98952 12.98952,0 0,12.98952 -12.98952,0 m 16.14231,0 0,-12.98952 12.98952,0 0,12.98952 -12.98952,0 m -64.569234,-16.14231 0,-12.98952 12.989514,0 0,12.98952 -12.989514,0 m 64.569234,0 0,-12.98952 12.98952,0 0,12.98952 -12.98952,0 m -48.426925,-16.14231 0,-12.98951 12.989514,0 0,12.98951 -12.989514,0 m 16.142309,0 0,-12.98951 12.989516,0 0,12.98951 -12.989516,0 m 16.142306,0 0,-12.98951 12.98952,0 0,12.98951 -12.98952,0" />
  </g>
</svg>
