<?xml version="1.0" encoding="UTF-8" standalone="no"?>
<!-- Created with Inkscape (http://www.inkscape.org/) -->

<svg
   xmlns:dc="http://purl.org/dc/elements/1.1/"
   xmlns:cc="http://creativecommons.org/ns#"
   xmlns:rdf="http://www.w3.org/1999/02/22-rdf-syntax-ns#"
   xmlns:svg="http://www.w3.org/2000/svg"
   xmlns="http://www.w3.org/2000/svg"
   xmlns:sodipodi="http://sodipodi.sourceforge.net/DTD/sodipodi-0.dtd"
   xmlns:inkscape="http://www.inkscape.org/namespaces/inkscape"
   id="svg2"
   version="1.1"
   inkscape:version="0.48.5 r10040"
   width="512"
   height="512"
   sodipodi:docname="steam.svg">
  <metadata
     id="metadata8">
    <rdf:RDF>
      <cc:Work
         rdf:about="">
        <dc:format>image/svg+xml</dc:format>
        <dc:type
           rdf:resource="http://purl.org/dc/dcmitype/StillImage" />
        <dc:title />
      </cc:Work>
    </rdf:RDF>
  </metadata>
  <defs
     id="defs6" />
  <sodipodi:namedview
     pagecolor="#ffffff"
     bordercolor="#666666"
     borderopacity="1"
     objecttolerance="10"
     gridtolerance="10"
     guidetolerance="10"
     inkscape:pageopacity="0"
     inkscape:pageshadow="2"
     inkscape:window-width="1193"
     inkscape:window-height="665"
     id="namedview4"
     showgrid="false"
     inkscape:zoom="0.4609375"
     inkscape:cx="388.26965"
     inkscape:cy="223.29057"
     inkscape:window-x="15"
     inkscape:window-y="39"
     inkscape:window-maximized="0"
     inkscape:current-layer="svg2" />
  <path
     inkscape:connector-curvature="0"
     id="path2992"
     d="m 251.16102,416.04146 c -12.90322,-1.90913 -23.5167,-5.65265 -32.51482,-11.46841 -19.43995,-12.56465 -31.95678,-32.86116 -34.58352,-56.07848 l -0.67826,-5.99505 -20.6117,-13.72236 c -11.33644,-7.54729 -26.30248,-17.43148 -33.25787,-21.96485 l -12.64618,-8.2425 -6.35382,2.25142 c -5.44198,1.9283 -8.43476,2.25775 -20.853828,2.2956 -12.44622,0.0379 -15.5623,-0.28552 -22,-2.28358 -25.24188,-7.83431 -44.78181,-27.9631 -51.61673,-53.17223 -2.46117,-9.0775 -2.47723,-29.12877 -0.0304,-38 7.47457,-27.10023 28.09845,-47.1674 55.61622,-54.11492 12.43043,-3.13836 29.039048,-2.39435 41.292158,1.84977 12.27852,4.25291 18.92123,8.46148 28.82932,18.26515 12.51616,12.38427 19.92058,26.96173 21.65013,42.62374 l 0.75934,6.87626 34,22.74115 c 25.07286,16.77017 34.52513,22.58987 36,22.16497 1.1,-0.31691 5.33598,-1.42141 9.41329,-2.45445 4.07732,-1.03304 7.76106,-2.23228 8.18609,-2.66496 0.42504,-0.43269 5.93621,-9.11171 12.24704,-19.28671 6.31083,-10.175 13.70967,-22.1 16.44188,-26.5 4.82672,-7.77305 4.9843,-8.2695 5.55502,-17.5 2.31704,-37.47483 28.07457,-72.31403 64.01275,-86.58256 13.10512,-5.20312 23.03919,-6.93277 39.14393,-6.81546 11.74386,0.0855 15.61153,0.52886 24,2.75093 30.23615,8.00943 54.48366,28.11956 67.5553,56.02826 18.33341,39.14288 10.11722,85.41956 -20.58087,115.91916 -17.95355,17.83747 -40.87696,28.16112 -65.33052,29.42185 -9.64471,0.49725 -11.75453,0.91224 -14,2.75375 -1.45415,1.19255 -12.26523,8.65624 -24.02461,16.58597 -11.75939,7.92974 -21.72361,15.3223 -22.14273,16.4279 -0.41911,1.10561 -1.51938,5.47948 -2.44504,9.71972 -5.76902,26.42663 -26.8592,48.42187 -53.4193,55.71172 -7.33999,2.01458 -21.87064,3.30871 -27.61223,2.4592 z"
     style="fill:#6d9beb" />
  <path
     style="fill:#2654a4;fill-opacity:1"
     d="m 241.33604,416.12585 c -21.6325,-5.94654 -39.23272,-19.79216 -49.04293,-39.5936 -4.49722,-9.07742 -9.44061,-26.369 -7.88474,-27.95076 0.35206,-0.35792 5.41928,2.62074 10.08864,5.79893 4.66937,3.17819 9.09585,5.77853 9.83664,5.77853 0.74077,0 9.07257,5.31232 18.5151,11.80515 20.55034,14.13075 25.74323,16.4008 37.73646,16.49638 16.39338,0.13066 30.03295,-7.02383 38.78096,-20.3421 7.78169,-11.84712 10.13111,-27.03766 6.17856,-39.94855 -4.25109,-13.88613 -10.38306,-20.53226 -31.20139,-33.81763 -7.84723,-5.00778 -15.6435,-10.38454 -17.32505,-11.94839 -1.68155,-1.56384 -6.7164,-5.19682 -11.18856,-8.07329 -9.00155,-5.78974 -8.7868,-4.84007 1.38263,-7.99329 l 4.33921,-1.34545 11.31188,-17.67021 c 6.13681,-9.58625 12.46694,-19.79427 14.0811,-22.86975 3.29956,-6.28671 6.87707,-12.18344 8.31024,-12.32726 0.43965,-0.0441 0.80582,4.05795 1.16035,7.9044 1.57059,17.03972 10.83823,39.08632 22.75393,54.12876 16.20637,20.45901 43.25094,35.97006 67.85066,38.91485 3.22297,0.38582 6.29139,0.27663 6.29139,0.75343 0,1.04907 -8.37903,6.81389 -11.13221,8.41028 -1.02481,0.59422 -9.81472,6.15819 -19.3193,12.83394 l -17.28107,12.13771 -1.70015,8.8067 c -5.36365,27.78361 -24.11044,49.60796 -50.36296,58.63081 -11.30716,3.8862 -30.92302,4.57468 -42.17939,1.48041 z"
     id="path3009" />
  <path
     style="fill:#2654a4;fill-opacity:1"
     d="M 75.068578,303.04776 C 40.526752,296.60552 15.803246,268.51227 11.951674,234.05178 7.7717586,196.65352 29.873458,163.50503 66.136976,152.02999 c 9.892776,-3.13042 29.449128,-3.39901 39.709714,-0.54539 21.36624,5.94223 39.85751,22.26729 50.06547,41.74649 4.0659,7.75868 8.29735,23.50409 7.16737,24.65288 -0.29079,0.29564 -5.64831,-2.53916 -9.91691,-5.47091 -4.26859,-2.93177 -8.32945,-5.33046 -9.02413,-5.33046 -0.69467,0 -8.79196,-5.20708 -17.99397,-11.57129 -19.5055,-13.49021 -26.249381,-16.61184 -37.860405,-16.64473 -12.646032,-0.0359 -23.0602,3.94571 -31.625785,12.09115 -17.147294,16.30622 -20.178413,41.50576 -7.355003,61.14657 3.809656,5.835 10.056049,11.85398 15.070642,14.52196 6.943665,3.69434 49.129821,32.02951 49.207531,33.24215 0.17853,2.786 -28.785794,4.99351 -38.512922,3.17935 z"
     id="path3007" />
  <path
     style="fill:#2654a4;fill-opacity:1"
     d="m 374.02028,276.72519 c -15.07128,-3.38223 -30.83816,-13.51572 -39.83226,-25.60049 -10.63296,-14.2868 -15.20568,-29.13984 -14.42261,-46.84733 1.28143,-28.9762 19.68306,-53.89139 46.78707,-63.34806 7.80065,-2.72167 9.64065,-2.95669 22.75461,-2.90634 13.45127,0.0518 14.75014,0.2407 22.69902,3.30365 17.59422,6.7796 30.56958,18.55212 38.5502,34.97656 5.94252,12.22995 7.90055,21.79591 7.21049,35.22677 -1.52107,29.60517 -20.26264,54.2941 -48.0773,63.33394 -10.45438,3.39771 -25.35759,4.17539 -35.66922,1.8613 z"
     id="path2988"
     inkscape:connector-curvature="0" />
</svg>
