<?xml version="1.0" encoding="UTF-8" standalone="no"?>
<!-- Created with Inkscape (http://www.inkscape.org/) -->

<svg
   xmlns:dc="http://purl.org/dc/elements/1.1/"
   xmlns:cc="http://creativecommons.org/ns#"
   xmlns:rdf="http://www.w3.org/1999/02/22-rdf-syntax-ns#"
   xmlns:svg="http://www.w3.org/2000/svg"
   xmlns="http://www.w3.org/2000/svg"
   xmlns:sodipodi="http://sodipodi.sourceforge.net/DTD/sodipodi-0.dtd"
   xmlns:inkscape="http://www.inkscape.org/namespaces/inkscape"
   id="svg2"
   version="1.1"
   inkscape:version="0.48.5 r10040"
   width="200"
   height="200"
   sodipodi:docname="WebStorm.gif">
  <metadata
     id="metadata8">
    <rdf:RDF>
      <cc:Work
         rdf:about="">
        <dc:format>image/svg+xml</dc:format>
        <dc:type
           rdf:resource="http://purl.org/dc/dcmitype/StillImage" />
        <dc:title></dc:title>
      </cc:Work>
    </rdf:RDF>
  </metadata>
  <defs
     id="defs6" />
  <sodipodi:namedview
     pagecolor="#ffffff"
     bordercolor="#666666"
     borderopacity="1"
     objecttolerance="10"
     gridtolerance="10"
     guidetolerance="10"
     inkscape:pageopacity="0"
     inkscape:pageshadow="2"
     inkscape:window-width="1211"
     inkscape:window-height="671"
     id="namedview4"
     showgrid="false"
     inkscape:zoom="1.18"
     inkscape:cx="100"
     inkscape:cy="100"
     inkscape:window-x="134"
     inkscape:window-y="54"
     inkscape:window-maximized="0"
     inkscape:current-layer="svg2" />
  <path
     style="fill:#0180b5;fill-opacity:1"
     d="M 42.886181,175.47615 C 42.602114,174.58723 35.590431,140.69501 27.304659,100.16012 19.018887,59.625219 11.933479,25.151165 11.559303,23.551104 10.880424,20.648022 10.914494,20.641901 27.75159,20.641901 c 9.279918,0 17.190234,0.513972 17.578477,1.142161 0.388243,0.628187 3.306742,14.683684 6.485544,31.234436 3.178815,16.550747 6.364922,30.677539 7.080237,31.392866 1.913854,1.913855 2.920969,-1.536731 9.743812,-33.384456 3.351686,-15.645046 6.530979,-28.902574 7.065096,-29.461174 0.534117,-0.5586 7.306909,-0.84952 15.050651,-0.646489 l 14.079523,0.369145 6.49759,32.338193 c 7.8457,39.047667 9.53943,43.048257 25.02737,59.114557 10.09316,10.47006 10.98644,11.82819 11.50169,17.48704 0.74916,8.22766 -2.19492,13.39209 -18.29059,32.08493 l -12.82572,14.89523 -7.06922,-0.38122 -7.06922,-0.38124 -6.080418,-30.71627 c -3.344226,-16.89394 -6.474386,-31.11025 -6.955917,-31.59179 -1.952851,-1.95285 -3.443682,2.74995 -9.300165,29.3371 -3.367888,15.28947 -6.60799,29.10819 -7.200213,30.70825 -1.027685,2.77661 -1.728338,2.9092 -15.372111,2.9092 -10.29885,0 -14.439744,-0.45184 -14.811825,-1.61622 z"
     id="path3012"
     inkscape:connector-curvature="0" />
  <path
     style="fill:#f28f0b"
     d="m 124.87605,175.98734 c -0.37562,-0.60776 0.81353,-2.49875 2.64256,-4.20218 5.95051,-5.5419 18.92467,-22.36321 21.33689,-27.66375 2.62962,-5.7783 3.13333,-16.67829 1.02679,-22.21972 -0.76102,-2.00193 -5.61403,-8.00367 -10.78447,-13.33721 -16.75298,-17.28142 -20.90544,-26.770067 -19.84608,-45.349641 0.73793,-12.94216 4.99935,-23.806436 14.02898,-35.766075 l 5.13923,-6.806863 21.93875,0 c 12.06632,0 21.93876,0.493747 21.93876,1.097217 0,0.603471 -4.01087,5.649641 -8.91305,11.213712 -4.90219,5.564072 -10.84037,13.296562 -13.196,17.183313 -3.71433,6.128622 -4.28016,8.201762 -4.26206,15.615607 0.0116,4.701828 0.79769,9.977726 1.74715,11.724217 0.94946,1.746491 6.80966,8.511474 13.02265,15.033283 12.01342,12.61054 16.18449,20.39937 17.67818,33.01126 1.50575,12.71373 -4.15174,30.55912 -14.77947,46.61869 l -3.27785,4.95317 -22.37901,0 c -12.30845,0 -22.68632,-0.49726 -23.06195,-1.10503 z"
     id="path2993"
     inkscape:connector-curvature="0" />
</svg>
