<?xml version="1.0" encoding="UTF-8" standalone="no"?>
<!-- Created with Inkscape (http://www.inkscape.org/) -->

<svg
   xmlns:dc="http://purl.org/dc/elements/1.1/"
   xmlns:cc="http://creativecommons.org/ns#"
   xmlns:rdf="http://www.w3.org/1999/02/22-rdf-syntax-ns#"
   xmlns:svg="http://www.w3.org/2000/svg"
   xmlns="http://www.w3.org/2000/svg"
   xmlns:sodipodi="http://sodipodi.sourceforge.net/DTD/sodipodi-0.dtd"
   xmlns:inkscape="http://www.inkscape.org/namespaces/inkscape"
   id="svg2"
   version="1.1"
   inkscape:version="0.48.5 r10040"
   width="512"
   height="512"
   sodipodi:docname="audacity.svg">
  <metadata
     id="metadata8">
    <rdf:RDF>
      <cc:Work
         rdf:about="">
        <dc:format>image/svg+xml</dc:format>
        <dc:type
           rdf:resource="http://purl.org/dc/dcmitype/StillImage" />
        <dc:title />
      </cc:Work>
    </rdf:RDF>
  </metadata>
  <defs
     id="defs6" />
  <sodipodi:namedview
     pagecolor="#ffffff"
     bordercolor="#666666"
     borderopacity="1"
     objecttolerance="10"
     gridtolerance="10"
     guidetolerance="10"
     inkscape:pageopacity="0"
     inkscape:pageshadow="2"
     inkscape:window-width="1189"
     inkscape:window-height="659"
     id="namedview4"
     showgrid="false"
     inkscape:zoom="0.70710678"
     inkscape:cx="-132.88184"
     inkscape:cy="168.74954"
     inkscape:window-x="33"
     inkscape:window-y="39"
     inkscape:window-maximized="0"
     inkscape:current-layer="svg2"
     showguides="true"
     inkscape:guide-bbox="true" />
  <path
     inkscape:connector-curvature="0"
     id="path2992"
     d="m 238.21605,431.11643 c -18.38777,-87.24079 -18.65544,-88.37354 -20.9872,-88.81221 -0.98544,-0.18539 -1.99975,0.50875 -2.30629,1.5783 -0.30096,1.05008 -3.73197,30.2011 -7.62445,64.78005 -3.89248,34.57894 -7.3904,63.22166 -7.77316,63.65048 -0.69951,0.78368 -4.26492,-10.69846 -18.78027,-60.48053 l -7.85647,-26.94463 0.73802,-32.6441 0.73803,-32.64411 5.51009,19.96428 c 3.03055,10.98035 6.60769,24.00597 7.94919,28.94582 2.79425,10.28937 4.64538,13.17011 6.6927,10.41527 0.76885,-1.03456 2.89495,-18.11591 5.2608,-42.26609 3.87812,-39.58702 10.22823,-110.12842 10.22823,-113.62225 0,-0.9646 0.21476,-1.53908 0.47725,-1.27663 0.26248,0.26245 5.04836,22.33327 10.6353,49.04627 8.28136,39.596 17.53081,79.50239 24.91097,107.47746 1.29818,4.92086 4.70676,5.56439 5.59686,1.05665 2.38236,-12.06494 21.78659,-171.02854 21.78659,-178.48039 0,-6.89827 3.34696,7.20425 13.70771,57.75787 10.53972,51.42683 15.60909,74.49913 19.09553,86.90965 1.37962,4.91098 4.75596,5.54171 5.65635,1.05665 1.42712,-7.10887 4.03296,-28.32497 8.66294,-70.53154 2.74134,-24.98983 5.30288,-45.80384 5.6923,-46.25337 0.38942,-0.44952 4.71528,13.45832 9.61303,30.9063 4.89773,17.44798 9.38053,31.72417 9.96176,31.72485 0.6841,8.2e-4 0.92762,-8.38659 0.69055,-23.78297 l -0.36623,-23.78422 3.27094,-3.05514 c 6.60323,-6.16757 23.31504,-7.11886 34.14996,-1.94392 3.07057,1.46656 10.46446,4.20246 16.43085,6.0798 12.61931,3.97066 25.98154,11.52307 35.29115,19.94674 5.01443,4.53724 6.56043,5.43866 7.30651,4.26016 0.52048,-0.82214 0.9536,-11.2704 0.9625,-23.21837 0.0173,-23.24361 -0.20279,-24.94128 -5.1262,-25.58062 -0.70905,-0.0921 -0.97975,-0.52341 -1.39102,-0.88708 -1.04599,-0.92494 -1.74352,-3.11286 -2.67244,-11.50958 -2.79408,-25.25646 -8.06425,-43.47771 -18.79552,-64.98412 C 390.76678,94.29756 344.54318,59.098018 291.90594,49.813288 278.14609,47.386179 248.92791,47.386305 233.25449,49.813552 149.88365,62.724649 97.377499,118.60583 84.717205,207.89863 c -0.947585,6.68332 -2.402402,12.22934 -2.784144,12.62049 -0.381742,0.39115 -1.753544,1.10883 -3.497235,1.29884 l -3.170349,0.34547 -0.283672,24.56717 c -0.156023,13.51194 -0.02367,24.56717 0.294018,24.56717 0.317722,0 4.725352,-3.35846 9.794718,-7.46323 10.312735,-8.35046 23.980819,-15.67391 35.416899,-18.9766 4.18944,-1.2099 10.63657,-3.69664 14.32697,-5.52608 5.90467,-2.92715 7.74335,-3.32149 15.32335,-3.28637 9.1672,0.0425 15.10845,1.84017 19.39794,5.86944 l 2.35897,2.21586 -0.14398,97.32318 c -0.0792,53.52776 -0.52064,98.3736 -0.98099,99.65746 -3.08284,8.59751 -29.26081,10.27112 -38.28835,2.4478 -1.25938,-1.09139 -3.86294,-2.809 -6.89132,-4.03806 -1.38203,-0.5609 -2.98243,-0.80974 -4.35451,-1.22232 -3.60515,-1.08406 -7.10111,-2.49156 -10.49599,-3.90182 -31.349744,-13.02292 -53.421439,-39.44864 -60.275339,-73.14047 -1.926482,-9.47004 -2.079157,-15.092 -2.184867,-80.44892 -0.126116,-77.97058 0.0373,-80.50386 6.928765,-107.40162 C 73.848395,100.65183 123.44,46.042529 191.17015,23.687274 236.30179,8.7909603 280.93561,8.9320128 326.77977,24.11581 c 29.84029,9.883239 56.96563,26.513742 79.64525,48.830355 27.93575,27.488625 46.77644,60.813045 56.20188,99.406945 6.312,25.84538 6.40323,27.5397 6.06776,112.68114 l -0.306,77.66394 -3.79541,10.7935 c -5.55363,15.79356 -12.25329,26.31108 -24.73772,38.83469 -12.57426,12.61371 -23.02689,19.2344 -38.82358,24.59066 -2.84914,0.96607 -5.81048,1.43887 -8.1928,2.50976 -2.60524,1.1711 -4.53536,2.9276 -5.29437,3.63705 -4.55091,4.25375 -10.35673,6.03594 -19.71841,6.05289 -6.99633,0.0127 -9.58689,-0.46259 -13.73817,-2.52036 -2.8138,-1.39478 -5.72792,-3.7247 -6.47583,-5.17759 -1.04353,-2.02718 -1.30889,-10.99816 -1.14082,-38.56781 l 0.21903,-35.92618 -5.48429,-20.85326 c -3.01636,-11.46928 -5.93898,-22.04901 -6.49471,-23.51051 -0.98963,-2.6026 -3.55214,-3.55708 -4.67457,-1.74117 -0.31144,0.50384 -4.40447,32.00529 -9.09564,70.00321 -8.52327,69.03754 -9.25302,74.4323 -9.96974,73.70259 -0.21006,-0.21387 -5.91878,-30.58269 -12.68603,-67.48627 -10.7435,-58.587 -13.25521,-71.72361 -15.90995,-83.21137 -0.33993,-1.47096 -1.33994,-2.37747 -2.62271,-2.37747 -3.03029,0 -1.03894,-14.72259 -17.61483,130.23178 -3.97077,34.72388 -7.48247,63.13462 -7.80377,63.13497 -0.32131,3.4e-4 -7.57454,-33.16505 -16.11829,-73.70087 z"
     style="fill:#ffcc00"
     sodipodi:nodetypes="sssssscccssssscsssssssssscscssssssssssssssscssssssscsssssssssssssscssssssssscsscsssssscs" />
  <path
     inkscape:connector-curvature="0"
     id="path2988"
     d="m 361.13148,447.42741 c -6.00638,-1.05363 -11.10783,-3.61507 -12.54345,-6.29808 -0.72346,-1.35209 -1.08775,-34.62938 -1.08775,-99.36484 l 0,-97.33193 2.64987,-2.4563 c 3.91245,-3.62667 10.84508,-5.18587 20.55739,-4.62352 6.97573,0.40389 9.29535,1.02443 13.47422,3.6046 2.77634,1.71419 8.10819,3.9601 11.84858,4.99088 14.24964,3.92699 29.1533,12.2901 40.30573,22.61735 3.34123,3.09402 6.32785,5.21627 6.63693,4.71609 0.82645,-1.33752 0.99565,-51.65844 0.17813,-52.98147 -0.3828,-0.61951 -1.75522,-1.12637 -3.04984,-1.12637 -2.23093,0 -2.42432,-0.67037 -3.70388,-12.83918 -7.96213,-75.721 -62.2707,-139.508571 -133.45526,-156.74849 -38.7252,-9.378711 -89.35524,-3.351835 -125.96061,14.99404 -32.93411,16.50593 -57.29164,40.96459 -73.45471,73.75972 -11.509745,23.35347 -17.492083,44.23852 -21.698372,75.75199 -0.364364,2.72981 -0.603852,3.97037 -1.383518,4.59149 -0.545301,0.43441 -1.354836,0.56581 -2.656137,0.69177 l -3.378124,0.32698 -0.282978,26.34459 c -0.176478,16.42858 0.112036,26.7397 0.766489,27.3943 0.695021,0.69515 3.140246,-0.94496 7.239664,-4.85593 11.078676,-10.5694 24.996376,-18.39421 40.873036,-22.97963 3.48625,-1.00689 8.14541,-3.05776 10.35367,-4.55747 9.51976,-6.46528 28.14927,-6.16473 35.33733,0.57009 l 2.37699,2.22711 0,97.63743 0,97.63743 -2.98845,2.98906 c -6.89931,6.90072 -25.67902,6.79228 -33.87214,0.75711 -0.84256,-0.62064 -1.91203,-1.11811 -2.49825,-1.86731 -1.83503,-2.34521 -4.16746,-3.62648 -8.77366,-4.81964 -3.45077,-0.89386 -10.13379,-3.42733 -14.85118,-5.62992 -25.781756,-12.03775 -44.887089,-33.76957 -53.009761,-60.29724 -3.47773,-11.35785 -4.459692,-17.43099 -4.761291,-52.28641 -5.52e-4,-0.0638 -0.0011,-0.12772 -0.0016,-0.19173 -0.01016,-1.18799 -0.144547,-2.50304 -0.153219,-3.75898 -0.06674,-9.66581 0.03361,-21.28977 0.01857,-35.66866 -0.06881,-65.79269 0.0095,-68.6128 2.264225,-81.39404 C 59.876925,154.83813 74.367734,120.39471 96.355237,92.588679 133.56439,45.53293 187.06428,18.33879 249.77962,14.602634 c 21.11159,-1.257686 51.97542,3.098821 74.63334,10.534682 69.23517,22.721563 119.78591,77.885514 136.65752,149.128774 6.19579,26.16273 6.33568,28.5659 6.33568,108.83519 0,73.71428 -0.008,73.99619 -2.41379,82.9472 -1.3276,4.93985 -4.84622,13.9183 -7.81918,19.95213 -4.58478,9.30513 -6.92635,12.55552 -15.42432,21.41097 -14.14567,14.74076 -29.80793,24.51476 -46.06397,28.74612 -4.75064,1.23657 -6.93967,2.49037 -9.25672,5.30195 -4.42331,5.36729 -14.78491,7.81171 -25.2967,5.96776 z"
     style="fill:#357cee;stroke:#357cee;stroke-width:5.0999999;stroke-miterlimit:4;stroke-opacity:1;stroke-dasharray:none"
     sodipodi:nodetypes="ssscssssscssssssssscscsssscccsssssssssscssssscsssss" />
  <path
     style="fill:#0f2d61;stroke:#0f2d61;stroke-width:7.5999999;stroke-miterlimit:4;stroke-opacity:1;stroke-dasharray:none"
     d="m 142.13896,445.46003 c -2.00055,-0.49817 -4.90858,-1.83804 -6.46227,-2.97749 l -2.82487,-2.07174 -0.19846,-33.7495 c -0.10914,-18.56221 -0.76678,-62.13876 -1.46135,-96.83678 -0.94583,-47.24833 -0.95457,-63.65335 -0.0348,-65.34194 4.28306,-7.8631 28.45573,-9.91744 37.19757,-3.16127 l 2.78397,2.15161 -0.1269,96.23044 c -0.0672,50.93178 -0.43768,94.153 -0.83612,98.75109 -0.013,0.14961 -0.026,0.25835 -0.039,0.32512 -0.003,0.0137 -0.005,0.0254 -0.008,0.0355 -0.0204,0.0777 -0.0426,0.15495 -0.0666,0.23163 -1.25781,4.0213 -7.43738,6.62871 -16.65391,7.00634 -4.19755,0.172 -9.26877,-0.0951 -11.26934,-0.59306 z"
     id="path2991"
     inkscape:connector-curvature="0"
     sodipodi:nodetypes="cscsscscsssssscc" />
  <path
     style="fill:#0f2d61;stroke:#0f2d61;stroke-width:7.60000038;stroke-miterlimit:4;stroke-opacity:1;stroke-dasharray:none"
     d="m 355.43912,446.83163 c -7.23845,-2.16582 -6.72589,2.32363 -7.75507,-67.92313 -0.87603,-59.79212 -0.75714,-130.8313 0.22504,-134.47232 1.5544,-5.76226 22.14101,-8.65183 31.6665,-4.44477 8.93117,3.9446 8.44489,-0.81103 7.22303,70.64426 -0.59488,34.79255 -1.08723,78.27021 -1.09395,96.61701 -0.0108,19.50763 -0.44232,34.1601 -1.04806,35.2901 -1.75713,3.27816 -8.91715,5.39254 -17.9225,5.29256 -4.53557,-0.0504 -9.61832,-0.50203 -11.29499,-1.00371 z"
     id="path2989"
     inkscape:connector-curvature="0" />
  <path
     style="fill:#0f2d61;stroke:#0f2d61;stroke-width:7.60000134;stroke-miterlimit:4;stroke-opacity:1;stroke-dasharray:none"
     d="m 51.277361,269.39473 0.288584,-43.78147 11.067834,0 11.067836,0 0.296174,24.75705 0.296187,24.75704 -5.28376,6.47885 c -6.111794,7.49417 -12.476596,18.47431 -15.183379,26.19334 -1.036967,2.95716 -2.099746,5.37668 -2.361733,5.37668 -0.261975,0 -0.346467,-19.70168 -0.187743,-43.78149 z"
     id="path2986"
     inkscape:connector-curvature="0" />
  <path
     inkscape:connector-curvature="0"
     style="fill:#0f2d61;stroke:#0f2d61;stroke-width:7.60000086;stroke-miterlimit:4;stroke-opacity:1;stroke-dasharray:none"
     d="m 466.36906,269.37703 -0.29507,-43.87735 -11.31658,0 -11.31659,0 -0.30283,24.81127 -0.30286,24.81125 5.40253,6.49304 c 6.24915,7.51058 12.75701,18.51477 15.52463,26.2507 1.06027,2.96364 2.14694,5.38846 2.4148,5.38846 0.26787,0 0.35427,-19.74482 0.19197,-43.87737 z"
     id="path2986-1" />
</svg>
