<?xml version="1.0" encoding="UTF-8" standalone="no"?>
<!-- Created with Inkscape (http://www.inkscape.org/) -->

<svg
   xmlns:dc="http://purl.org/dc/elements/1.1/"
   xmlns:cc="http://creativecommons.org/ns#"
   xmlns:rdf="http://www.w3.org/1999/02/22-rdf-syntax-ns#"
   xmlns:svg="http://www.w3.org/2000/svg"
   xmlns="http://www.w3.org/2000/svg"
   xmlns:sodipodi="http://sodipodi.sourceforge.net/DTD/sodipodi-0.dtd"
   xmlns:inkscape="http://www.inkscape.org/namespaces/inkscape"
   id="svg2"
   version="1.1"
   inkscape:version="0.48.5 r10040"
   width="512"
   height="512"
   sodipodi:docname="jockey.svg">
  <metadata
     id="metadata8">
    <rdf:RDF>
      <cc:Work
         rdf:about="">
        <dc:format>image/svg+xml</dc:format>
        <dc:type
           rdf:resource="http://purl.org/dc/dcmitype/StillImage" />
        <dc:title />
      </cc:Work>
    </rdf:RDF>
  </metadata>
  <defs
     id="defs6" />
  <sodipodi:namedview
     pagecolor="#ffffff"
     bordercolor="#666666"
     borderopacity="1"
     objecttolerance="10"
     gridtolerance="10"
     guidetolerance="10"
     inkscape:pageopacity="0"
     inkscape:pageshadow="2"
     inkscape:window-width="1231"
     inkscape:window-height="679"
     id="namedview4"
     showgrid="false"
     inkscape:zoom="0.921875"
     inkscape:cx="-51.268801"
     inkscape:cy="276.52711"
     inkscape:window-x="15"
     inkscape:window-y="39"
     inkscape:window-maximized="0"
     inkscape:current-layer="svg2" />
  <path
     style="fill:#cccccc;fill-opacity:1;fill-rule:evenodd;stroke:none"
     d=""
     id="path3783"
     inkscape:connector-curvature="0" />
  <rect
     style="fill:#019875;fill-opacity:1;fill-rule:evenodd;stroke:none"
     id="rect3005"
     width="187.66101"
     height="187.668"
     x="163.05086"
     y="165.11174" />
  <path
     inkscape:connector-curvature="0"
     id="path2986"
     d="m 63.309931,477.15875 c -11.7104,-4.15748 -22.71226,-16.1017 -25.10625,-27.25673 -0.8003,-3.72904 -1.02653,-58.05038 -0.80663,-193.68258 l 0.30561,-188.499995 2.8683,-5.846564 c 3.67924,-7.499526 11.84227,-15.645006 19.28514,-19.243686 5.14465,-2.48747 7.22757,-2.87361 17.34966,-3.21634 l 11.50311,-0.38949 2.21649,4.56221 c 5.58592,11.497508 21.302369,11.449777 26.777299,-0.0813 l 2,-4.21233 144.18261,-0.0362 144.18261,-0.0362 0.67974,2.25 c 0.86828,2.87413 5.17483,7.52095 8.65538,9.33928 3.49155,1.82407 9.14548,1.80037 12.7302,-0.0534 3.6559,-1.89054 8.06946,-7.14814 8.06946,-9.61265 0,-1.51393 0.7111,-1.92327 3.34107,-1.92327 13.42633,0 28.80108,12.1491 33.68806,26.620243 1.95776,5.797238 1.98261,8.605988 1.72859,195.380772 l -0.25772,189.49898 -2.87318,5.85144 c -5.765,11.74084 -18.93067,21.51165 -30.2508,22.4504 -4.53732,0.37627 -5.37602,0.18474 -5.37602,-1.22767 0,-6.43751 -8.13208,-12.1042 -16.25083,-11.32409 -5.96777,0.57343 -9.60586,3.12988 -12.24809,8.60662 l -1.99892,4.1433 -32.75108,0 -32.75108,0 -0.022,-27.75 c -0.0197,-24.89825 -0.21326,-28.17123 -1.88347,-31.84893 -1.87413,-4.1267 -5.68185,-7.54481 -9.84457,-8.83726 -2.16752,-0.67298 -2.25,-1.13316 -2.25,-12.55365 l 0,-11.85506 3.33505,-1.10066 c 3.90045,-1.28727 8.09371,-5.3793 9.60133,-9.36954 0.58499,-1.5483 1.06362,-6.39694 1.06362,-10.77475 0,-7.38735 -0.1655,-8.02257 -2.30176,-8.83478 -3.25511,-1.23759 -163.55686,-1.2214 -165.87038,0.0168 -1.53367,0.82079 -1.82786,2.24968 -1.82786,8.87795 0,4.34485 0.47863,9.16652 1.06362,10.71482 1.50762,3.99024 5.70088,8.08227 9.60133,9.36954 l 3.33509,1.10062 -0.003,11.67245 -0.003,11.67245 -4.7471,2.5 c -3.48965,1.83778 -5.34311,3.68191 -6.99711,6.96189 -2.17231,4.30782 -2.25,5.42141 -2.25,32.25 l 2.1e-4,27.78811 -26.25,-0.0362 -26.25,-0.0362 -2,-4.21232 c -2.94095,-6.19412 -7.66911,-9.00017 -14.27213,-8.47016 -5.952609,0.4778 -10.412469,3.77299 -12.864449,9.50496 l -1.39026,3.24992 -10.23658,-0.0731 c -7.38852,-0.0527 -11.73697,-0.60574 -15.62931,-1.98762 z M 160.11502,342.38319 c 1.4038,-2.62301 1.4706,-163.57967 0.069,-166.19862 -0.91569,-1.71099 -2.1141,-1.963 -9.26652,-1.94868 -10.5484,0.0211 -15.13172,2.29997 -18.57091,9.23355 l -2.3561,4.75 -31.93936,0 -31.939359,0 -2.45454,2.45455 c -2.65092,2.65091 -3.23719,7.21455 -1.37406,10.69585 2.34647,4.38441 5.98074,4.8496 37.887389,4.8496 l 30.0321,0 0,11.5 0,11.5 -29.25,0.006 c -17.042389,0.003 -30.802769,0.43682 -32.970519,1.03886 -6.88937,1.91336 -9.12983,9.39772 -4.20029,14.03125 l 2.57919,2.42389 31.920809,0.28985 31.92081,0.28984 0,11.96016 0,11.96015 -31.57692,0 -31.576929,0 -2.92307,2.92308 c -5.14292,5.14291 -3.24165,12.06116 3.8564,14.03248 2.16775,0.60204 15.92813,1.03561 32.970519,1.03886 l 29.25,0.006 0,12 0,12 -31.86364,0 -31.863629,0 -2.63637,2.63636 c -3.49303,3.49303 -3.56979,8.52112 -0.18181,11.90909 l 2.45454,2.45455 31.939359,0 31.93936,0 2.3561,4.74855 c 3.6501,7.35655 7.33051,9.25145 17.96879,9.25145 7.53139,0 8.96022,-0.26773 9.79966,-1.83625 z m 216.18976,-0.4152 c 1.86883,-1.23829 4.45812,-4.38829 5.75397,-7 l 2.3561,-4.74855 31.93936,0 31.93936,0 2.45454,-2.45455 c 3.36647,-3.36646 3.27307,-8.08166 -0.23254,-11.74073 l -2.68709,-2.80472 -31.81291,0 -31.81291,0 0,-12 0,-12 28.75,-0.0239 c 15.8125,-0.0131 30.55,-0.44091 32.75,-0.95064 7.6738,-1.77801 9.93479,-8.74456 4.57692,-14.10242 l -2.92307,-2.92304 -31.57693,0 -31.57692,0 0,-11.96015 0,-11.96016 31.92081,-0.28984 31.92081,-0.28985 2.57919,-2.42431 c 4.92954,-4.63353 2.68908,-12.11789 -4.20029,-14.03125 -2.16775,-0.60204 -15.92813,-1.03561 -32.97052,-1.03886 l -29.25,-0.006 0,-11.5 0,-11.5 30.25,-0.002 c 26.8002,-0.001 30.64793,-0.20096 33.73928,-1.75 5.62922,-2.82076 6.58274,-9.67643 1.98528,-14.27389 -1.88369,-1.88324 -3.4451,-1.97411 -33.92777,-1.97411 l -31.9532,0 -1.92074,-4.34215 c -3.08421,-6.97237 -7.0059,-9.09136 -17.60845,-9.51428 -7.6632,-0.30567 -9.12049,-0.10355 -10.23409,1.41938 -1.0397,1.42187 -1.29653,18.00843 -1.28862,83.22034 0.006,52.87063 0.36401,82.10625 1.01928,83.33062 0.87191,1.62918 2.21036,1.88609 9.82633,1.88609 7.47236,0 9.33511,-0.34334 12.21482,-2.25145 z m -191.67355,-2.31998 c 1.85966,-1.85966 2.07045,-6.52955 0.37143,-8.22857 -3.07996,-3.07996 -9.8,-0.30781 -9.8,4.04269 0,4.81882 6.09134,7.52312 9.42857,4.18588 z m 152.74269,-0.0836 c 3.80283,-3.44147 1.24896,-9.34497 -4.04269,-9.34497 -3.56366,0 -5.12857,1.67824 -5.12857,5.5 0,1.705 0.54,3.64 1.2,4.3 1.71585,1.71585 5.83213,1.4809 7.97126,-0.45499 z M 185.00266,187.01944 c 3.07996,-3.07996 0.30781,-9.8 -4.04269,-9.8 -4.81882,0 -7.52312,6.09134 -4.18588,9.42857 1.85966,1.85966 6.52955,2.07045 8.22857,0.37143 z m 152.37126,-0.45499 c 2.23844,-2.02576 2.32136,-4.19669 0.27204,-7.1225 -1.81559,-2.59211 -5.61647,-2.90648 -7.87187,-0.65108 -1.85966,1.85966 -2.07045,6.52955 -0.37143,8.22857 1.71585,1.71585 5.83213,1.4809 7.97126,-0.45499 z m 3.80678,-24.81855 c 0.82449,-0.99345 1.10874,-4.33297 0.87245,-10.25 -0.41649,-10.42906 -2.56932,-14.37985 -9.50834,-17.44931 l -4.34215,-1.92074 0,-31.39744 0,-31.397438 -2.37041,-2.755763 c -3.32163,-3.861632 -8.93755,-3.861632 -12.25918,0 l -2.37041,2.755763 0,31.444238 0,31.44423 -12,0 -12,0 -0.006,-29.25 c -0.003,-17.181967 -0.43507,-30.796517 -1.04656,-32.998393 -1.83873,-6.620947 -10.02594,-8.635673 -14.59417,-3.591363 -1.70969,1.887873 -1.87621,4.524649 -2.14354,33.943316 l -0.28942,31.89644 -11.92031,0 -11.92031,0 -0.28984,-31.89644 c -0.26733,-29.418667 -0.43385,-32.055443 -2.14354,-33.943316 -4.56823,-5.04431 -12.75544,-3.029584 -14.59417,3.591363 -0.61149,2.201876 -1.04329,15.816426 -1.04656,32.998393 l -0.006,29.25 -12,0 -12,0 0,-31.57692 0,-31.576921 -2.92308,-2.923077 c -3.62524,-3.625241 -6.9683,-3.726802 -11.00019,-0.334183 l -3.07673,2.588893 0,31.805018 0,31.805 -4.75,2.3561 c -6.89669,3.42089 -9.21236,8.03693 -9.23355,18.40609 -0.0101,4.94874 0.44585,8.5123 1.18355,9.25 0.91398,0.91398 20.90612,1.2 83.87756,1.2 71.6114,0 82.84124,-0.19723 83.90048,-1.47354 z m -137.73803,271.22354 0.25999,-46.25 11.75,-0.28174 11.75,-0.28173 0,12.05649 0,12.05648 -2.75,1.04186 c -1.5125,0.57303 -3.80526,2.02439 -5.09501,3.22525 -5.0156,4.6699 -5.15499,5.64698 -5.15499,36.13373 l 0,28.54966 -5.50999,0 -5.50998,0 0.25998,-46.25 z m 40.76262,20 c 0.001,-14.4375 0.29787,-35.3625 0.65872,-46.5 l 0.6561,-20.25 11.68255,0 11.68255,0 0.6561,20.25 c 0.36085,11.1375 0.65728,32.0625 0.65872,46.5 l 0.003,26.25 -13,0 -13,0 0.003,-26.25 z m 55.99737,-2.29966 c 0,-30.48675 -0.13939,-31.46383 -5.15499,-36.13373 -1.28975,-1.20086 -3.58251,-2.65222 -5.09501,-3.22525 l -2.75,-1.04186 0,-12.05648 0,-12.05649 11.75,0.28173 11.75,0.28174 0.25999,46.25 0.25998,46.25 -5.50998,0 -5.50999,0 0,-28.54966 z"
     style="fill:#019875" />
  <path
     inkscape:connector-curvature="0"
     id="path2984"
     d="m 166.9558,354.30284 c -6.27825,-3.04023 -5.93022,2.61858 -5.85532,-95.20548 l 0.0683,-89.21297 2.26694,-2.4243 c 1.24681,-1.33336 3.03878,-2.84043 3.98216,-3.34905 2.29117,-1.23526 177.27837,-1.23526 179.56954,0 0.94338,0.50862 2.74672,2.0278 4.00744,3.37596 l 2.2922,2.4512 0.0225,89.07712 c 0.0245,97.15407 0.32229,92.03094 -5.53155,95.16382 -3.75145,2.00772 -176.68726,2.12602 -180.82217,0.1237 z m 171.45843,-15.64842 c 1.43535,-3.15024 0.18101,-7.3531 -2.4915,-8.34819 -6.8926,-2.56641 -11.32785,7.2177 -4.78131,10.54752 2.97852,1.51499 5.99625,0.60242 7.27281,-2.19933 z m -153.41158,1.36503 c 2.21541,-2.21541 1.45023,-7.58993 -1.34096,-9.4188 -5.01715,-3.28736 -10.26365,2.36269 -7.60739,8.19254 0.84723,1.85947 1.88138,2.42626 4.42691,2.42626 1.82679,0 3.86144,-0.54 4.52144,-1.2 z m 0,-153 c 1.95411,-1.95411 1.48296,-7.57821 -0.73426,-8.76483 -4.38112,-2.3447 -9.06574,0.19756 -9.06574,4.91982 0,3.48248 1.70344,5.04501 5.5,5.04501 1.705,0 3.64,-0.54 4.3,-1.2 z m 152.62857,-0.37143 c 2.03797,-2.03797 2.00216,-5.29514 -0.0836,-7.59984 -4.58161,-5.06263 -12.58941,1.09693 -8.84853,6.80625 1.82605,2.7869 6.5216,3.20408 8.93209,0.79359 z"
     style="fill:#021a29" />
  <path
     style="fill:#cccccc;fill-opacity:1;fill-rule:evenodd;stroke:#cccccc;stroke-width:4.5999999;stroke-miterlimit:4;stroke-opacity:1;stroke-dasharray:none"
     d="m 139.45964,344.12363 c -2.21934,-0.97872 -4.94555,-3.73999 -7.07577,-7.16681 l -3.46542,-5.57467 -32.259559,0 -32.25957,0 -2.40409,-2.55903 c -3.16893,-3.37317 -3.03521,-6.4724 0.45839,-10.62429 l 2.86248,-3.40188 32.51929,0 32.519299,0 0,-12.71533 0,-12.71532 -30.79407,0 c -31.748909,0 -36.807799,-0.58105 -38.887149,-4.46634 -1.692,-3.16153 -1.30664,-5.04857 1.78015,-8.71701 l 2.86248,-3.40187 32.51929,0 32.519299,0 0,-12.71533 0,-12.71532 -12.99176,-0.14116 c -7.14546,-0.0777 -22.144639,-0.45079 -33.331519,-0.82926 l -20.33978,-0.6881 -2.19428,-2.94437 c -2.76887,-3.7154 -1.89695,-7.89568 2.20808,-10.58624 2.62757,-1.72218 6.67767,-1.99411 34.811379,-2.33731 l 31.83788,-0.38837 0,-12.05053 0,-12.05053 -27.3656,-0.0807 c -15.051069,-0.0444 -30.058619,-0.46313 -33.350099,-0.9305 -9.33928,-1.32616 -12.7625,-7.40194 -7.75625,-13.76636 l 2.29161,-2.91331 32.95602,0 32.956029,0 1.32016,-3.18715 c 3.16552,-7.64224 13.09508,-12.13315 23.24,-10.51091 l 4.1511,0.66379 0.70521,8.34248 c 0.89915,10.63702 0.67886,145.49409 -0.25331,155.06435 l -0.70002,7.18692 -7.73977,0.2563 c -4.8566,0.16082 -9.08467,-0.33679 -11.35013,-1.33583 z"
     id="path3775"
     inkscape:connector-curvature="0" />
  <path
     style="fill:#cccccc;fill-opacity:1;fill-rule:evenodd;stroke:none"
     d="m 67.444471,204.67949 c -2.60235,-0.69925 -3.66334,-1.37668 -4.62416,-2.95248 -1.1784,-1.93263 -0.88603,-1.99714 0.91186,-0.20119 1.73539,1.73351 4.11424,2.81404 7.41542,3.36828 l 1.85275,0.31105 -1.72582,0.0199 c -0.9492,0.0109 -2.67272,-0.23456 -3.83005,-0.54553 z"
     id="path3781"
     inkscape:connector-curvature="0" />
  <path
     style="fill:#cccccc;fill-opacity:1;fill-rule:evenodd;stroke:#cccccc;stroke-width:4.5999999;stroke-miterlimit:4;stroke-opacity:1;stroke-dasharray:none"
     d="m 341.84192,378.14434 c -0.97995,2.21879 -3.74273,4.94347 -7.17073,7.07179 l -5.57659,3.46233 -0.0179,32.25956 -0.0179,32.25956 -2.56036,2.40267 c -3.37493,3.16706 -6.47408,3.03163 -10.62404,-0.46427 l -3.40029,-2.86437 0.018,-32.51929 0.018,-32.51929 -12.71533,-0.007 -12.71532,-0.007 -0.0171,30.79407 c -0.0176,31.7489 -0.60146,36.80747 -4.4879,38.88467 -3.16247,1.69024 -5.04929,1.30384 -8.71602,-1.78498 l -3.40028,-2.86437 0.018,-32.51928 0.018,-32.5193 -12.71533,-0.007 -12.71532,-0.007 -0.14836,12.99168 c -0.0817,7.14542 -0.46307,22.14439 -0.84774,33.33106 l -0.69937,20.33939 -2.94559,2.19265 c -3.71693,2.76681 -7.89673,1.89258 -10.58501,-2.21395 -1.72072,-2.62852 -1.99041,-6.67877 -2.31801,-34.81267 l -0.37073,-31.83809 -12.05052,-0.007 -12.05053,-0.007 -0.0959,27.36555 c -0.0527,15.05104 -0.47979,30.05835 -0.94899,33.34958 -1.33133,9.33854 -7.40901,12.75839 -13.77065,7.74861 l -2.91204,-2.29322 0.0183,-32.95602 0.0183,-32.95602 -3.18642,-1.32193 c -7.64048,-3.16975 -12.12588,-13.1018 -10.49802,-23.24582 l 0.66609,-4.15073 8.34287,-0.70059 c 10.63751,-0.89325 145.49444,-0.59821 155.06418,0.33926 l 7.18653,0.70401 0.25201,7.73991 c 0.15813,4.85669 -0.34182,9.08448 -1.34212,11.34939 z"
     id="path3775-2"
     inkscape:connector-curvature="0" />
  <path
     style="fill:#cccccc;fill-opacity:1;fill-rule:evenodd;stroke:#cccccc;stroke-width:4.5999999;stroke-miterlimit:4;stroke-opacity:1;stroke-dasharray:none"
     d="m 375.06681,174.39084 c 2.21407,0.99055 4.9255,3.76635 7.03738,7.2045 l 3.43559,5.5931 32.2591,0.17233 32.25911,0.17233 2.39039,2.57184 c 3.15086,3.39005 3.00059,6.48852 -0.51514,10.62169 l -2.88061,3.38654 -32.51883,-0.17371 -32.51884,-0.17372 -0.0679,12.71514 -0.0679,12.71514 30.79363,0.1645 c 31.74846,0.1696 36.80417,0.77767 38.86274,4.67401 1.67508,3.17052 1.27965,5.05548 -1.82669,8.70738 l -2.88061,3.38653 -32.51883,-0.17372 -32.51884,-0.17372 -0.0679,12.71516 -0.0679,12.71513 12.99082,0.21056 c 7.14494,0.11587 22.14191,0.56909 33.32661,1.0073 l 20.33581,0.79675 2.17852,2.95605 c 2.74898,3.73014 1.85475,7.9057 -2.26459,10.57429 -2.63674,1.70812 -6.68823,1.95841 -34.82337,2.15132 l -31.8395,0.21829 -0.0644,12.05035 -0.0644,12.05036 27.36477,0.22688 c 15.05062,0.12481 30.05572,0.6237 33.34466,1.10865 9.33206,1.37603 12.72278,7.47001 7.6826,13.8076 l -2.30715,2.90102 -32.95555,-0.17604 -32.95556,-0.17606 -1.33716,3.18006 c -3.20629,7.62521 -13.1597,12.06302 -23.29581,10.38661 l -4.14751,-0.68595 -0.66063,-8.34614 c -0.84231,-10.64167 0.0984,-145.49563 1.08166,-155.06078 l 0.7384,-7.18308 7.74103,-0.21495 c 4.85739,-0.13488 9.08274,0.38532 11.34284,1.39645 z"
     id="path3775-7"
     inkscape:connector-curvature="0" />
  <path
     style="fill:#cccccc;fill-opacity:1;fill-rule:evenodd;stroke:#cccccc;stroke-width:4.5999999;stroke-miterlimit:4;stroke-opacity:1;stroke-dasharray:none"
     d="m 172.00239,140.28479 c 0.98913,-2.21472 3.76317,-4.92794 7.19995,-7.04204 l 5.59088,-3.43921 0.15147,-32.259202 0.15147,-32.259218 2.57029,-2.392047 c 3.38802,-3.153057 6.48658,-3.004787 10.62202,0.508269 l 3.38841,2.878422 -0.15269,32.518935 -0.15269,32.518941 12.71519,0.0597 12.71518,0.0597 0.14459,-30.79373 c 0.14907,-31.748567 0.75387,-36.804673 4.64888,-38.865757 3.16944,-1.677137 5.05465,-1.282921 8.70855,1.82106 l 3.3884,2.878421 -0.15269,32.518935 -0.15269,32.518941 12.71519,0.0597 12.71518,0.0597 0.20216,-12.99096 c 0.11125,-7.14501 0.55476,-22.142276 0.98575,-33.327257 l 0.7836,-20.336327 2.95464,-2.180431 c 3.72836,-2.751394 7.9045,-1.859856 10.57575,2.257762 1.70983,2.635627 1.96274,6.68696 2.17383,34.821974 l 0.23888,31.839349 12.0504,0.0566 12.05039,0.0566 0.20919,-27.36492 c 0.11507,-15.050699 0.60427,-30.05612 1.08708,-33.345369 1.37,-9.33295 7.46179,-12.727604 13.80263,-7.691526 l 2.90252,2.305264 -0.15474,32.95566 -0.15474,32.955661 3.18091,1.33511 c 7.62729,3.20137 12.07153,13.15191 10.40167,23.2891 l -0.68327,4.14794 -8.3457,0.66603 c -10.64112,0.8492 -145.49567,-0.004 -155.06145,-0.98139 l -7.18355,-0.73376 -0.21996,-7.74089 c -0.13801,-4.8573 0.37944,-9.08299 1.38911,-11.34373 z"
     id="path3775-76"
     inkscape:connector-curvature="0" />
  <path
     sodipodi:type="arc"
     style="fill:#ffffff;fill-opacity:1;fill-rule:evenodd;stroke:none"
     id="path3819-9"
     sodipodi:cx="-259.44827"
     sodipodi:cy="123.88227"
     sodipodi:rx="5.9444909"
     sodipodi:ry="5.7527332"
     d="m -253.50378,123.88227 a 5.9444909,5.7527332 0 1 1 -11.88898,0 5.9444909,5.7527332 0 1 1 11.88898,0 z"
     transform="matrix(1.1195841,0,0,1.1195841,624.3896,197.49254)" />
  <path
     sodipodi:type="arc"
     style="fill:#ffffff;fill-opacity:1;fill-rule:evenodd;stroke:none"
     id="path3819-92"
     sodipodi:cx="-259.44827"
     sodipodi:cy="123.88227"
     sodipodi:rx="5.9444909"
     sodipodi:ry="5.7527332"
     d="m -253.50378,123.88227 a 5.9444909,5.7527332 0 1 1 -11.88898,0 5.9444909,5.7527332 0 1 1 11.88898,0 z"
     transform="matrix(1.0471405,0,0,1.0471405,452.25322,205.86881)" />
  <path
     sodipodi:type="arc"
     style="fill:#ffffff;fill-opacity:1;fill-rule:evenodd;stroke:none"
     id="path3819-924"
     sodipodi:cx="-259.44827"
     sodipodi:cy="123.88227"
     sodipodi:rx="5.9444909"
     sodipodi:ry="5.7527332"
     d="m -253.50378,123.88227 a 5.9444909,5.7527332 0 1 1 -11.88898,0 5.9444909,5.7527332 0 1 1 11.88898,0 z"
     transform="matrix(1.0228099,0,0,1.0228099,446.45077,56.224863)" />
  <path
     sodipodi:type="arc"
     style="fill:#ffffff;fill-opacity:1;fill-rule:evenodd;stroke:none"
     id="path3819"
     sodipodi:cx="-259.44827"
     sodipodi:cy="123.88227"
     sodipodi:rx="5.9444909"
     sodipodi:ry="5.7527332"
     d="m -253.50378,123.88227 a 5.9444909,5.7527332 0 1 1 -11.88898,0 5.9444909,5.7527332 0 1 1 11.88898,0 z"
     transform="matrix(0.99885946,0,0,0.99885946,592.62136,58.96942)" />
  <rect
     style="fill:#ffcc00;fill-opacity:1;fill-rule:evenodd;stroke:none"
     id="rect3817"
     width="31.050842"
     height="39.398933"
     x="172.16946"
     y="439.81534" />
  <rect
     style="fill:#ffcc00;fill-opacity:1;fill-rule:evenodd;stroke:none"
     id="rect3817-2"
     width="31.050842"
     height="41.987663"
     x="172.15749"
     y="410.80347"
     ry="13.641031" />
  <rect
     style="fill:#ffcc00;fill-opacity:1;fill-rule:evenodd;stroke:none"
     id="rect3817-4"
     width="31.050842"
     height="39.398933"
     x="214.1824"
     y="439.78714" />
  <rect
     style="fill:#ffcc00;fill-opacity:1;fill-rule:evenodd;stroke:none"
     id="rect3817-2-8"
     width="31.050842"
     height="41.987663"
     x="214.17043"
     y="410.77527"
     ry="13.641031" />
  <rect
     style="fill:#ffcc00;fill-opacity:1;fill-rule:evenodd;stroke:none"
     id="rect3817-47"
     width="31.050842"
     height="39.398933"
     x="270.15152"
     y="439.82343" />
  <rect
     style="fill:#ffcc00;fill-opacity:1;fill-rule:evenodd;stroke:none"
     id="rect3817-2-2"
     width="31.050842"
     height="41.987663"
     x="270.13956"
     y="410.81155"
     ry="13.641031" />
  <rect
     style="fill:#ffcc00;fill-opacity:1;fill-rule:evenodd;stroke:none"
     id="rect3817-5"
     width="31.050842"
     height="39.398933"
     x="311.15192"
     y="439.8111" />
  <rect
     style="fill:#ffcc00;fill-opacity:1;fill-rule:evenodd;stroke:none"
     id="rect3817-2-7"
     width="31.050842"
     height="41.987663"
     x="311.13995"
     y="410.79922"
     ry="13.641031" />
</svg>
