<?xml version="1.0" encoding="UTF-8" standalone="no"?>
<!-- Created with Inkscape (http://www.inkscape.org/) -->

<svg
   xmlns:dc="http://purl.org/dc/elements/1.1/"
   xmlns:cc="http://creativecommons.org/ns#"
   xmlns:rdf="http://www.w3.org/1999/02/22-rdf-syntax-ns#"
   xmlns:svg="http://www.w3.org/2000/svg"
   xmlns="http://www.w3.org/2000/svg"
   xmlns:sodipodi="http://sodipodi.sourceforge.net/DTD/sodipodi-0.dtd"
   xmlns:inkscape="http://www.inkscape.org/namespaces/inkscape"
   id="svg2"
   version="1.1"
   inkscape:version="0.48.5 r10040"
   width="512"
   height="512"
   sodipodi:docname="python.svg">
  <metadata
     id="metadata8">
    <rdf:RDF>
      <cc:Work
         rdf:about="">
        <dc:format>image/svg+xml</dc:format>
        <dc:type
           rdf:resource="http://purl.org/dc/dcmitype/StillImage" />
        <dc:title />
      </cc:Work>
    </rdf:RDF>
  </metadata>
  <defs
     id="defs6" />
  <sodipodi:namedview
     pagecolor="#ffffff"
     bordercolor="#666666"
     borderopacity="1"
     objecttolerance="10"
     gridtolerance="10"
     guidetolerance="10"
     inkscape:pageopacity="0"
     inkscape:pageshadow="2"
     inkscape:window-width="1170"
     inkscape:window-height="619"
     id="namedview4"
     showgrid="false"
     inkscape:zoom="1.84375"
     inkscape:cx="158.36999"
     inkscape:cy="476.47831"
     inkscape:window-x="15"
     inkscape:window-y="39"
     inkscape:window-maximized="0"
     inkscape:current-layer="svg2" />
  <path
     style="fill:#ddea36"
     d="m 229.08808,498.70748 c -6.0019,-0.6141 -22.119,-3.19539 -30.9951,-5.21447 -19.9416,-4.53616 -38.6497,-18.34749 -46.542,-34.35979 -5.3533,-10.86092 -5.5723,-14.29377 -5.2549,-82.36364 l 0.292,-62.61273 2.7724,-7.83793 c 6.0166,-17.00938 18.3279,-29.51584 35.3075,-35.86722 5.8182,-2.17637 7.0212,-2.22445 69.9201,-2.79459 63.40531,-0.57473 64.06502,-0.60158 70.99998,-2.89002 22.56761,-7.44697 38.69786,-21.27329 48.54389,-41.61024 6.8609,-14.17119 7.19467,-16.65953 7.68789,-57.31624 l 0.44057,-36.31624 29.66382,0.36908 c 34.2138,0.42569 36.51109,0.88914 48.16383,9.71649 16.30995,12.35534 24.83897,29.48967 31.38312,63.04691 6.83087,35.02752 5.88937,63.99713 -3.25555,100.17162 -3.63823,14.39171 -7.5064,22.65729 -15.03978,32.13725 -9.50894,11.96599 -21.36804,19.87299 -35.89541,23.93307 -7.57531,2.11713 -9.11461,2.15514 -101.14244,2.49754 -64.90125,0.24148 -93.84722,0.67729 -94.75002,1.42655 -1.7338,1.43897 -1.8192,19.91471 -0.1,21.63397 0.9057,0.90568 15.3932,1.2 59.06938,1.2 l 57.86936,0 -0.36429,34.75 c -0.3441,32.82377 -0.48892,35.12469 -2.61248,41.5095 -3.9127,11.76415 -14.89153,21.62663 -29.86924,26.83207 -12.72879,4.42383 -41.87281,9.27911 -61.29271,10.21112 -26.31884,0.87137 -5.63864,0.40779 -33.64399,-0.25209 z"
     id="path3013"
     inkscape:connector-curvature="0"
     sodipodi:nodetypes="cssscsssssscsssssssccscsssccc" />
  <path
     inkscape:connector-curvature="0"
     id="path2984"
     d="m 73.292434,385.61065 c -8.0833,-1.29409 -20.68568,-7.85916 -26.9799,-14.05488 -13.50251,-13.2912 -20.58103,-30.28548 -27.21185,-65.3308 -1.95581,-10.33687 -2.27049,-15.25696 -2.27049,-35.5 0,-20.24304 0.31468,-25.16313 2.27049,-35.5 3.83525,-20.27012 7.07269,-31.59387 11.85088,-41.45131 3.85113,-7.94492 5.95677,-10.81836 13.2111,-18.02838 9.76971,-9.71006 18.24279,-14.73105 30.82929,-18.26888 7.70942,-2.16697 8.89782,-2.19875 101.800476,-2.722 l 94,-0.52943 0.28434,-11.41976 c 0.21073,-8.46341 -0.0481,-11.63073 -1,-12.23469 -0.70639,-0.44821 -27.32521,-0.82182 -59.15293,-0.83024 l -57.86859,-0.0153 0.54497,-32.249996 c 0.29974,-17.7375 1.02925,-34.5 1.62114,-37.25 1.48532,-6.900988 6.29941,-16.369878 10.26249,-20.185389 14.84102,-14.288419 50.97505,-22.523911 99.30858,-22.633921 18.9045,-0.043 22.39214,0.22426 34.95126,2.67858 24.89656,4.865329 37.01698,10.322114 48.87114,22.002498 7.77736,7.663351 14.10221,19.638472 15.65388,29.638232 0.59156,3.812313 1.01174,30.603236 1.01617,64.792156 0.008,64.58114 -0.24159,67.75331 -6.32009,80.20784 -4.38752,8.98981 -14.80276,19.76982 -23.53346,24.35767 -13.4912,7.08943 -11.67019,6.92069 -82.1389,7.611 -63.00965,0.61724 -63.55014,0.63987 -69.99324,2.93045 -13.20798,4.69557 -23.13496,11.20705 -32.74125,21.4762 -11.06403,11.82749 -18.00472,26.32522 -20.21669,42.22865 -0.57685,4.14741 -1.04882,21.90819 -1.04882,39.46839 l 0,31.92764 -25.25,-0.1169 c -13.887496,-0.0643 -27.724996,-0.51314 -30.749996,-0.99742 z M 212.00598,103.71618 c 20.96626,-12.024375 12.45445,-43.991206 -11.71355,-43.991206 -14.86791,0 -26.22997,14.087223 -22.99711,28.512912 3.49808,15.609094 20.92926,23.382064 34.71066,15.478294 z M 14.670604,270.72497 c 0,-6.325 0.16237,-8.9125 0.36082,-5.75 0.19845,3.1625 0.19845,8.3375 0,11.5 -0.19845,3.1625 -0.36082,0.575 -0.36082,-5.75 z"
     style="fill:#41bffa" />
  <path
     inkscape:connector-curvature="0"
     style="fill:#ffffff"
     d="m 323.39714,460.85543 c 6.0606,-3.02527 7.94763,-4.91213 11.10185,-11.10093 3.74976,-7.3573 3.74976,-15.35582 0,-22.71312 -3.29772,-6.47034 -5.26421,-8.37129 -11.66209,-11.27333 -12.78581,-5.79959 -27.16958,-0.45195 -33.11265,12.3107 -3.27763,7.03867 -3.27194,13.63553 0.0177,20.59418 3.32977,7.04338 7.85172,11.17683 14.93957,13.65601 6.58194,2.30223 12.00722,1.87509 18.71556,-1.47351 z"
     id="path3011-0" />
  <path
     inkscape:connector-curvature="0"
     style="fill:#ffffff"
     d="m 211.42809,105.05784 c 5.86625,-2.92824 7.69276,-4.75459 10.74582,-10.74491 3.6295,-7.121351 3.6295,-14.863362 0,-21.984713 -3.19197,-6.262837 -5.09539,-8.102821 -11.28809,-10.911798 -12.37577,-5.613597 -26.29825,-0.437453 -32.05072,11.915903 -3.17252,6.812937 -3.16702,13.198239 0.0172,19.933717 3.22298,6.817501 7.59991,10.818381 14.46045,13.218061 6.37086,2.22839 11.62216,1.81495 18.11535,-1.42626 z"
     id="path3011-0-4" />
</svg>
