<?xml version="1.0" encoding="UTF-8" standalone="no"?>
<!-- Created with Inkscape (http://www.inkscape.org/) -->

<svg
   xmlns:dc="http://purl.org/dc/elements/1.1/"
   xmlns:cc="http://creativecommons.org/ns#"
   xmlns:rdf="http://www.w3.org/1999/02/22-rdf-syntax-ns#"
   xmlns:svg="http://www.w3.org/2000/svg"
   xmlns="http://www.w3.org/2000/svg"
   xmlns:sodipodi="http://sodipodi.sourceforge.net/DTD/sodipodi-0.dtd"
   xmlns:inkscape="http://www.inkscape.org/namespaces/inkscape"
   id="svg2"
   version="1.1"
   inkscape:version="0.48.5 r10040"
   width="512"
   height="512"
   sodipodi:docname="spacefm.svg">
  <metadata
     id="metadata8">
    <rdf:RDF>
      <cc:Work
         rdf:about="">
        <dc:format>image/svg+xml</dc:format>
        <dc:type
           rdf:resource="http://purl.org/dc/dcmitype/StillImage" />
        <dc:title />
      </cc:Work>
    </rdf:RDF>
  </metadata>
  <defs
     id="defs6" />
  <sodipodi:namedview
     pagecolor="#ffffff"
     bordercolor="#666666"
     borderopacity="1"
     objecttolerance="10"
     gridtolerance="10"
     guidetolerance="10"
     inkscape:pageopacity="0"
     inkscape:pageshadow="2"
     inkscape:window-width="640"
     inkscape:window-height="480"
     id="namedview4"
     showgrid="false"
     inkscape:zoom="0.4609375"
     inkscape:cx="256"
     inkscape:cy="256"
     inkscape:window-x="15"
     inkscape:window-y="39"
     inkscape:window-maximized="0"
     inkscape:current-layer="svg2" />
  <path
     style="fill:#3c96d6"
     d="M 71.66102,483.91544 C 51.11532,478.51955 34.40122,462.23129 29.14633,442.48396 27.89012,437.76328 27.68309,411.6234 27.67289,256.45162 27.65979,57.953545 27.25134,71.198735 33.78615,58.234621 c 4.02046,-7.976005 16.17022,-20.159507 24.37487,-24.44255 12.88096,-6.724206 -0.37805,-6.300546 197.18425,-6.300546 197.99876,0 183.94942,-0.465279 197.22355,6.531557 13.01228,6.858815 22.58091,18.016653 27.86332,32.491013 l 2.72888,7.47743 0.2801,178.999995 c 0.31094,198.71115 0.72104,185.75076 -6.34423,200.49351 -6.83796,14.26844 -22.62396,26.71631 -38.6823,30.50248 -9.30022,2.19278 -358.39103,2.12417 -366.75357,-0.0721 z"
     id="path2986" />
  <path
     style="fill:#ffffff"
     d="m 235.20647,406.03697 2.45455,-2.45454 0,-61.43847 c 0,-55.10135 0.16315,-61.50107 1.58179,-62.04545 2.06472,-0.79231 61.7717,-0.79231 63.83642,0 1.41895,0.5445 1.58179,7.01743 1.58179,62.87755 0,56.69121 0.1481,62.39354 1.65288,63.64302 1.34078,1.11329 10.87965,1.42484 50.51795,1.64995 l 48.86507,0.2775 2.48205,-2.48205 2.48205,-2.48205 0,-74.54546 0,-74.54545 16.77749,0 c 17.70221,0 21.22251,-0.80512 21.22251,-4.85376 0,-2.42544 -3.1419,-5.22779 -40.5,-36.1231 -18.15,-15.01013 -33.7875,-28.1807 -34.75,-29.26793 -1.57877,-1.78336 -1.75,-4.74254 -1.75,-30.24355 0,-25.07367 -0.18681,-28.4218 -1.65369,-29.63921 -1.28549,-1.06685 -6.31329,-1.37244 -22.58062,-1.37244 -24.70167,0 -23.76569,-0.43842 -23.76569,11.13211 0,3.98742 -0.38914,7.49036 -0.86475,7.7843 -0.47562,0.29395 -16.11312,-10.91834 -34.75,-24.9162 -23.16696,-17.400315 -34.67603,-25.452192 -36.38525,-25.455531 -1.81465,-0.0035 -27.85777,20.283511 -95,74.003051 -106.8523,85.491 -102,81.49732 -102,83.95104 0,4.20603 3.37435,5.00122 21.2225,5.00122 l 16.7775,0 0,74.54545 0,74.54546 2.45454,2.45454 2.45455,2.45455 67.59091,0 67.59091,0 2.45454,-2.45455 z"
     id="path2982" />
</svg>
