<?xml version="1.0" encoding="UTF-8" standalone="no"?>
<!-- Created with Inkscape (http://www.inkscape.org/) -->

<svg
   xmlns:dc="http://purl.org/dc/elements/1.1/"
   xmlns:cc="http://creativecommons.org/ns#"
   xmlns:rdf="http://www.w3.org/1999/02/22-rdf-syntax-ns#"
   xmlns:svg="http://www.w3.org/2000/svg"
   xmlns="http://www.w3.org/2000/svg"
   xmlns:sodipodi="http://sodipodi.sourceforge.net/DTD/sodipodi-0.dtd"
   xmlns:inkscape="http://www.inkscape.org/namespaces/inkscape"
   id="svg2"
   version="1.1"
   inkscape:version="0.48.5 r10040"
   width="512"
   height="512"
   sodipodi:docname="utilities-find.svg">
  <metadata
     id="metadata8">
    <rdf:RDF>
      <cc:Work
         rdf:about="">
        <dc:format>image/svg+xml</dc:format>
        <dc:type
           rdf:resource="http://purl.org/dc/dcmitype/StillImage" />
        <dc:title />
      </cc:Work>
    </rdf:RDF>
  </metadata>
  <defs
     id="defs6" />
  <sodipodi:namedview
     pagecolor="#ffffff"
     bordercolor="#666666"
     borderopacity="1"
     objecttolerance="10"
     gridtolerance="10"
     guidetolerance="10"
     inkscape:pageopacity="0"
     inkscape:pageshadow="2"
     inkscape:window-width="1268"
     inkscape:window-height="661"
     id="namedview4"
     showgrid="false"
     inkscape:zoom="0.70710678"
     inkscape:cx="-155.08472"
     inkscape:cy="245.06275"
     inkscape:window-x="15"
     inkscape:window-y="39"
     inkscape:window-maximized="0"
     inkscape:current-layer="svg2" />
  <path
     style="fill:#f3f4f4"
     d="m 105.67473,232.07139 c -2.36357,-8.3012 -4.19043,-23.95615 -4.19043,-35.90931 0,-61.5857 58.18115,-105.063782 114.53752,-85.59255 12.08249,4.17452 20.23654,9.52955 31.36202,20.59641 10.58801,10.53224 17.54784,21.04504 20.85808,31.50611 3.26681,10.3238 3.87186,10.13179 -34.70737,11.01392 -27.58855,0.63083 -34.10873,1.12607 -42.30226,3.21309 -23.17955,5.90419 -42.19883,16.398 -57.55858,31.75775 -7.47144,7.47144 -11.1281,11.88835 -20.84572,25.17969 -1.77445,2.42702 -3.71407,4.41277 -4.31027,4.41277 -0.59618,0 -1.87553,-2.78005 -2.84299,-6.17788 z"
     id="path2996"
     inkscape:connector-curvature="0" />
  <path
     inkscape:connector-curvature="0"
     id="path2994"
     d="m 415.22089,465.32884 c -5.92957,-2.23293 -11.51955,-6.20442 -73.51056,-67.8438 l -67.66255,-67.27876 -13.53251,6.79062 c -50.16308,25.17179 -111.32441,20.45635 -156.87,-12.09444 C 70.79058,301.42169 47.963246,265.4827 40.907854,226.1297 38.035232,210.10697 38.302328,185.51682 41.516911,170.05885 47.822261,139.73829 60.451988,115.1579 80.7361,93.729142 132.48106,39.064152 216.32727,29.897147 278.82712,72.071611 c 21.31873,14.385735 40.31493,36.163149 51.50357,59.044179 21.26986,43.49737 21.30567,92.47966 0.0994,136.03448 l -6.48589,13.32118 2.92674,3.15318 c 1.60971,1.73425 31.49634,32.01274 66.41476,67.28552 42.16376,42.59166 64.41575,65.91092 66.25012,69.42766 3.93516,7.54427 3.97588,23.01479 0.0799,30.34961 -8.47935,15.96356 -27.46246,21.01779 -44.39486,14.64142 z m -209.215,-162.74686 c 23.07131,-3.15452 43.01221,-13.13254 59.80471,-29.92504 6.80279,-6.80279 12.57218,-13.95766 16.13088,-20.00458 28.54517,-48.50378 14.19337,-109.6727 -33.0014,-140.6556 -33.99867,-22.319771 -79.69543,-22.085212 -113.7286,0.58376 -29.62672,19.73392 -46.50026,51.30069 -46.50026,86.992 0,24.27415 6.37391,43.27324 21.01717,62.64714 22.68005,30.00704 59.40618,45.4037 96.2775,40.36232 z"
     style="fill:#d5d7d8"
     sodipodi:nodetypes="sscsssssssscsssssssssssss" />
  <path
     inkscape:connector-curvature="0"
     id="path2984"
     d="m 424.90289,469.03502 c -3.00658,-0.39058 -8.38955,-1.15984 -10.68386,-2.25176 -2.18919,-1.04189 -34.04715,-30.26932 -70.25869,-67.04639 l -67.18178,-68.23096 9.57423,-5.94071 c 9.80954,-6.08672 23.68671,-20.38703 31.42553,-30.29638 3.82277,-4.89493 9.98173,-11.45503 10.37708,-11.26846 0.39535,0.18656 28.86273,30.78288 66.57035,67.99184 65.93576,65.06377 68.63398,70.60932 70.51045,76.86448 2.41439,8.04836 2.43915,11.20774 0.14719,18.77715 -4.70376,15.53453 -23.81894,23.56572 -40.4805,21.40119 z"
     style="fill:#356894"
     sodipodi:nodetypes="ssscsscssss" />
</svg>
