<?xml version="1.0" encoding="UTF-8" standalone="no"?>
<!-- Created with Inkscape (http://www.inkscape.org/) -->

<svg
   xmlns:dc="http://purl.org/dc/elements/1.1/"
   xmlns:cc="http://creativecommons.org/ns#"
   xmlns:rdf="http://www.w3.org/1999/02/22-rdf-syntax-ns#"
   xmlns:svg="http://www.w3.org/2000/svg"
   xmlns="http://www.w3.org/2000/svg"
   xmlns:sodipodi="http://sodipodi.sourceforge.net/DTD/sodipodi-0.dtd"
   xmlns:inkscape="http://www.inkscape.org/namespaces/inkscape"
   width="128"
   height="128"
   id="svg4490"
   version="1.1"
   inkscape:version="0.48.5 r10040"
   viewBox="0 0 128 128"
   sodipodi:docname="4kvideodownloader.svg">
  <defs
     id="defs4492" />
  <sodipodi:namedview
     id="base"
     pagecolor="#ffffff"
     bordercolor="#666666"
     borderopacity="1.0"
     inkscape:pageopacity="0.0"
     inkscape:pageshadow="2"
     inkscape:zoom="2.8"
     inkscape:cx="100.60509"
     inkscape:cy="25.187488"
     inkscape:document-units="px"
     inkscape:current-layer="layer1"
     showgrid="true"
     inkscape:showpageshadow="false"
     borderlayer="true"
     fit-margin-top="0"
     fit-margin-left="0"
     fit-margin-right="0"
     fit-margin-bottom="0"
     inkscape:window-width="1366"
     inkscape:window-height="744"
     inkscape:window-x="0"
     inkscape:window-y="24"
     inkscape:window-maximized="1"
     inkscape:snap-nodes="false">
    <inkscape:grid
       type="xygrid"
       id="grid3001"
       empspacing="5"
       visible="true"
       enabled="true"
       snapvisiblegridlinesonly="true" />
  </sodipodi:namedview>
  <metadata
     id="metadata4495">
    <rdf:RDF>
      <cc:Work
         rdf:about="">
        <dc:format>image/svg+xml</dc:format>
        <dc:type
           rdf:resource="http://purl.org/dc/dcmitype/StillImage" />
        <dc:title></dc:title>
      </cc:Work>
    </rdf:RDF>
  </metadata>
  <g
     inkscape:label="Capa 1"
     inkscape:groupmode="layer"
     id="layer1"
     transform="translate(-213.14285,-416.93362)">
    <path
       inkscape:connector-curvature="0"
       style="fill:#55d400;fill-opacity:1;stroke:none"
       d="m 285.81104,440.43365 c -12.23548,0 -23.14921,7.20705 -28.04809,18.42357 -8.40193,1.07525 -15.52799,6.43845 -18.84473,14.29639 -12.62539,0.52325 -22.77537,11.13442 -22.77537,23.8928 0,13.17124 10.58477,23.88722 23.69629,23.88722 l 73.35739,0 c 13.1125,0 23.69629,-10.71598 23.69629,-23.88722 0,-12.02698 -8.68549,-22.02062 -20.43383,-23.64011 0.0532,-0.72479 0.0842,-1.46329 0.0842,-2.18434 -3e-5,-17.00073 -13.81374,-30.78831 -30.73219,-30.78831 z m -9.2932,37.37491 11.49999,0 0,22.99999 8.625,0 -14.375,11.5 -14.37499,-11.5 8.625,0 z"
       id="path510"
       sodipodi:nodetypes="sccsssscsscccccccc" />
    <path
       inkscape:connector-curvature="0"
       style="fill:#2e420b;fill-opacity:0.31372549;stroke:none"
       d="m 316.49269,470.2225 c -0.0144,0.29661 -0.0115,0.59357 -0.0336,0.88719 0.0259,0.003 0.0518,0.0144 0.0785,0.0172 -9.5e-4,-0.30472 -0.0351,-0.60148 -0.0448,-0.90404 z m 20.34398,25.61106 c -0.56884,12.66372 -10.89397,22.79786 -23.64014,22.79786 l -73.35739,0 c -12.72823,0 -23.04599,-10.10718 -23.64014,-22.74731 -0.0201,0.38683 -0.0561,0.77124 -0.0561,1.16236 0,13.17123 10.5848,23.88719 23.69629,23.88719 l 73.35739,0 c 13.1125,0 23.69629,-10.71596 23.69629,-23.88719 0,-0.409 -0.0362,-0.80885 -0.0561,-1.21291 z"
       id="path4165" />
    <path
       style="fill:#86ab18;fill-opacity:1;stroke:none"
       d="m 288.01783,480.68355 0,-2.87499 -11.49999,0 0,2.87499 0,20.125 -8.625,0 3.57186,2.875 6.47604,0 0.0403,-23 z"
       id="path3003"
       inkscape:connector-curvature="0"
       sodipodi:nodetypes="cccccccccc" />
    <path
       style="fill:none;stroke:none"
       d="m 288.01783,500.80855 8.625,0 -2.875,2.875 -5.75,0 z"
       id="path3773"
       inkscape:connector-curvature="0" />
    <path
       style="fill:#86ab18;fill-opacity:1;stroke:none"
       d="m 288.01783,500.80855 8.625,0 -3.60104,2.875 -3.77606,-0.1815 z"
       id="path3775"
       inkscape:connector-curvature="0"
       sodipodi:nodetypes="ccccc" />
  </g>
</svg>
