<?xml version="1.0" encoding="UTF-8" standalone="no"?>
<!-- Created with Inkscape (http://www.inkscape.org/) -->

<svg
   xmlns:dc="http://purl.org/dc/elements/1.1/"
   xmlns:cc="http://creativecommons.org/ns#"
   xmlns:rdf="http://www.w3.org/1999/02/22-rdf-syntax-ns#"
   xmlns:svg="http://www.w3.org/2000/svg"
   xmlns="http://www.w3.org/2000/svg"
   xmlns:xlink="http://www.w3.org/1999/xlink"
   xmlns:sodipodi="http://sodipodi.sourceforge.net/DTD/sodipodi-0.dtd"
   xmlns:inkscape="http://www.inkscape.org/namespaces/inkscape"
   width="96"
   height="96"
   id="svg2"
   version="1.1"
   inkscape:version="0.48.5 r10040"
   sodipodi:docname="bluegriffon.svg">
  <defs
     id="defs4">
    <linearGradient
       id="linearGradient3762">
      <stop
         style="stop-color:#0055d4;stop-opacity:1;"
         offset="0"
         id="stop3764" />
      <stop
         style="stop-color:#7700d4;stop-opacity:1;"
         offset="1"
         id="stop3766" />
    </linearGradient>
    <linearGradient
       inkscape:collect="always"
       xlink:href="#linearGradient3762"
       id="linearGradient3768"
       x1="40"
       y1="997.36218"
       x2="95"
       y2="957.36218"
       gradientUnits="userSpaceOnUse" />
  </defs>
  <sodipodi:namedview
     id="base"
     pagecolor="#ffffff"
     bordercolor="#666666"
     borderopacity="1.0"
     inkscape:pageopacity="0.0"
     inkscape:pageshadow="2"
     inkscape:zoom="5.90625"
     inkscape:cx="43.40344"
     inkscape:cy="48"
     inkscape:document-units="px"
     inkscape:current-layer="layer1"
     showgrid="true"
     inkscape:snap-page="true"
     inkscape:snap-global="false"
     inkscape:snap-center="true"
     inkscape:snap-object-midpoints="false"
     showguides="true"
     inkscape:guide-bbox="true"
     inkscape:snap-bbox="true"
     inkscape:object-paths="true"
     inkscape:object-nodes="true"
     inkscape:window-width="1366"
     inkscape:window-height="744"
     inkscape:window-x="0"
     inkscape:window-y="24"
     inkscape:window-maximized="1"
     inkscape:snap-midpoints="false"
     inkscape:snap-grids="true"
     inkscape:snap-to-guides="false">
    <inkscape:grid
       type="xygrid"
       id="grid3002"
       empspacing="5"
       visible="true"
       enabled="true"
       snapvisiblegridlinesonly="true" />
  </sodipodi:namedview>
  <metadata
     id="metadata7">
    <rdf:RDF>
      <cc:Work
         rdf:about="">
        <dc:format>image/svg+xml</dc:format>
        <dc:type
           rdf:resource="http://purl.org/dc/dcmitype/StillImage" />
        <dc:title />
      </cc:Work>
    </rdf:RDF>
  </metadata>
  <g
     inkscape:label="Layer 1"
     inkscape:groupmode="layer"
     id="layer1"
     transform="translate(0,-956.36218)">
    <path
       sodipodi:type="arc"
       style="fill:#cccccc;fill-opacity:1;fill-rule:nonzero;stroke:none"
       id="path2995"
       sodipodi:cx="55"
       sodipodi:cy="51"
       sodipodi:rx="45"
       sodipodi:ry="45"
       d="M 100,51 C 100,75.852814 79.852814,96 55,96 30.147186,96 10,75.852814 10,51 10,26.147186 30.147186,6 55,6 c 24.852814,0 45,20.147186 45,45 z"
       transform="translate(-6.6137566,953.0553)" />
    <path
       style="fill:#000080;fill-opacity:0.80000001"
       d="m 63.83986,969.57576 c -0.489115,0.0364 -0.938962,0.28816 -1.323109,0.76354 -0.433803,0.53684 -0.644017,1.26628 -0.580311,1.90887 0.09411,0.94951 0.37179,1.73301 1.485596,4.00862 0.612172,1.25072 0.810348,1.74172 1.021346,2.744 0.297976,1.41546 0.419915,2.65159 0.417824,4.29494 -0.0022,1.51335 -0.09074,2.61904 -0.324974,4.0564 -0.205643,1.26191 -0.575961,2.79314 -0.649949,2.76777 -0.112914,-0.0381 -0.246667,-1.2178 -0.348185,-2.93483 -0.11953,-2.02176 -0.199635,-2.83008 -0.3714,-3.62687 -0.456983,-2.11995 -1.471938,-3.02987 -3.15689,-2.76785 -0.472757,0.0735 -1.252125,0.31456 -1.323108,0.40563 -0.03039,0.039 0.133297,0.66907 0.603523,2.05203 0.369447,1.08656 0.696346,1.98457 0.696373,2.00428 9.1e-5,0.0686 -0.267263,0.16859 -0.324974,0.11936 -0.02973,-0.025 -0.311806,-0.42344 -0.603524,-0.85902 -0.615614,-0.91917 -0.924702,-1.37041 -1.34632,-1.885 -1.134172,-1.38428 -2.369126,-2.03272 -3.644351,-1.95659 -0.465361,0.0279 -1.157064,0.18049 -1.276687,0.28633 -0.08299,0.0735 -0.05532,0.19519 1.53202,6.13229 l 1.624871,6.06058 -0.371399,3.72232 c -0.200481,2.0498 -0.39851,3.76234 -0.417824,3.81794 -0.03439,0.099 -0.04048,0.1192 -0.696367,0.1192 -0.368814,0 -1.109416,-0.032 -1.648082,-0.072 -1.190248,-0.088 -2.67425,-0.099 -3.180103,-0.024 -0.514227,0.076 -1.274694,0.2787 -1.973062,0.5249 -2.181074,0.7689 -4.068894,2.1333 -5.66383,4.08 -1.470074,1.7946 -2.720155,4.0775 -3.946113,7.2299 -0.367954,0.9462 -1.182025,3.2034 -1.36953,3.8178 -0.463901,1.52 -0.701047,3.144 -0.742802,4.8915 -0.03714,1.5562 0.08037,2.8228 0.394614,4.1279 0.368564,1.5309 0.911707,2.7223 1.67128,3.7223 0.181854,0.2395 0.36998,0.4472 0.580313,0.6681 0.0076,0.011 0.0159,0.016 0.02309,0.024 0.0065,0.011 0.01655,0.017 0.02309,0.024 0.0044,0.011 -0.0044,0.02 0,0.024 0.977813,1.0079 2.033092,1.601 3.38903,1.885 0.969112,0.2031 2.669415,0.2393 2.669415,0.048 0,-0.033 -0.289726,-0.9441 -0.649936,-2.0045 -0.360222,-1.0603 -0.649828,-1.9296 -0.649948,-1.9565 -2.51e-4,-0.048 0.174785,-0.167 0.255333,-0.167 0.02146,0 0.235664,0.3224 0.487458,0.7158 1.013622,1.5838 1.806412,2.5044 2.692645,3.1259 0.526207,0.3687 1.215884,0.6531 1.764145,0.7395 0.338614,0.053 1.151933,0.048 1.485592,-0.024 0.41191,-0.089 0.808256,-0.2237 0.858865,-0.2865 0.0065,-0.011 -0.03158,-0.058 -0.0465,-0.095 0.0076,0.028 -0.03594,0.048 -0.06959,0.072 -0.04334,0.029 -0.09758,0.05 -0.255333,0.096 -0.07242,0.021 -0.136853,0.031 -0.208917,0.047 0.233617,-0.062 0.428289,-0.1226 0.46425,-0.1433 0.0379,-0.023 -0.206815,-0.4841 -0.696375,-1.2884 0.22999,0.3772 0.566241,0.8464 0.626739,0.9544 -0.146665,-0.279 -0.404786,-0.7596 -1.044562,-1.7895 -1.343534,-2.1632 -1.397541,-2.238 -1.36953,-2.2669 0.0098,-0.011 0.224763,0.1478 0.487458,0.358 1.714646,1.3721 3.469926,2.3326 5.06031,2.7917 1.991731,0.5749 3.868047,0.2907 5.292437,-0.8113 0.450738,-0.3487 0.905701,-0.8091 0.882073,-0.8827 -0.01089,-0.035 -1.652101,-0.7666 -3.667566,-1.6225 -2.015457,-0.8561 -3.681367,-1.5698 -3.690777,-1.5989 -0.02701,-0.084 1.570301,0 3.296165,0.191 0.552544,0.06 1.44372,0.154 1.996272,0.2147 1.776837,0.1955 2.189277,0.2393 3.412226,0.2386 1.298331,-7e-4 1.845503,-0.073 2.831917,-0.2863 1.536545,-0.3328 3.202264,-1.1289 4.549635,-2.1713 0.548563,-0.4245 0.798212,-0.6862 0.766011,-0.7398 -0.01765,-0.028 -2.177624,-0.022 -6.360206,0 -4.30591,0.022 -6.264075,0.032 -6.336995,0 -0.01203,0 -0.01635,0 -0.02317,0 -0.02778,-0.045 0.41804,-1.358 0.487463,-1.4315 0.01986,-0.022 0.180656,0.04 0.348186,0.1431 2.900402,1.7712 9.141406,1.3203 13.67212,-1.0021 1.300079,-0.6665 2.168024,-1.2948 3.017613,-2.1714 1.016251,-1.0484 1.6115,-2.1956 1.694508,-3.2928 0.02444,-0.3236 0.0091,-0.334 -0.06959,-0.334 -0.09672,0 -1.683336,0.4454 -2.530155,0.7157 -0.312309,0.099 -1.114679,0.354 -1.787356,0.5728 -4.393745,1.429 -6.201672,1.8153 -8.588596,1.8611 -1.364318,0.026 -2.592611,-0.046 -2.553369,-0.167 0.04436,-0.1368 1.898415,-0.794 3.156891,-1.1215 1.074334,-0.2795 1.633108,-0.4118 4.131813,-0.9305 3.69373,-0.7667 5.05238,-1.121 6.685177,-1.7897 3.443602,-1.4102 5.39713,-3.6942 6.012018,-7.0388 0.160058,-0.8702 0.242011,-2.41 0.139274,-2.41 -0.02146,0 -1.792659,1.031 -3.946112,2.2668 -2.153608,1.2357 -3.943253,2.2356 -3.969325,2.219 -0.05957,-0.037 -0.307898,-0.6141 -0.278549,-0.6443 0.01188,-0.012 0.282879,-0.1675 0.626736,-0.3579 1.651507,-0.9137 2.90869,-1.8735 4.271085,-3.2688 2.546127,-2.6079 4.046755,-5.62794 4.410362,-8.85256 0.09785,-0.86799 0.0624,-2.44976 -0.0696,-3.245 -0.156322,-0.94215 -0.516349,-2.34836 -0.626736,-2.38615 -0.02496,-0.0109 -1.555708,2.29707 -3.389015,5.08237 -3.86055,5.86524 -4.078204,6.16364 -4.108599,6.13234 -0.06937,-0.072 0.845161,-1.74674 2.39088,-4.39044 0.669172,-1.14449 1.400382,-2.39752 1.601657,-2.76791 0.495217,-0.91134 1.196068,-2.41393 1.462383,-3.12586 0.935599,-2.50062 1.07087,-4.63074 0.417824,-6.65713 -0.189644,-0.58846 -0.665503,-1.54237 -1.021347,-2.09976 -0.352813,-0.55264 -0.873574,-1.25957 -0.928496,-1.24075 -0.0248,0.009 -1.075224,2.59543 -2.344457,5.72662 l -2.321242,5.67886 -3.203313,5.63123 c -3.202197,5.62714 -3.332556,5.88004 -3.365802,5.84614 -0.02665,-0.028 0.256801,-0.8589 0.557099,-1.6227 0.751188,-1.9107 1.529571,-3.42604 3.644351,-7.15834 1.350633,-2.38376 1.960798,-3.51694 2.506939,-4.62899 1.701334,-3.46467 2.513613,-6.25273 2.715855,-9.30579 0.04093,-0.62054 0.041,-0.90827 0,-1.31236 -0.213763,-2.10793 -0.931373,-4.73492 -1.694507,-6.20381 -0.443377,-0.85342 -1.024763,-1.53353 -1.53202,-1.78957 -0.229561,-0.11586 -0.303744,-0.14315 -0.673158,-0.14315 -0.380782,0 -0.451564,0.0268 -0.742798,0.16702 -0.710757,0.34242 -0.905725,0.86108 -0.905285,2.24292 2.08e-4,0.74104 0.05098,1.32516 0.278549,2.98259 l 0.162486,1.16919 -0.02322,1.31235 c -0.02439,1.31051 -0.05414,1.73579 -0.185698,2.95874 -0.28934,2.68974 -0.994037,5.78315 -2.042693,9.06713 -0.395599,1.23882 -0.979599,2.97393 -1.044561,3.07805 -0.0047,0.0109 -0.01949,0 -0.02322,0 -0.01964,-0.22086 0.335342,-1.93267 0.998135,-4.7244 1.242297,-5.23266 1.550218,-7.0959 1.601657,-9.73529 0.03554,-1.82653 -0.08775,-3.10202 -0.417824,-4.58127 -0.197866,-0.88665 -0.289758,-1.11215 -0.580311,-1.71798 -0.814539,-1.69844 -2.227289,-3.49113 -3.389014,-4.27108 -0.598843,-0.40204 -1.135755,-0.5853 -1.62487,-0.54881 z m -13.091817,61.99044 c -0.01198,0 -0.0033,0.046 0.02309,0.096 0.0257,0.049 0.03452,0.096 0.0465,0.096 0.0098,0 0.01416,-0.037 0,-0.072 -0.01339,-0.028 -0.0501,-0.083 -0.06959,-0.1194 z m -2.622999,-47.69781 c -0.421798,0.005 -0.877836,0.0501 -1.137416,0.0954 -1.633936,0.2851 -2.919183,0.89875 -3.597925,1.74187 -0.53149,0.66009 -0.685245,1.46872 -0.417812,2.26669 0.03529,0.10564 0.0636,0.22086 0.0465,0.23861 -0.01721,0.0185 -1.621106,0.1968 -3.551509,0.40568 -1.575779,0.17033 -2.443966,0.29209 -2.90155,0.35787 -0.06186,0.0109 -0.367214,0.0425 -0.394615,0.0479 -0.01819,0 -0.25359,0.0218 -0.255333,0.024 -0.0044,0 0.02244,0.0534 0.02309,0.0719 10e-4,0.0261 -0.0054,0.0425 0,0.0479 0.01753,0.14778 0.07983,0.46656 0.255333,1.09756 0.310702,1.11619 0.373019,1.33619 0.32498,1.33619 -0.01089,0 -0.172357,-0.10902 -0.348188,-0.23862 -0.726498,-0.53571 -1.382316,-0.80123 -2.089113,-0.8351 -0.780375,-0.037 -1.27831,0.18144 -1.833791,0.73959 -0.01198,0.012 -0.03441,0.012 -0.0465,0.024 -0.278639,0.28686 -0.374423,0.4255 -0.557093,0.81125 -0.266158,0.56207 -0.404645,1.05531 -0.441042,1.71801 -0.04247,0.77411 0.125854,1.76778 0.394615,2.40996 l 0.09279,0.21487 0.371406,0 c 0.230219,0 0.312793,-7.6e-4 0.394604,-0.0719 l -0.0465,0 c 0.01612,-0.0109 0.02494,-0.0218 0.0465,-0.0479 l 0.02309,-0.0479 0.09279,-0.16712 c 0.05151,-0.0817 0.129197,-0.1406 0.185709,-0.21465 -0.06393,0.086 -0.129774,0.16717 -0.185709,0.26246 0.03224,-0.0381 0.07558,-0.0316 0.116063,-0.0947 0.382624,-0.60292 1.056313,-1.05564 1.880207,-1.26474 0.560676,-0.14224 1.602396,-0.1418 2.29803,0 1.91899,0.3913 3.481907,1.50537 4.062175,2.7918 l -0.371406,0.095 c -0.346586,0.027 -1.080011,0.1471 -1.856988,0.3102 -3.537297,0.7427 -6.383599,2.02653 -8.031496,3.65073 -0.332984,0.3283 -0.76601,0.8641 -0.76601,0.9306 0,0.015 0.01634,0.023 0.0465,0.024 0.128293,0 10.615255,-3.00103 10.747349,-3.07803 -0.01263,0 -2.358485,0.66643 -5.2228,1.47943 -2.864293,0.8129 -5.26853,1.4851 -5.338851,1.5032 l 0.06959,-0.047 c 0.08331,-0.017 2.468829,-0.6948 5.315643,-1.5031 l 5.176372,-1.45553 c -3.16e-4,5e-4 3.16e-4,0.024 0,0.024 6.6e-5,-1e-4 0.16469,0.036 0.208906,0.047 -0.08506,0.1275 -0.183901,0.2598 -0.324968,0.4054 -0.335032,0.34613 -0.78007,0.65193 -1.53202,1.07383 -0.264253,0.1483 -0.69864,0.4172 -0.974927,0.5728 -0.276265,0.1554 -0.681215,0.3881 -0.882073,0.5248 -0.397947,0.271 -0.882072,0.7274 -0.882072,0.8352 0,0.093 0.239988,0.088 1.299895,-0.024 0.45459,-0.048 0.815203,-0.1096 1.207052,-0.1671 1.900584,-0.2788 3.18692,-0.6723 4.178237,-1.3362 0.942222,-0.6309 1.637453,-1.61823 1.903416,-2.67243 0.04313,-0.1711 0.09007,-0.2863 0.116062,-0.2863 0.02603,0 0.198996,0.082 0.371396,0.1909 1.118924,0.7158 2.037938,0.9789 2.808707,0.8113 0.688882,-0.1499 1.35828,-0.5896 2.576582,-1.6704 0.323063,-0.2865 0.598718,-0.5249 0.62674,-0.5249 0.02799,0 0.272638,0.5582 0.557093,1.2408 0.284455,0.6827 0.566448,1.2906 0.60352,1.3362 0.06535,0.081 0.101611,0.083 1.137417,-0.095 0.588578,-0.1002 1.090497,-0.2156 1.114192,-0.2387 0.06054,-0.059 -0.165752,-0.8589 -0.371401,-1.36 -0.331383,-0.8071 -0.891537,-1.5236 -1.578448,-1.98039 -0.411691,-0.27385 -1.047295,-0.58739 -2.042686,-0.97837 -1.083681,-0.42561 -1.622979,-0.69689 -2.13554,-1.04986 -0.507769,-0.3497 -1.014101,-0.79895 -0.951719,-0.85895 0.02407,-0.024 0.202415,-0.098 0.394615,-0.16707 1.530833,-0.54595 2.585011,-1.58002 3.272957,-3.24511 0.283071,-0.68513 0.502214,-1.56216 0.882061,-3.29281 0.172346,-0.78511 0.403861,-1.65801 0.487469,-1.95654 0.08364,-0.29855 0.152035,-0.58627 0.139271,-0.62038 -0.0011,-0.004 -0.05554,0.0207 -0.06959,0.0237 -0.152187,0.0341 -1.022367,0.45381 -3.156895,1.55102 -1.756706,0.90295 -3.226529,1.6543 -3.249738,1.64646 -0.02309,-0.0109 0.526012,-0.53583 1.23026,-1.16923 0.704249,-0.63341 1.338656,-1.21232 1.39275,-1.2647 0.03474,-0.0337 0.03169,-0.075 0.0465,-0.11931 0.02211,-0.0664 0.0465,-0.15573 0.0465,-0.3579 0,-0.37321 10e-4,-0.37899 -0.116074,-0.42951 -0.09529,-0.0409 -0.483483,-0.0529 -0.905269,-0.0478 z m -7.892225,6.91965 c 0.110399,-0.0152 0.215418,0 0.324968,0 1.021572,0.0425 1.69451,0.95436 1.69451,0.95436 -2.260642,1.43311 -3.52829,-0.31006 -3.52829,-0.31006 0,0 0.736028,-0.53572 1.508812,-0.6443 z m -22.051812,7.30152 c -0.04051,-0.041 -0.889108,0.054 -1.23026,0.1432 -0.969231,0.2494 -1.537117,0.8524 -1.880197,1.93274 -0.06153,0.1939 -0.116062,0.3833 -0.116062,0.4296 0,0.1045 0.03823,0.1078 0.417811,0 0.79034,-0.2254 1.399949,-0.60864 1.903427,-1.14544 0.411931,-0.4394 0.983966,-1.2793 0.905281,-1.3601 z m 3.435435,0.334 c -0.05957,-0.011 -0.173925,0.012 -0.371395,0.024 -0.520032,0.034 -1.180087,0.1999 -1.601656,0.4058 -1.202989,0.5872 -1.917943,1.63364 -2.251613,3.31664 -0.195228,0.9848 -0.22069,1.5342 -0.232125,4.1518 -0.0065,1.3655 -0.02908,2.488 -0.0465,2.5054 -0.01732,0.019 -0.08996,-0.033 -0.162489,-0.1193 -0.27155,-0.3238 -0.623854,-0.8829 -1.114187,-1.885 -0.180612,-0.3692 -0.311464,-0.6254 -0.464261,-0.9067 -0.08233,-0.1518 -0.189139,-0.4342 -0.232114,-0.5011 -0.26606,-0.4144 -0.758179,-0.9165 -1.090989,-1.1453 -0.284607,-0.1958 -0.733283,-0.3579 -1.021354,-0.3579 -0.831953,0 -1.566631,0.7653 -1.787353,1.8849 -0.212108,1.0762 0.201075,1.9769 1.067781,2.3146 0.141874,0.054 0.366952,0.087 0.789229,0.095 0.321734,0.011 0.609935,0.027 0.626729,0.047 0.01677,0.02 0.0966,0.2081 0.162489,0.4057 0.192842,0.5778 0.657833,1.5166 1.369531,2.7439 0.751993,1.2967 1.233745,2.2354 1.439166,2.8157 0.220264,0.6216 1.252248,4.7288 1.392749,5.5356 0.12227,0.7019 0.159832,1.3338 0.09279,1.6703 -0.02951,0.1481 -0.161226,0.5837 -0.301771,0.9304 -0.389877,0.9622 -0.4294,1.3164 -0.16249,2.076 0.530988,1.5111 1.463757,2.5512 2.808718,3.1255 0.340248,0.1454 0.405691,0.151 0.487447,-0.047 0.183171,-0.4448 0.406508,-1.4297 0.487469,-2.0998 0.132573,-1.0967 0.04716,-1.8566 -0.510666,-4.3904 -0.258154,-1.1722 -0.462061,-2.6008 -0.371406,-2.6008 0.02113,0 0.19135,0.1113 0.371406,0.2624 0.180046,0.1513 0.770432,0.6406 1.323103,1.0739 1.442401,1.1303 1.626737,1.2867 3.272946,2.9588 0.622111,0.6316 1.074773,1.0552 1.462385,1.4077 0.7709,0.7013 1.215601,1.0133 1.857,1.2408 0.345584,0.1224 0.493426,0.1426 0.789218,0.1431 0.722,8e-4 1.052871,-0.3055 1.090989,-1.0259 0.0269,-0.5089 -0.112044,-1.1013 -0.510677,-1.9328 -0.389779,-0.813 -0.718472,-1.2408 -1.323103,-1.8372 -0.703639,-0.6944 -1.351899,-1.1877 -3.458655,-2.577 -1.793637,-1.1828 -2.600389,-1.7874 -3.296165,-2.5055 -0.917021,-0.9461 -1.302335,-1.7212 -1.346322,-2.744 -0.03627,-0.8421 0.166933,-1.3862 0.696374,-1.9328 0.542838,-0.5603 1.146543,-0.8754 2.901562,-1.5032 1.854287,-0.6634 2.547536,-1.074 2.855123,-1.718 0.107056,-0.224 0.11615,-0.2923 0.116063,-0.6681 -1.09e-4,-0.3611 -0.0054,-0.4493 -0.09279,-0.6204 -0.403992,-0.7916 -1.62384,-1.2882 -3.597926,-1.4077 l -0.487468,0 -1.694499,1.7179 c -0.921639,0.9462 -1.680635,1.6845 -1.69451,1.6703 -0.01383,-0.015 0.399733,-2.2132 0.905292,-4.9153 0.505547,-2.7021 0.928488,-4.96514 0.928488,-5.01094 0,-0.038 -0.01089,-0.061 -0.06959,-0.072 z m 3.180103,3.17354 0.02309,0.1672 c 0.02734,0.3018 0.178053,1.0111 0.30176,1.3599 0.390509,1.1014 1.071844,1.7734 2.181968,2.1474 0.263828,0.089 0.388973,0.099 0.417823,0.047 0.04128,-0.074 -0.07634,-1.1261 -0.162479,-1.5033 -0.255235,-1.1175 -0.902602,-1.7854 -2.019489,-2.0759 -0.21788,-0.057 -0.461004,-0.1106 -0.557104,-0.1193 l -0.185698,-0.024 z m 5.3853,0.7397 -0.139281,0.167 0.06959,-0.1192 c 0.0087,0 0.04792,-0.025 0.06959,-0.047 z m -20.5430115,3.9133 c -0.045741,0.019 -0.063602,0.071 -0.092789,0.1431 -0.07874,0.1959 -0.1857086,0.9277 -0.1857086,1.2169 0,0.7604 0.3324502,1.3907 0.9749271,1.8373 0.248798,0.1728 0.279946,0.181 0.278552,0.072 -0.0022,-0.1949 -0.346804,-3.1802 -0.371396,-3.2212 -0.01525,-0.025 -0.157011,-0.047 -0.324979,-0.047 -0.1517187,0 -0.2327348,-0.019 -0.2785521,0 z m 23.3052805,9.8784 c -0.07525,0 -0.463662,0.4097 -0.649948,0.6918 -0.513682,0.7781 -0.920396,1.9418 -1.160624,3.3644 -0.08527,0.5048 -0.09148,0.7419 -0.09279,1.8372 -0.001,1.3849 0.04694,1.6946 0.30176,2.4817 0.280763,0.8672 0.739655,1.4347 1.299895,1.6463 0.08985,0.035 0.251282,0.071 0.371396,0.072 0.703334,0.011 1.347095,-0.7847 1.648082,-2.0043 0.255889,-1.037 0.07711,-1.9059 -0.858853,-3.9371 -0.599044,-1.3001 -0.765041,-1.8165 -0.858864,-2.6009 -0.04541,-0.3793 -0.04563,-0.7708 0.02309,-1.3362 0.01928,-0.1583 0.0087,-0.2146 -0.02309,-0.2146 z m -17.595023,8.5182 c -0.0587,0 -0.05238,0.1455 0.0465,0.6444 0.161237,0.8134 0.442435,1.2882 0.974916,1.5747 0.32707,0.1759 0.531042,0.2481 1.021343,0.334 0.180187,0.033 0.352652,0.045 0.371395,0.047 0.127977,0.018 0.03583,-0.5028 -0.185687,-0.9783 -0.204843,-0.4399 -0.702201,-0.9275 -1.207051,-1.1931 -0.367377,-0.1933 -0.934305,-0.4294 -1.021343,-0.4294 z"
       id="path4333"
       inkscape:connector-curvature="0" />
  </g>
</svg>
