<?xml version="1.0" encoding="UTF-8" standalone="no"?>
<!-- Created with Inkscape (http://www.inkscape.org/) -->

<svg
   xmlns:dc="http://purl.org/dc/elements/1.1/"
   xmlns:cc="http://creativecommons.org/ns#"
   xmlns:rdf="http://www.w3.org/1999/02/22-rdf-syntax-ns#"
   xmlns:svg="http://www.w3.org/2000/svg"
   xmlns="http://www.w3.org/2000/svg"
   xmlns:sodipodi="http://sodipodi.sourceforge.net/DTD/sodipodi-0.dtd"
   xmlns:inkscape="http://www.inkscape.org/namespaces/inkscape"
   id="svg2"
   version="1.1"
   inkscape:version="0.48.5 r10040"
   width="128"
   height="128"
   sodipodi:docname="catfish2.svg">
  <metadata
     id="metadata8">
    <rdf:RDF>
      <cc:Work
         rdf:about="">
        <dc:format>image/svg+xml</dc:format>
        <dc:type
           rdf:resource="http://purl.org/dc/dcmitype/StillImage" />
        <dc:title />
      </cc:Work>
    </rdf:RDF>
  </metadata>
  <defs
     id="defs6" />
  <sodipodi:namedview
     pagecolor="#ffffff"
     bordercolor="#666666"
     borderopacity="1"
     objecttolerance="10"
     gridtolerance="10"
     guidetolerance="10"
     inkscape:pageopacity="0"
     inkscape:pageshadow="2"
     inkscape:window-width="1260"
     inkscape:window-height="662"
     id="namedview4"
     showgrid="false"
     inkscape:zoom="1.9292162"
     inkscape:cx="143.78762"
     inkscape:cy="97.848091"
     inkscape:window-x="15"
     inkscape:window-y="39"
     inkscape:window-maximized="0"
     inkscape:current-layer="svg2" />
  <path
     inkscape:connector-curvature="0"
     id="path2996"
     d="m -459.07988,118.47574 c -10.89822,-2.92862 -20.29374,-10.66647 -25.27942,-20.81932 l -2.75996,-5.62039 0,-130.24773 0,-130.24772 2.79997,-5.70217 c 3.47448,-7.07581 10.63506,-14.35879 17.46261,-17.7611 l 5.18998,-2.58628 131.33621,0 131.33622,0 5.18997,2.58628 c 6.82756,3.40231 13.98814,10.68529 17.46261,17.7611 l 2.79998,5.70217 0,130.24772 0,130.24773 -2.75997,5.62039 c -5.08378,10.35262 -14.41722,17.92947 -25.70786,20.86954 -8.59669,2.23856 -248.72769,2.19165 -257.07034,-0.0502 z"
     style="fill:#eaeaa3" />
  <path
     inkscape:connector-curvature="0"
     id="path2994"
     d="m -456.78869,118.05775 c -10.35023,-2.07639 -20.61533,-9.91917 -26.01476,-19.87591 l -3.33281,-6.14581 0,-130.24773 0,-130.24772 3.33281,-6.14582 c 3.87449,-7.14468 9.67653,-12.84399 16.69737,-16.40172 l 4.97101,-2.519 130.80458,0 130.80459,0 4.97101,2.519 c 7.44779,3.77408 13.18203,9.61511 17.07121,17.38912 l 3.45047,6.89707 0,128.50907 0,128.50908 -3.45047,6.89707 c -4.1932,8.38171 -10.09268,14.0605 -18.98202,18.2719 l -6.56606,3.11073 -124.84122,0.14903 c -68.66267,0.082 -126.67474,-0.2188 -128.91571,-0.66836 z"
     style="fill:#dada5b" />
  <path
     inkscape:connector-curvature="0"
     id="path2992"
     d="m -454.39675,117.12383 c -3.08801,-0.40517 -8.0023,-1.90487 -10.92064,-3.33269 -6.37107,-3.11706 -14.7101,-11.63961 -17.67905,-18.06811 l -2.15681,-4.67 0,-129.26473 0,-129.26472 2.15681,-4.67001 c 2.90013,-6.27947 11.19386,-14.85576 17.31714,-17.90712 l 4.9956,-2.48941 130.35321,0 130.35322,0 5.06257,2.52278 c 6.83697,3.40701 15.24578,12.63955 17.84913,19.59764 2.03822,5.4476 2.04935,6.16619 2.04935,132.21084 l 0,126.73347 -2.12185,5.68914 c -2.93555,7.8708 -12.76641,17.71895 -20.97869,21.01555 l -5.89801,2.36761 -122.38371,0.1332 c -67.31104,0.0732 -124.91026,-0.19829 -127.99827,-0.60344 z m 214.30582,-174.20916 c 0.64878,-0.64878 1.1796,-2.42767 1.1796,-3.95308 0,-5.26214 -7.76415,-5.99537 -9.10707,-0.86005 -1.12142,4.28833 4.83554,7.90506 7.92747,4.81313 z"
     style="fill:#c8c801" />
  <rect
     style="fill:#ffe400;fill-opacity:1;fill-rule:evenodd;stroke:none"
     id="rect3005"
     width="111.42374"
     height="111.42374"
     x="8.2782698"
     y="8.2090807"
     ry="15" />
  <path
     inkscape:connector-curvature="0"
     id="path2988"
     d="m 60.585503,111.01622 c -1.1725,-1.17251 -2.05133,-5.82067 -4.00452,-21.179975 -1.03052,-8.103776 -1.40371,-9.527017 -2.72509,-10.392815 -2.87214,-1.881898 -4.08601,1.935874 -4.86254,15.293262 -0.69575,11.967928 -1.13845,14.837308 -2.48228,16.089288 -0.82723,0.77068 -1.77924,0.81889 -2.74957,0.13924 -1.0222,-0.71598 -1.43137,-1.66231 -2.91293,-6.73708 -1.94961,-6.677961 -4.87033,-19.291654 -5.69929,-24.613399 -2.47951,-15.918083 -2.54503,-19.827325 -0.43127,-25.730968 1.46284,-4.085626 1.46735,-3.84888 -0.11736,-6.147839 -1.85073,-2.68489 -2.391,-4.138268 -2.82211,-7.591854 -0.85161,-6.82212 0.85696,-12.190813 5.31549,-16.702377 4.35786,-4.409696 9.47695,-6.53105 16.4109,-6.800679 5.99488,-0.233114 9.97191,0.968299 13.53933,4.090064 4.1078,3.594639 5.60182,7.459228 3.562,9.213811 -1.10462,0.950153 -1.65494,0.840767 -3.98104,-0.791311 -0.92395,-0.648278 -2.33797,-1.639888 -3.14225,-2.203577 -2.72217,-1.907844 -8.90344,-2.587389 -12.78517,-1.405555 -2.63134,0.80114 -5.75611,4.08467 -7.05885,7.417469 -1.20459,3.081719 -0.66924,8.687078 0.82967,8.687078 0.26837,0 1.44771,-0.527547 2.62073,-1.172323 1.17303,-0.644779 3.02402,-1.363615 4.11331,-1.597417 5.52041,-1.184878 15.54152,0.171261 17.24223,2.333361 0.85901,1.092051 0.83746,2.099136 -0.13684,6.394501 -1.38855,6.121645 -0.93839,10.552336 1.57898,15.5411 1.49254,2.957839 6.003,7.219275 6.79882,6.423459 0.0703,-0.07028 -0.68303,-0.971572 -1.67401,-2.002896 -1.94273,-2.021834 -3.86637,-5.68384 -4.65797,-8.867374 -0.65696,-2.642055 -0.55824,-9.887538 0.17317,-12.708875 0.7023,-2.709095 2.73938,-7.181329 3.62835,-7.965757 0.61376,-0.541586 0.66618,-0.537874 1.23188,0.08722 0.32496,0.359082 1.63696,2.27865 2.91555,4.265707 l 2.3247,3.612833 1.8824,-0.150037 c 3.00342,-0.239393 6.86277,-0.194371 9.08207,0.105936 l 2.05177,0.277645 3.70141,-3.89726 c 3.439557,-3.621566 4.301257,-4.290331 4.698937,-3.646864 0.47129,0.762553 0.86704,6.287225 0.89404,12.480989 0.0249,5.672995 -0.0759,7.461222 -0.51371,9.124208 -0.71049,2.698929 -1.89498,5.057453 -3.243227,6.457847 -0.59628,0.619351 -1.51245,1.570225 -2.03588,2.113049 -0.83224,0.863046 -2.08258,1.556147 -7.1225,3.948215 -1.28605,0.610388 -1.04469,-0.181245 -4.82273,15.817295 -3.32915,14.097695 -4.26236,17.276625 -6.16974,21.017055 -0.74417,1.45933 -2.25995,2.25352 -3.35166,1.75611 -1.48186,-0.67518 -1.58178,-1.39938 -1.58836,-11.512137 -0.003,-5.220295 -0.12429,-10.104255 -0.26864,-10.853246 -0.17584,-0.912308 -0.58019,-1.62916 -1.22505,-2.17177 -1.9663,-1.654531 -2.93113,-0.87221 -4.39702,3.565323 -0.56029,1.696082 -1.52998,5.930018 -2.15486,9.408744 -0.62489,3.478726 -1.36707,7.048876 -1.64928,7.933676 -1.1116,3.4851 -2.44055,4.61834 -3.80999,3.2489 z m 35.79176,-52.633026 c 1.19013,-0.725635 1.3893,-1.944918 0.57495,-3.519695 -1.21085,-2.341521 -4.99893,-1.376047 -4.99893,1.274088 0,1.219564 1.51941,2.886152 2.62964,2.884364 0.41177,-6.56e-4 1.21922,-0.288103 1.79434,-0.638757 z m -14.19125,-0.761978 c 0.74614,-0.746139 0.78219,-1.698545 0.0973,-2.569296 -0.807,-1.025922 -1.9775,-1.111916 -2.87798,-0.211429 -0.90049,0.90048 -0.8145,2.070982 0.21142,2.877971 0.87076,0.684935 1.82316,0.648886 2.5693,-0.09725 z"
     style="fill:#333333" />
</svg>
