<?xml version="1.0" encoding="UTF-8" standalone="no"?>
<!-- Created with Inkscape (http://www.inkscape.org/) -->

<svg
   xmlns:dc="http://purl.org/dc/elements/1.1/"
   xmlns:cc="http://creativecommons.org/ns#"
   xmlns:rdf="http://www.w3.org/1999/02/22-rdf-syntax-ns#"
   xmlns:svg="http://www.w3.org/2000/svg"
   xmlns="http://www.w3.org/2000/svg"
   xmlns:sodipodi="http://sodipodi.sourceforge.net/DTD/sodipodi-0.dtd"
   xmlns:inkscape="http://www.inkscape.org/namespaces/inkscape"
   id="svg2"
   version="1.1"
   inkscape:version="0.48.5 r10040"
   width="513"
   height="513"
   sodipodi:docname="1420422701_472809-appicns_Pages.png">
  <metadata
     id="metadata8">
    <rdf:RDF>
      <cc:Work
         rdf:about="">
        <dc:format>image/svg+xml</dc:format>
        <dc:type
           rdf:resource="http://purl.org/dc/dcmitype/StillImage" />
        <dc:title></dc:title>
      </cc:Work>
    </rdf:RDF>
  </metadata>
  <defs
     id="defs6" />
  <sodipodi:namedview
     pagecolor="#ffffff"
     bordercolor="#666666"
     borderopacity="1"
     objecttolerance="10"
     gridtolerance="10"
     guidetolerance="10"
     inkscape:pageopacity="0"
     inkscape:pageshadow="2"
     inkscape:window-width="1058"
     inkscape:window-height="716"
     id="namedview4"
     showgrid="false"
     inkscape:zoom="0.65059337"
     inkscape:cx="281.01276"
     inkscape:cy="228.40451"
     inkscape:window-x="199"
     inkscape:window-y="24"
     inkscape:window-maximized="0"
     inkscape:current-layer="svg2" />
  <g
     id="g3789">
    <path
       sodipodi:nodetypes="ccccccccccccccccccccccccccc"
       inkscape:connector-curvature="0"
       id="path2997"
       d="m 260,63.34375 c -25.74982,0.177392 -52.45786,4.139285 -74.8125,17.3125 -8.05623,4.749488 -14.27654,13.226109 -12.78125,23.03125 -0.34581,14.75017 1.92007,29.70567 -0.0312,44.34375 -3.69873,5.36275 -11.6361,5.4951 -17.1875,8.25 -30.84397,11.4808 -57.222599,35.18472 -72.24462,64.40182 -7.848,15.43494 -11.606934,32.76011 -11.254076,50.19099 -0.810228,45.44359 4.1511,92.60798 3.439724,137.94425 -13.142356,24.3313 -21.930747,38.54544 -33.861031,63.2325 1.73432,3.20034 4.068159,-8.5511 6.449045,-8.62161 21.835232,-10.54644 33.204294,-8.02849 54.999858,-18.82736 66.26845,20.23251 139.23891,22.85623 208.02979,19.84084 41.10798,-2.50644 82.8002,-7.09566 121.47256,-21.66143 10.48097,-4.58477 22.92457,-9.70742 27.62917,-20.90624 -0.17981,-52.63052 1.37504,-105.29697 -0.46589,-157.90472 -1.62391,-36.81129 -23.38388,-70.42904 -52.69453,-91.50154 -2.91118,-1.99476 -17.88427,-10.49595 -13.81956,-14.52669 -16.16299,-10.06504 -22.05361,11.09878 -8.48568,-4.4086 -20.73923,-5.85018 -4.72786,11.66556 5.12364,4.64689 2.32953,-1.38955 4.62775,5.58727 7.33449,5.43529 -9.5554,-6.82222 0.16456,-0.0212 -9.35273,-6.70353 -2.16019,-4.96504 -4.13702,-7.36762 -7.30434,-5.7825 -28.57845,-10.28904 4.23268,1.91318 -18.03523,-6.48814 -2.18437,2.02717 -2.81793,-11.60561 -4.05434,-16.79772 -1.5499,-11.83124 -0.17944,-24.40417 -1.82668,-36.035718 C 346.24908,76.515314 327.02745,71.732526 310.40625,67.5 293.90797,63.503861 276.91823,63.175465 260,63.34375 z"
       style="fill:#c0c0c0" />
    <path
       sodipodi:nodetypes="sscssscssscssscssssssscsssssscsscsss"
       style="fill:#6b708d"
       d="m 31.974531,480.03187 c -0.270031,-0.43692 8.365912,-16.60028 19.190983,-35.91859 l 23.716725,-34.5478 13.77081,-13.78256 c 16.902061,-16.91648 14.586641,-17.14119 10.545149,-27.45665 -2.336657,-5.96406 -2.350737,-6.25455 -2.350737,-48.5 l 0,-42.5 2.834134,-5.38279 c 12.019495,-22.82827 52.126585,-41.17692 107.165865,-49.02746 17.62862,-2.51447 37.66383,-4.08975 52.01538,-4.08975 l 11.11559,0 38.00112,-36.25 c 20.90062,-19.9375 55.50712,-52.9 76.90332,-73.25 21.39621,-20.349998 43.1443,-41.049998 48.32909,-45.999999 l 9.4269,-9 16.3543,16.991559 c 8.99487,9.345358 16.3543,17.500155 16.3543,18.121772 0,0.621616 -19.41037,19.750408 -43.13414,42.508438 -23.72378,22.75803 -54.77378,52.54184 -69,66.18626 -14.22623,13.64442 -25.86586,25.22335 -25.86586,25.73095 0,0.5076 1.2375,1.19567 2.75,1.52903 51.39108,11.32677 81.42302,26.9563 91.13993,47.43199 l 2.61007,5.5 0,42 c 0,41.05721 -0.0502,42.13316 -2.23834,47.93216 -3.43025,9.09104 -8.07935,16.13907 -15.7973,23.94866 -22.22719,22.49113 -61.4891,38.49658 -110.96436,45.23555 -18.08808,2.46375 -60.84548,2.48898 -78.5,0.0463 -29.47726,-4.07845 -54.45879,-10.99791 -75.10946,-20.80405 l -10.95467,-5.20192 -3.71793,3.47473 c -2.04487,1.9111 -9.97285,9.44583 -17.61775,16.74386 l -13.89981,13.26914 -35.844782,17.92777 c -19.714633,9.8603 -36.045661,17.9278 -36.291175,17.9278 -0.245513,0 -0.667322,-0.35748 -0.937352,-0.7944 z"
       id="path2993"
       inkscape:connector-curvature="0" />
    <path
       style="fill:#5f6a78;stroke:#5f6a78;stroke-width:0;stroke-miterlimit:4;stroke-opacity:1;stroke-dasharray:none"
       d="m 34.613113,475.57627 c 1.350632,-2.3375 9.772632,-17.525 18.715555,-33.75 l 16.25986,-29.5 17.362927,-17 17.362925,-17 -2.35717,-5 c -4.446267,-9.43135 -4.764894,-13.46165 -4.427248,-56 0.315021,-39.68783 0.335891,-40.03735 2.674218,-44.78618 12.37484,-25.13163 61.03948,-44.9508 125.79859,-51.23277 8.16458,-0.79201 21.59469,-1.46928 29.84469,-1.50505 l 15,-0.065 44,-42.12002 c 24.2,-23.16601 62.85495,-60.13267 85.89988,-82.148137 l 41.89988,-40.028122 15.82248,16.442655 c 8.70237,9.04346 15.72243,17.007101 15.60013,17.69698 -0.12231,0.689879 -14.45892,14.864874 -31.85914,31.500004 -17.40023,16.63509 -48.33749,46.22064 -68.74947,65.74564 -20.41199,19.525 -37.11294,36.03594 -37.11323,36.69098 -7.8e-4,1.76253 0.60251,1.97959 13.57869,4.88565 41.02055,9.18669 71.6123,25.96193 80.59094,44.19273 2.30564,4.6815 2.33278,5.14543 2.61318,44.66155 0.18103,25.51188 -0.10153,41.78482 -0.78249,45.06499 -7.26831,35.01126 -53.96335,63.0848 -122.50085,73.64879 -18.88899,2.91144 -55.90908,3.60248 -76.5,1.42799 -31.07813,-3.28199 -60.69181,-11.0073 -82.47924,-21.51634 -5.76556,-2.78099 -10.77131,-5.05634 -11.12389,-5.05634 -0.35258,0 -8.57362,7.59343 -18.26896,16.8743 l -17.62791,16.87429 -35.244444,17.62571 c -19.384444,9.69413 -35.514704,17.6257 -35.845022,17.6257 -0.330317,0 0.504486,-1.9125 1.855119,-4.25 z"
       id="path2991"
       inkscape:connector-curvature="0" />
    <path
       sodipodi:nodetypes="csssssscccsscc"
       inkscape:connector-curvature="0"
       id="path3787"
       d="m 244.11364,438.49235 c -23.97666,-1.57828 -48.36573,-6.08734 -69.5133,-12.85164 -11.97905,-3.83163 -31.42181,-12.33806 -33.54748,-14.43501 -1.02364,-1.00982 18.83685,-19.29324 96.50971,-93.24627 53.46797,-50.90733 97.98904,-93.11971 98.9357,-93.80527 1.38854,-1.00556 3.88894,-0.76133 12.93679,1.26359 45.07995,10.08899 75.10056,25.98687 84.33652,44.66171 l 3.12007,6.30869 -0.2971,44.2095 -0.29709,44.20949 -3.27798,6.88851 c -17.30815,36.37203 -74.17029,62.23469 -146.99342,66.85716 -18.01316,1.14339 -23.7499,1.13511 -41.91242,-0.0605 z"
       style="fill:#353565" />
    <path
       sodipodi:nodetypes="scsssssss"
       inkscape:connector-curvature="0"
       id="path2989"
       d="m 99.141339,371.72404 -2.486068,-5.37985 0,-45.28167 c 0,-42.68205 0.115528,-45.51535 2.01217,-49.35194 3.086269,-6.24297 16.620519,-18.6849 25.887939,-23.79858 28.14723,-15.53139 70.09505,-25.62803 118.82553,-28.60073 19.96207,-1.21774 27.5761,-1.28719 27.5761,-0.25153 0,0.8111 -166.72648,160.32147 -168.13214,160.82625 -0.44726,0.16061 -2.3162,-5.20303 -3.683531,-8.16195 z"
       style="fill:#353565" />
  </g>
</svg>
