<?xml version="1.0" encoding="UTF-8" standalone="no"?>
<!-- Created with Inkscape (http://www.inkscape.org/) -->

<svg
   xmlns:dc="http://purl.org/dc/elements/1.1/"
   xmlns:cc="http://creativecommons.org/ns#"
   xmlns:rdf="http://www.w3.org/1999/02/22-rdf-syntax-ns#"
   xmlns:svg="http://www.w3.org/2000/svg"
   xmlns="http://www.w3.org/2000/svg"
   xmlns:xlink="http://www.w3.org/1999/xlink"
   xmlns:sodipodi="http://sodipodi.sourceforge.net/DTD/sodipodi-0.dtd"
   xmlns:inkscape="http://www.inkscape.org/namespaces/inkscape"
   id="svg2"
   version="1.1"
   inkscape:version="0.48.5 r10040"
   width="512"
   height="512"
   sodipodi:docname="kipi-expoblending.svg">
  <metadata
     id="metadata8">
    <rdf:RDF>
      <cc:Work
         rdf:about="">
        <dc:format>image/svg+xml</dc:format>
        <dc:type
           rdf:resource="http://purl.org/dc/dcmitype/StillImage" />
        <dc:title />
      </cc:Work>
    </rdf:RDF>
  </metadata>
  <defs
     id="defs6">
    <linearGradient
       id="linearGradient4460-6">
      <stop
         offset="0"
         style="stop-color:#350b0b;stop-opacity:1;"
         id="stop3807" />
      <stop
         offset="1"
         style="stop-color:#7a4242;stop-opacity:1;"
         id="stop3809" />
    </linearGradient>
    <linearGradient
       gradientTransform="matrix(1.10525,0,0,1.10525,-134.22538,-295.81512)"
       xlink:href="#linearGradient4460-6"
       id="linearGradient3004"
       y1="279.09601"
       y2="268.32999"
       gradientUnits="userSpaceOnUse"
       x2="0" />
    <linearGradient
       id="linearGradient3895-9-0-3-2-4-0">
      <stop
         offset="0"
         style="stop-color:#dda3a8"
         id="stop2999" />
      <stop
         offset="1"
         style="stop-color:#933039"
         id="stop3001" />
    </linearGradient>
    <radialGradient
       cx="148.004"
       cy="160"
       gradientTransform="matrix(0.97656,0,0,0.97656,-16.5349,-236.25)"
       r="128"
       id="radialGradient4432"
       xlink:href="#linearGradient3895-9-0-3-2-4-0"
       gradientUnits="userSpaceOnUse" />
    <linearGradient
       x2="0"
       gradientUnits="userSpaceOnUse"
       y2="268.32999"
       y1="279.09601"
       id="linearGradient3014"
       xlink:href="#linearGradient4460"
       gradientTransform="matrix(1.10525,0,0,1.10525,-134.27874,-295.76183)" />
    <linearGradient
       id="linearGradient4460">
      <stop
         id="stop7"
         style="stop-color:#71345c;stop-opacity:1;"
         offset="0" />
      <stop
         id="stop9"
         style="stop-color:#a55689;stop-opacity:1;"
         offset="1" />
    </linearGradient>
    <linearGradient
       id="linearGradient4460-6-5">
      <stop
         offset="0"
         style="stop-color:#350b0b;stop-opacity:1;"
         id="stop3807-9" />
      <stop
         offset="1"
         style="stop-color:#7a4242;stop-opacity:1;"
         id="stop3809-2" />
    </linearGradient>
    <linearGradient
       gradientTransform="matrix(1.10525,0,0,1.10525,-134.22538,-295.81512)"
       xlink:href="#linearGradient4460-6-5"
       id="linearGradient3004-0"
       y1="279.09601"
       y2="268.32999"
       gradientUnits="userSpaceOnUse"
       x2="0" />
    <linearGradient
       id="linearGradient3895-9-0-3-2-4-0-0">
      <stop
         offset="0"
         style="stop-color:#dda3a8"
         id="stop2999-1" />
      <stop
         offset="1"
         style="stop-color:#933039"
         id="stop3001-5" />
    </linearGradient>
    <radialGradient
       cx="148.004"
       cy="160"
       gradientTransform="matrix(0.97656,0,0,0.97656,-16.5349,-236.25)"
       r="128"
       id="radialGradient4432-8"
       xlink:href="#linearGradient3895-9-0-3-2-4-0-0"
       gradientUnits="userSpaceOnUse" />
    <linearGradient
       y2="268.32999"
       x2="0"
       y1="279.09601"
       gradientTransform="matrix(1.10525,0,0,1.10525,-134.27874,-295.76183)"
       gradientUnits="userSpaceOnUse"
       id="linearGradient3804"
       xlink:href="#linearGradient4460-6-5"
       inkscape:collect="always" />
    <linearGradient
       x2="0"
       gradientUnits="userSpaceOnUse"
       y2="268.32999"
       y1="279.09601"
       id="linearGradient3014-1"
       xlink:href="#linearGradient4460-9"
       gradientTransform="matrix(1.10525,0,0,1.10525,-134.27874,-295.76183)" />
    <linearGradient
       id="linearGradient4460-9">
      <stop
         id="stop7-5"
         style="stop-color:#71345c;stop-opacity:1;"
         offset="0" />
      <stop
         id="stop9-3"
         style="stop-color:#a55689;stop-opacity:1;"
         offset="1" />
    </linearGradient>
  </defs>
  <sodipodi:namedview
     pagecolor="#ffffff"
     bordercolor="#666666"
     borderopacity="1"
     objecttolerance="10"
     gridtolerance="10"
     guidetolerance="10"
     inkscape:pageopacity="0"
     inkscape:pageshadow="2"
     inkscape:window-width="1039"
     inkscape:window-height="636"
     id="namedview4"
     showgrid="false"
     inkscape:zoom="0.65186405"
     inkscape:cx="439.15314"
     inkscape:cy="230.38802"
     inkscape:window-x="209"
     inkscape:window-y="45"
     inkscape:window-maximized="0"
     inkscape:current-layer="g3007" />
  <g
     id="g3772"
     transform="matrix(1.1182684,0,0,1.1182684,-53.072276,-18.727261)">
    <rect
       transform="matrix(0.99677168,-0.08028831,0.08028831,0.99677168,0,0)"
       y="95.223473"
       x="123.92593"
       height="250.36272"
       width="327.47449"
       id="rect2996"
       style="fill:#ff80b2;fill-opacity:1;fill-rule:evenodd;stroke:#ffffff;stroke-width:12.51935577000000066;stroke-linecap:butt;stroke-linejoin:miter;stroke-miterlimit:4;stroke-opacity:1;stroke-dasharray:none" />
    <rect
       transform="matrix(0.90796078,-0.41905516,0.41905516,0.90796078,0,0)"
       y="224.17166"
       x="-34.190308"
       height="250.36272"
       width="327.47452"
       id="rect2996-6"
       style="fill:#00ccff;fill-opacity:1;fill-rule:evenodd;stroke:#ffffff;stroke-width:12.51935577;stroke-linecap:butt;stroke-linejoin:miter;stroke-miterlimit:4;stroke-opacity:1;stroke-dasharray:none" />
    <g
       id="g3007"
       transform="matrix(0.8942397,0,0,0.8942397,-296.34629,230.10643)">
      <g
         style="opacity:0.84677417;fill:#ffffff;fill-opacity:1"
         transform="matrix(0.14117309,0,0,-0.12548705,546.61163,121.99585)"
         id="g3010">
        <path
           inkscape:connector-curvature="0"
           d="m 896,960 c 0,48 -11.5,92.6667 -34.5,134 -23,41.3333 -53,75.1667 -90,101.5 -37,26.3333 -78,47 -123,62 -45,15 -90.5,22.5 -136.5,22.5 -46,0 -91.5,-7.5 -136.5,-22.5 -45,-15 -86,-35.6667 -123,-62 -37,-26.3333 -67,-60.1667 -90,-101.5 -23,-41.3333 -34.5,-86 -34.5,-134 0,-67.33333 22.66667,-127.33333 68,-180 6.66667,-7.33333 16.83333,-18.33333 30.5,-33 13.66667,-14.66667 23.83333,-25.66667 30.5,-33 85.33333,-102 132.33333,-201.33333 141,-298 l 228,0 c 8.66667,96.66667 55.66667,196 141,298 6.66667,7.33333 16.83333,18.33333 30.5,33 13.66667,14.66667 23.83333,25.66667 30.5,33 45.33333,52.66667 68,112.66667 68,180 z m 128,0 C 1024,856.66667 989.66667,767.33333 921,692 891,659.33333 866.16667,630.33333 846.5,605 826.83333,579.66667 807,547.83333 787,509.5 767,471.16667 755.66667,435.33333 753,402 c 31.33333,-18.66667 47,-46 47,-82 0,-24.66667 -8.33333,-46 -25,-64 16.66667,-18 25,-39.33333 25,-64 0,-34.66667 -15,-61.66667 -45,-81 8.66667,-15.333333 13,-31 13,-47 0,-30.666667 -10.5,-54.3333333 -31.5,-71 -21,-16.666667 -46.83333,-25 -77.5,-25 -13.33333,-29.333333 -33.33333,-52.666667 -60,-70 -26.66667,-17.33333 -55.66667,-26 -87,-26 -31.33333,0 -60.33333,8.66667 -87,26 -26.66667,17.333333 -46.66667,40.666667 -60,70 -30.66667,0 -56.5,8.333333 -77.5,25 -21,16.6666667 -31.5,40.333333 -31.5,71 0,16 4.33333,31.666667 13,47 -30,19.33333 -45,46.33333 -45,81 0,24.66667 8.33333,46 25,64 -16.66667,18 -25,39.33333 -25,64 0,36 15.66667,63.33333 47,82 -2.66667,33.33333 -14,69.16667 -34,107.5 -20,38.33333 -39.83333,70.16667 -59.5,95.5 C 157.83333,630.33333 133,659.33333 103,692 34.333333,767.33333 0,856.66667 0,960 c 0,66 14.833333,127.5 44.5,184.5 29.666667,57 68.66667,104.3333 117,142 48.33333,37.6667 103,67.3333 164,89 61,21.6667 123.16667,32.5 186.5,32.5 63.33333,0 125.5,-10.8333 186.5,-32.5 61,-21.6667 115.66667,-51.3333 164,-89 48.33333,-37.6667 87.33333,-85 117,-142 29.6667,-57 44.5,-118.5 44.5,-184.5 z"
           id="path3012-0"
           style="fill:#ffffff;fill-opacity:1"
           sodipodi:nodetypes="ssssssssscsccccscsscsscscscsscssscsscscscsscsssssssss" />
      </g>
    </g>
  </g>
</svg>
