<?xml version="1.0" encoding="UTF-8" standalone="no"?>
<!-- Created with Inkscape (http://www.inkscape.org/) -->

<svg
   xmlns:dc="http://purl.org/dc/elements/1.1/"
   xmlns:cc="http://creativecommons.org/ns#"
   xmlns:rdf="http://www.w3.org/1999/02/22-rdf-syntax-ns#"
   xmlns:svg="http://www.w3.org/2000/svg"
   xmlns="http://www.w3.org/2000/svg"
   xmlns:sodipodi="http://sodipodi.sourceforge.net/DTD/sodipodi-0.dtd"
   xmlns:inkscape="http://www.inkscape.org/namespaces/inkscape"
   id="svg2"
   version="1.1"
   inkscape:version="0.48.5 r10040"
   width="1024"
   height="1024"
   sodipodi:docname="xchat.svg">
  <metadata
     id="metadata8">
    <rdf:RDF>
      <cc:Work
         rdf:about="">
        <dc:format>image/svg+xml</dc:format>
        <dc:type
           rdf:resource="http://purl.org/dc/dcmitype/StillImage" />
        <dc:title />
      </cc:Work>
    </rdf:RDF>
  </metadata>
  <defs
     id="defs6" />
  <sodipodi:namedview
     pagecolor="#ffffff"
     bordercolor="#666666"
     borderopacity="1"
     objecttolerance="10"
     gridtolerance="10"
     guidetolerance="10"
     inkscape:pageopacity="0"
     inkscape:pageshadow="2"
     inkscape:window-width="1198"
     inkscape:window-height="676"
     id="namedview4"
     showgrid="false"
     inkscape:zoom="0.4609375"
     inkscape:cx="197.70444"
     inkscape:cy="579.94582"
     inkscape:window-x="15"
     inkscape:window-y="39"
     inkscape:window-maximized="0"
     inkscape:current-layer="svg2" />
  <path
     style="fill:#dadae4"
     d="m 83.032459,651.04702 c -4.096,-2.02038 -6.8039,-5.0863 -8.216,-9.30218 -1.7028,-5.08416 -1.4582,-170.29454 0.2592,-175.04849 0.685,-1.89624 2.9424,-4.82124 5.0165,-6.5 l 3.7709,-3.05229 92.157481,-0.24217 92.15746,-0.24216 3.90598,2.24216 c 7.26844,4.17233 8.049,6.14842 8.44363,21.3761 0.19229,7.4198 0.0576,15.04716 -0.29932,16.94969 -0.673,3.58738 -5.26121,9.59617 -8.93743,11.70459 -1.57691,0.90441 -20.12285,1.33862 -73.11286,1.71179 l -71.00004,0.5 0,43.5 0,43.5 70.50004,0.5 70.5,0.5 3.73211,2.3205 c 7.31239,4.54661 7.76789,5.96798 7.76789,24.23948 0,15.98584 -0.0427,16.30725 -2.61583,19.68077 -1.43871,1.88624 -4.02621,4.28953 -5.75,5.34065 -3.02559,1.84492 -6.28667,1.91046 -94.13417,1.89209 -80.187641,-0.0168 -91.373741,-0.20338 -94.145541,-1.57053 z"
     id="path3019"
     inkscape:connector-curvature="0" />
  <path
     style="fill:#dadae4"
     d="m 332.04383,650.72546 c -1.72379,-1.05112 -4.42379,-3.60171 -6,-5.66798 l -2.86583,-3.75686 -0.27209,-85.06785 c -0.20348,-63.62062 0.0258,-85.82684 0.90948,-88.07828 0.64986,-1.65574 2.3473,-4.2881 3.77209,-5.84971 4.66096,-5.10853 6.8149,-5.66072 22.0807,-5.66072 12.06228,0 14.64717,0.2845 17.96544,1.97736 5.03076,2.5665 8.05165,6.91405 8.89314,12.79866 l 0.67552,4.72398 75.98786,0.5 c 84.84398,0.55827 79.38572,0.0668 85.18617,7.67068 l 2.80169,3.67279 0.26847,75.93035 c 0.26081,73.76536 0.21291,76.02011 -1.67996,79.07827 -1.07163,1.73135 -3.35948,4.49791 -5.08412,6.14791 l -3.13572,3 -16.87879,0 -16.8788,0 -3.63762,-3.5 c -2.00069,-1.925 -4.16318,-4.4 -4.80554,-5.5 -0.83486,-1.42965 -1.31051,-17.68472 -1.66792,-57 l -0.5,-55 -55,0 -55,0 -0.5,55.5 -0.5,55.5 -2.91365,3.80895 c -4.69926,6.14323 -6.60855,6.69152 -23.28669,6.68731 -12.80609,-0.003 -15.22184,-0.26117 -17.93383,-1.91486 z"
     id="path3017"
     inkscape:connector-curvature="0" />
  <path
     style="fill:#dadae4"
     d="m 599.678,651.95574 c -2.32198,-0.86256 -8.01222,-6.50928 -9.58532,-9.51202 -1.18274,-2.25762 -1.41468,-14.91211 -1.41468,-77.1849 0,-50.19533 0.34684,-75.40256 1.06362,-77.29966 1.44741,-3.8309 5.76278,-8.27321 9.65426,-9.93826 2.66077,-1.13847 20.2336,-1.37304 101.5,-1.35488 93.41411,0.0209 98.48024,0.1134 102.28212,1.86808 2.2,1.01537 5.125,3.0661 6.5,4.55719 l 2.5,2.71107 0.5,36.17085 0.5,36.17085 5.34548,0.6524 c 6.39736,0.78078 11.89052,4.73385 13.75683,9.89989 0.89615,2.4806 1.26071,12.84471 1.29965,36.94771 0.0606,37.51646 -0.21329,39.23325 -7.03543,44.09893 -3.30176,2.35488 -3.83747,2.40686 -27.84473,2.7022 -13.46301,0.16563 -25.49226,0.0466 -26.73166,-0.26445 -2.64188,-0.66306 -8.83879,-5.89074 -10.57835,-8.92382 -0.89121,-1.5539 -1.34407,-16.66325 -1.71179,-57.11286 l -0.5,-55 -58,0 -58,0 0,33.5 0,33.5 30,0.5 c 33.44242,0.55737 33.82884,0.63298 39.19831,7.66935 2.69672,3.5339 2.8149,4.17785 3.15429,17.18694 0.41683,15.97795 -0.37207,19.29191 -5.87097,24.66224 l -4.07679,3.98147 -52.20242,0.18445 c -28.71133,0.10144 -52.87742,-0.0663 -53.70242,-0.37277 z"
     id="path3015"
     inkscape:connector-curvature="0" />
  <path
     style="fill:#dadae4"
     d="m 867.00243,651.03243 c -1.74657,-0.86135 -4.44657,-3.39973 -6,-5.64085 l -2.82443,-4.07477 -0.5,-55.08637 -0.5,-55.08638 -8,-0.5 c -9.42,-0.58875 -14.36215,-3.08239 -16.96029,-8.55757 -1.39946,-2.94914 -1.62139,-6.20607 -1.35646,-19.90654 0.30718,-15.88557 0.39229,-16.46126 2.81675,-19.05321 3.94619,-4.2188 7.932,-5.81858 16,-6.42186 l 7.5,-0.56082 0.54051,-4.04892 c 0.7087,-5.30876 3.76117,-10.40081 7.91145,-13.19768 3.08421,-2.07845 4.46057,-2.2534 17.72805,-2.2534 9.81892,0 15.4105,0.4288 17.61774,1.35104 4.53637,1.89542 9.48279,7.87975 10.23085,12.37758 0.34498,2.07426 0.78243,4.28015 0.97212,4.90197 0.21514,0.70527 4.08591,1.28085 10.28927,1.53001 9.06597,0.36414 10.27282,0.64992 13.66235,3.23524 6.87313,5.2424 7.53972,7.30952 7.54393,23.394 0.004,16.12787 -1.15714,20.04788 -7.22175,24.37595 -2.77823,1.98271 -4.85221,2.4095 -13.77264,2.83421 l -10.50187,0.5 0,31.5 0,31.5 10.58437,0.5 c 9.54778,0.45103 10.92959,0.7638 14.10928,3.19355 6.04295,4.61773 6.80635,7.51218 6.80635,25.80645 0,18.58993 -0.78217,21.38086 -7.31913,26.11622 l -3.98095,2.88378 -31.09996,-0.0228 c -26.17685,-0.0192 -31.60265,-0.27068 -34.27554,-1.58886 z"
     id="path3013"
     inkscape:connector-curvature="0" />
  <path
     style="fill:#cc370c;fill-opacity:1"
     d="m 142.75592,870.39154 c -40.286,-40.2889 -73.247404,-73.70282 -73.247404,-74.25316 0,-0.55033 26.6639,-27.66169 59.253104,-60.24746 l 59.25315,-59.24685 36.64154,0 c 33.91493,0 37.1273,-0.15004 43.16942,-2.01626 12.05109,-3.7222 21.4759,-12.70789 26.79869,-25.55007 l 2.24708,-5.42149 3.64281,7.74391 c 5.80713,12.34484 14.92125,20.17989 27.5905,23.71848 4.89621,1.36753 9.33057,1.63606 22.52624,1.36408 16.23158,-0.33456 16.51011,-0.37814 23.06871,-3.60947 9.64636,-4.75262 15.75361,-10.69074 20.39325,-19.82849 l 3.91551,-7.7116 0.5,-45.09454 0.5,-45.09455 31,0 31,0 0.5,45 0.5,45 3.18498,6.72333 c 3.62076,7.64324 10.72748,15.762 17.03061,19.45588 2.35643,1.38096 4.28441,2.8062 4.28441,3.16721 0,1.08286 -268.41966,269.15358 -269.50394,269.15358 -0.55064,0 -33.96251,-32.96364 -74.24866,-73.25253 z"
     id="path3009" />
  <path
     style="fill:#cc370c;fill-opacity:1"
     d="m 680.13955,808.01174 c -74.59707,-74.59778 -135.63103,-135.98678 -135.63103,-136.42 0,-0.43322 2.72118,-3.50885 6.04707,-6.83474 4.15556,-4.15556 7.08826,-8.29493 9.37571,-13.23339 l 3.32864,-7.18633 3.1507,6.60171 c 3.88685,8.14416 11.28746,16.40187 17.94859,20.02731 10.39655,5.65851 10.35829,5.65521 65.65247,5.66695 59.02122,0.0125 59.69897,-0.0697 70.87002,-8.5933 5.43119,-4.14406 7.35805,-6.48936 13.41283,-16.32565 l 1.49565,-2.42977 2.44735,4.81557 c 2.76902,5.44853 10.033,13.12173 15.8578,16.75117 7.82136,4.87348 14.03921,5.7928 39.17998,5.7928 24.3642,0 29.80929,-0.70245 38.05558,-4.90939 2.25387,-1.14984 4.63958,-2.09061 5.30159,-2.09061 2.07936,0 125.87623,124.50239 125.87375,126.59111 -10e-4,1.19316 -27.29651,29.18604 -72.79785,74.65889 -40.03758,40.0125 -73.05259,72.75 -73.36671,72.75 -0.31412,0 -61.60508,-61.03455 -136.20214,-135.63233 z"
     id="path3007" />
  <path
     style="fill:#dbd537"
     d="m 560.33495,475.39407 c -5.83566,-11.82811 -17.70405,-20.55126 -30.86689,-22.68686 -4.01538,-0.65148 -30.55228,-1.05089 -70.13294,-1.05559 l -63.6734,-0.008 -6.83516,-6.75 c -5.45308,-5.38513 -8.34666,-7.35661 -14.3103,-9.75 -7.43638,-2.98445 -7.57891,-3 -27.49144,-3 l -20.0163,0 -7.31873,3.42972 -7.31873,3.42971 L 191.93979,318.57489 C 125.70262,252.33985 71.508516,197.69532 71.508516,197.14304 c 0,-1.30922 144.194574,-145.498974 145.503834,-145.498974 0.54928,0 67.82256,66.825004 149.49617,148.500004 90.16866,90.1702 149.22321,148.5 150.34511,148.5 1.12199,0 60.17815,-58.33956 150.36878,-148.54416 81.68663,-81.69929 148.90975,-148.411794 149.38472,-148.250004 1.2696,0.43246 144.90139,144.081184 144.90139,144.918464 0,0.6276 -246.27798,247.30894 -251.96302,252.3757 -2.17266,1.93637 -4.03025,2.01591 -58.39052,2.5 l -56.14646,0.5 -8.62546,4.14416 c -7.16896,3.44438 -9.49349,5.1872 -13.76593,10.32105 -2.82725,3.39729 -6.04244,7.94492 -7.14486,10.10584 -1.10242,2.16092 -2.12651,3.92895 -2.27576,3.92895 -0.14924,0 -1.43695,-2.3625 -2.86156,-5.25 z"
     id="path2988" />
</svg>
