<?xml version="1.0" encoding="UTF-8" standalone="no"?>
<!-- Generator: Adobe Illustrator 19.0.0, SVG Export Plug-In . SVG Version: 6.00 Build 0)  -->

<svg
   xmlns:dc="http://purl.org/dc/elements/1.1/"
   xmlns:cc="http://creativecommons.org/ns#"
   xmlns:rdf="http://www.w3.org/1999/02/22-rdf-syntax-ns#"
   xmlns:svg="http://www.w3.org/2000/svg"
   xmlns="http://www.w3.org/2000/svg"
   xmlns:sodipodi="http://sodipodi.sourceforge.net/DTD/sodipodi-0.dtd"
   xmlns:inkscape="http://www.inkscape.org/namespaces/inkscape"
   version="1.1"
   id="Layer_1"
   x="0px"
   y="0px"
   viewBox="0 0 512.001 512.001"
   style="enable-background:new 0 0 512.001 512.001;"
   xml:space="preserve"
   width="512px"
   height="512px"
   inkscape:version="0.91 r13725"
   sodipodi:docname="application-image-jpg.svg"><metadata
     id="metadata49"><rdf:RDF><cc:Work
         rdf:about=""><dc:format>image/svg+xml</dc:format><dc:type
           rdf:resource="http://purl.org/dc/dcmitype/StillImage" /></cc:Work></rdf:RDF></metadata><defs
     id="defs47" /><sodipodi:namedview
     pagecolor="#ffffff"
     bordercolor="#666666"
     borderopacity="1"
     objecttolerance="10"
     gridtolerance="10"
     guidetolerance="10"
     inkscape:pageopacity="0"
     inkscape:pageshadow="2"
     inkscape:window-width="1600"
     inkscape:window-height="876"
     id="namedview45"
     showgrid="false"
     inkscape:zoom="0.79"
     inkscape:cx="11.974684"
     inkscape:cy="256"
     inkscape:window-x="0"
     inkscape:window-y="0"
     inkscape:window-maximized="1"
     inkscape:current-layer="Layer_1" /><g
     id="g3"
     transform="translate(-46.000091,0)"><g
       id="g5"><path
         d="m 450.88,53.36 c -4.364,-4.363 -10.282,-6.814 -16.455,-6.814 -0.002,0 -0.005,0 -0.006,0 l -23.267,0.008 0,23.273 0,23.273 0,325.81 0,23.273 0,23.273 23.273,0 c 12.853,0 23.273,-10.42 23.273,-23.273 l 0,-372.364 C 457.697,63.645 455.246,57.725 450.88,53.36 Z"
         id="path7"
         inkscape:connector-curvature="0"
         style="fill:#006df0" /></g></g><g
     id="g9"
     transform="translate(-3.7974756,0)"><g
       id="g11"><path
         d="M 356.292,5.443 C 351.021,1.021 344.065,-0.844 337.289,0.356 L 73.531,46.929 C 62.41,48.892 54.303,58.555 54.303,69.847 l 0,372.336 c 0,11.293 8.108,20.958 19.229,22.919 l 263.758,46.545 c 1.347,0.237 2.698,0.354 4.043,0.354 5.429,0 10.737,-1.901 14.96,-5.444 5.271,-4.422 8.313,-10.948 8.313,-17.828 l 0,-4.824 0,-18.449 0,-23.273 0,-23.273 0,-325.798 0,-23.273 0,-23.273 0,-23.293 c 0,-6.879 -3.042,-13.406 -8.314,-17.83 z m -91.589,282.534 c -4.327,4.33 -10.333,6.811 -16.46,6.811 -6.128,0 -12.117,-2.482 -16.462,-6.813 -4.329,-4.341 -6.811,-10.33 -6.811,-16.46 0,-6.128 2.482,-12.119 6.811,-16.46 4.344,-4.33 10.333,-6.813 16.462,-6.813 6.127,0 12.133,2.482 16.46,6.813 4.329,4.343 6.813,10.332 6.813,16.46 -0.001,6.131 -2.485,12.12 -6.813,16.462 z"
         id="path13"
         inkscape:connector-curvature="0"
         style="fill:#006df0" /></g></g><g
     id="g15" /><g
     id="g17" /><g
     id="g19" /><g
     id="g21" /><g
     id="g23" /><g
     id="g25" /><g
     id="g27" /><g
     id="g29" /><g
     id="g31" /><g
     id="g33" /><g
     id="g35" /><g
     id="g37" /><g
     id="g39" /><g
     id="g41" /><g
     id="g43" /><text
     xml:space="preserve"
     style="font-style:normal;font-variant:normal;font-weight:normal;font-stretch:normal;font-size:171.24372864px;line-height:125%;font-family:'JLS Data GothicR';-inkscape-font-specification:'JLS Data GothicR, Normal';text-align:start;letter-spacing:0px;word-spacing:0px;writing-mode:lr-tb;text-anchor:start;fill:#ffffff;fill-opacity:1;stroke:none;stroke-width:1px;stroke-linecap:butt;stroke-linejoin:miter;stroke-opacity:1;"
     x="94.163139"
     y="200.30879"
     id="text7161"
     sodipodi:linespacing="125%"
     transform="scale(1.065469,0.93855386)"><tspan
       sodipodi:role="line"
       id="tspan7163"
       x="94.163139"
       y="200.30879">jpeg</tspan></text>
</svg>