<?xml version="1.0" encoding="iso-8859-1"?>
<!-- Generator: Adobe Illustrator 19.0.0, SVG Export Plug-In . SVG Version: 6.00 Build 0)  -->
<svg version="1.1" id="Layer_1" xmlns="http://www.w3.org/2000/svg" xmlns:xlink="http://www.w3.org/1999/xlink" x="0px" y="0px"
	 viewBox="0 0 512 512" style="enable-background:new 0 0 512 512;" xml:space="preserve">
<path d="M0,357.336V26c0-5.504,4.704-10,10.448-10h491.104C507.296,16,512,20.496,512,26v331.336H0z"/>
<path style="fill:#E2E2E2;" d="M512,357.336V400c0,5.864-4.704,10.664-10.448,10.664H10.448C4.704,410.664,0,405.864,0,400v-42.664
	H512z"/>
<polygon style="fill:#C9C9C9;" points="181.336,485.336 330.664,485.336 320,410.664 192,410.664 "/>
<polygon style="fill:#AAAAAA;" points="320,410.664 192,410.664 185.352,457.2 322.488,428.064 "/>
<rect x="144" y="485.336" style="fill:#E2E2E2;" width="224" height="10.664"/>
<polygon style="fill:#939393;" points="192,410.664 320,410.664 320.72,415.704 188.68,433.936 "/>
<rect x="17.864" y="33.864" style="fill:#FFFFFF;" width="476.24" height="305.6"/>
<path style="fill:#E04F5F;" d="M384,282.664H128c-5.864,0-10.664-4.8-10.664-10.664V101.336c0-5.864,4.8-10.664,10.664-10.664h256
	c5.864,0,10.664,4.8,10.664,10.664V272C394.664,277.864,389.864,282.664,384,282.664z"/>
<polygon style="fill:#FFFFFF;" points="224,128 316.696,186.664 224,245.336 "/>
<g>
</g>
<g>
</g>
<g>
</g>
<g>
</g>
<g>
</g>
<g>
</g>
<g>
</g>
<g>
</g>
<g>
</g>
<g>
</g>
<g>
</g>
<g>
</g>
<g>
</g>
<g>
</g>
<g>
</g>
</svg>
