<?xml version="1.0" encoding="UTF-8" standalone="no"?>
<!-- Created with Inkscape (http://www.inkscape.org/) -->

<svg
   xmlns:dc="http://purl.org/dc/elements/1.1/"
   xmlns:cc="http://creativecommons.org/ns#"
   xmlns:rdf="http://www.w3.org/1999/02/22-rdf-syntax-ns#"
   xmlns:svg="http://www.w3.org/2000/svg"
   xmlns="http://www.w3.org/2000/svg"
   xmlns:sodipodi="http://sodipodi.sourceforge.net/DTD/sodipodi-0.dtd"
   xmlns:inkscape="http://www.inkscape.org/namespaces/inkscape"
   id="svg2"
   version="1.1"
   inkscape:version="0.48.5 r10040"
   width="512"
   height="512"
   sodipodi:docname="camera-512.png">
  <metadata
     id="metadata8">
    <rdf:RDF>
      <cc:Work
         rdf:about="">
        <dc:format>image/svg+xml</dc:format>
        <dc:type
           rdf:resource="http://purl.org/dc/dcmitype/StillImage" />
        <dc:title></dc:title>
      </cc:Work>
    </rdf:RDF>
  </metadata>
  <defs
     id="defs6" />
  <sodipodi:namedview
     pagecolor="#ffffff"
     bordercolor="#666666"
     borderopacity="1"
     objecttolerance="10"
     gridtolerance="10"
     guidetolerance="10"
     inkscape:pageopacity="0"
     inkscape:pageshadow="2"
     inkscape:window-width="1303"
     inkscape:window-height="665"
     id="namedview4"
     showgrid="false"
     inkscape:zoom="0.32593203"
     inkscape:cx="-103.24969"
     inkscape:cy="24.302297"
     inkscape:window-x="76"
     inkscape:window-y="43"
     inkscape:window-maximized="0"
     inkscape:current-layer="svg2" />
  <path
     sodipodi:type="arc"
     style="fill:#ffffff;fill-opacity:1;fill-rule:nonzero;stroke:none"
     id="path3026-5"
     sodipodi:cx="254.37288"
     sodipodi:cy="298.30508"
     sodipodi:rx="125.28814"
     sodipodi:ry="125.83051"
     d="m 379.66102,298.30508 a 125.28814,125.83051 0 1 1 -250.57628,0 125.28814,125.83051 0 1 1 250.57628,0 z"
     transform="matrix(0.18068909,0,0,0.18463625,386.55576,116.78622)" />
  <path
     sodipodi:type="arc"
     style="fill:#ffffff;fill-opacity:1;fill-rule:nonzero;stroke:none"
     id="path3026"
     sodipodi:cx="254.37288"
     sodipodi:cy="298.30508"
     sodipodi:rx="125.28814"
     sodipodi:ry="125.83051"
     d="m 379.66102,298.30508 a 125.28814,125.83051 0 1 1 -250.57628,0 125.28814,125.83051 0 1 1 250.57628,0 z"
     transform="matrix(1.0800507,0,0,1.1036444,-19.50425,-23.371502)" />
  <path
     style="fill:#ececec"
     d="m 379.96012,105.16303 c 5.17595,-2.43602 6.78895,-7.534155 6.78895,-21.45756 0,-15.241711 -1.50432,-20.139513 -6.94568,-22.614002 -5.64726,-2.56812 -62.80422,-2.585032 -68.44415,-0.02025 -6.08155,2.765618 -7.27497,7.037306 -6.76159,24.202381 0.45048,15.062681 0.52018,15.357411 4.31019,18.221481 3.83489,2.89797 3.99842,2.91115 36.13155,2.91115 19.51338,0 33.32387,-0.49167 34.92073,-1.2432 z"
     id="path2999"
     inkscape:connector-curvature="0" />
  <path
     style="fill:#0090fd"
     d="m 243.9327,396.49232 c -38.1463,-6.94279 -67.33058,-34.79167 -74.99636,-71.5647 -2.19455,-10.52735 -2.13109,-27.96909 0.13806,-37.94376 3.89988,-17.14303 10.68227,-29.8081 22.9403,-42.83733 12.48326,-13.26862 25.99262,-21.32441 44.31827,-26.42746 8.9082,-2.48063 34.38164,-2.48063 43.28985,0 18.32565,5.10305 31.83501,13.15884 44.31827,26.42746 16.77583,17.83128 24.72104,37.66828 24.73383,61.75352 0.0222,41.73096 -25.87007,76.16796 -66.16937,88.00617 -10.23944,3.00789 -29.25177,4.28257 -38.57285,2.5861 z"
     id="path3016"
     inkscape:connector-curvature="0" />
  <path
     style="fill:#ffffff"
     d="m 197.1875,313.25853 c 1.66693,-1.66741 2.16011,-3.6012 2.16011,-8.47008 0,-7.98319 3.38838,-21.35898 7.24827,-28.61279 1.63641,-3.07527 6.43832,-9.10201 10.67094,-13.39277 10.9304,-11.08053 21.49833,-15.93025 39.58058,-18.16385 7.75883,-0.95841 10.80042,-5.49397 6.54131,-9.7543 -1.54876,-1.54921 -3.22511,-1.7421 -10.53049,-1.21171 -16.4499,1.19429 -30.46214,7.88162 -43.3451,20.68638 -13.56313,13.48078 -20.22082,27.77831 -21.66076,46.5169 -0.66328,8.63151 -0.58661,9.05799 2.11425,11.75963 3.36956,3.37053 4.4019,3.46239 7.22089,0.64259 z"
     id="path3014"
     inkscape:connector-curvature="0" />
  <path
     inkscape:connector-curvature="0"
     id="path2997"
     d="m 42.102626,468.79583 c -6.004217,-1.18643 -11.526084,-5.1906 -14.770125,-10.71058 l -2.960527,-5.03769 0,-158.27285 c 0,-87.05007 0.388495,-160.10636 0.863285,-162.34731 0.990082,-4.67285 6.016638,-10.88381 10.90754,-13.47779 1.869243,-0.99135 7.168944,-2.04139 11.99029,-2.37563 l 8.640406,-0.59898 0.313647,-10.22663 c 0.199593,-6.50941 0.788437,-10.528515 1.620076,-11.057158 0.718557,-0.456787 3.066911,-0.837971 5.218588,-0.847067 3.720019,-0.01577 3.94575,-0.227092 4.59756,-4.303888 0.419816,-2.626303 1.491874,-4.719125 2.76709,-5.401805 1.303621,-0.697848 14.763644,-1.114456 36.007054,-1.114456 37.5323,0 36.88557,-0.120536 37.67973,7.022346 0.33039,2.970916 0.76554,3.286111 5.22064,3.781262 l 4.86023,0.540181 0.31516,9.666995 c 0.17334,5.31684 0.84038,10.30001 1.48237,11.0737 0.9202,1.10907 9.53684,1.4032 40.72666,1.39016 21.75783,-0.009 40.13759,-0.38411 40.84395,-0.83336 0.70635,-0.44924 7.41411,-15.14821 14.9061,-32.664372 17.35253,-40.569643 17.45762,-40.781891 21.12828,-42.680636 2.61188,-1.351001 13.18029,-1.591068 70.04193,-1.591068 46.51206,0 67.76454,0.363962 69.58054,1.191616 3.63372,1.656128 5.17225,4.708212 21.14653,41.95136 7.75357,18.07697 14.71504,33.25932 15.46989,33.73857 0.75495,0.47923 5.50372,0.88947 10.55296,0.91162 10.82081,0.0474 16.11813,2.0141 21.28693,7.90282 1.89625,2.16027 3.83612,5.76127 4.31102,8.00221 0.47479,2.24095 0.86329,75.29724 0.86329,162.34731 l 0,158.27285 -2.99887,5.103 c -1.94463,3.30911 -4.79219,6.15751 -8.10038,8.10271 l -5.10151,2.99971 -212.76999,0.15381 C 141.71948,469.49138 44.231298,469.21646 42.102626,468.79583 z M 269.85605,436.24849 c 31.4622,-3.40136 57.44692,-15.95433 80.22595,-38.75643 26.18885,-26.2153 39.11295,-57.13492 39.09643,-93.53428 -0.0108,-16.41954 -1.28235,-25.15976 -5.82439,-39.92972 -14.58188,-47.41738 -55.35714,-83.48372 -104.07336,-92.05445 -12.50656,-2.20031 -33.96911,-2.20031 -46.47566,0 -48.71623,8.57073 -89.49149,44.63707 -104.07336,92.05445 -4.54205,14.76996 -5.81705,23.51018 -5.82439,39.92972 -0.0162,36.39936 12.90757,67.31898 39.09643,93.53428 17.96059,17.97886 36.63856,28.90765 59.94832,35.07688 16.54422,4.37864 31.09747,5.49649 47.90403,3.67955 z m -28.2214,-39.89754 c -39.13208,-7.1222 -69.07054,-35.69075 -76.93439,-73.41408 -2.25126,-10.79939 -2.18613,-28.69186 0.14159,-38.9243 4.00073,-17.58605 10.95842,-30.57841 23.53312,-43.94434 12.80595,-13.61152 26.6644,-21.87548 45.46355,-27.1104 9.13841,-2.54473 35.27013,-2.54473 44.40855,0 18.79925,5.23492 32.65771,13.49888 45.46354,27.1104 17.20942,18.29208 25.35992,38.64171 25.37309,63.34937 0.0227,42.80938 -26.53868,78.1363 -67.87934,90.28042 -10.50404,3.08563 -30.0077,4.39324 -39.56971,2.65293 z m 37.07166,-14.05782 c 51.14547,-14.66398 74.47305,-74.06738 47.30794,-120.46942 -5.24818,-8.9647 -18.39412,-22.27476 -27.05429,-27.39213 -27.23219,-16.09175 -58.60215,-16.09175 -85.83422,0 -8.66017,5.11737 -21.80612,18.42743 -27.0543,27.39213 -23.85054,40.74037 -9.24048,92.64672 32.21834,114.46456 6.15068,3.23679 17.08403,6.8534 25.87251,8.55824 6.28492,1.21919 26.63135,-0.28474 34.54402,-2.55338 z M 442.70207,185.97988 c 13.19152,-9.77294 8.71752,-30.2788 -7.0684,-32.39674 -11.9958,-1.60944 -22.38675,9.13584 -20.18539,20.87368 0.85681,4.56867 6.05757,10.89619 10.68246,12.99679 4.3607,1.98062 12.93836,1.21779 16.57133,-1.47373 z M 371.6681,102.43847 c 4.07158,-2.17968 5.34042,-6.741344 5.34042,-19.199612 0,-13.637848 -1.1833,-18.020267 -5.46376,-20.234369 -4.44225,-2.297884 -49.404,-2.313009 -53.84052,-0.01815 -4.78398,2.474599 -5.72276,6.296785 -5.31893,21.655605 0.35436,13.477656 0.40923,13.741376 3.3906,16.304056 3.01658,2.59303 3.14522,2.60482 28.42229,2.60482 15.3499,0 26.2137,-0.43994 27.4699,-1.11238 z"
     style="fill:#6a6a6a" />
  <path
     style="fill:#808080;fill-opacity:1;fill-rule:nonzero;stroke:none"
     d="M 49.483294,434.28294 C 48.775137,431.38244 47.492642,365.7258 46.633311,288.3793 45.254367,164.26255 45.491125,147.19884 48.64956,143.06161 c 3.530383,-4.62443 6.333655,-4.68766 207.81142,-4.68766 201.47453,0 204.28124,0.0633 207.82111,4.68766 3.17065,4.14197 3.40908,21.05859 2.04821,145.31769 -0.84707,77.3465 -2.13394,143.00314 -2.85968,145.90364 l -1.31953,5.27362 -205.69011,0 -205.690114,0 -1.287572,-5.27362 z M 297.04898,386.9277 c 16.78108,-8.49288 34.75725,-26.53974 42.98121,-43.15019 5.94694,-12.0114 6.54463,-15.54713 6.59124,-38.99138 0.0466,-23.5093 -0.54247,-27.06786 -6.6834,-40.36637 -8.25163,-17.86937 -26.5366,-35.88443 -45.3945,-44.72443 -11.9571,-5.60512 -16.25786,-6.31871 -38.08255,-6.31871 -21.78923,0 -26.13561,0.71845 -38.00153,6.28161 -18.72077,8.77694 -35.4697,25.23018 -44.61532,43.8277 -7.1737,14.58761 -7.5942,16.87571 -7.58333,41.26319 0.0108,24.42863 0.40984,26.57657 7.40753,39.88219 9.11185,17.32552 23.97513,32.56337 39.44418,40.43822 18.04166,9.1845 21.71271,9.89356 47.22117,9.12066 20.54645,-0.62253 25.55168,-1.61261 36.7153,-7.26249 l 0,0 z"
     id="path4163"
     inkscape:connector-curvature="0" />
  <path
     sodipodi:type="arc"
     style="fill:#ffffff;fill-opacity:0;fill-rule:nonzero;stroke:#ffffff;stroke-width:31.37961769;stroke-miterlimit:4;stroke-opacity:1;stroke-dasharray:none"
     id="path4167"
     sodipodi:cx="410.74515"
     sodipodi:cy="296.46426"
     sodipodi:rx="110.06896"
     sodipodi:ry="110.45248"
     d="m 520.81411,296.46426 a 110.06896,110.45248 0 1 1 -220.13792,0 110.06896,110.45248 0 1 1 220.13792,0 z"
     transform="matrix(0.95586367,0,0,0.95620556,-134.875,19.362718)" />
  <path
     sodipodi:type="arc"
     style="fill:#ffffff;fill-opacity:0;fill-rule:nonzero;stroke:#4e4b4b;stroke-width:15.01717472;stroke-miterlimit:4;stroke-opacity:1;stroke-dasharray:none"
     id="path4167-5"
     sodipodi:cx="410.74515"
     sodipodi:cy="296.46426"
     sodipodi:rx="110.06896"
     sodipodi:ry="110.45248"
     d="m 520.81411,296.46426 a 110.06896,110.45248 0 1 1 -220.13792,0 110.06896,110.45248 0 1 1 220.13792,0 z"
     transform="matrix(0.7589486,0,0,0.75931316,-54.78234,78.867823)" />
</svg>
